<svg width="112" height="14" viewBox="0 0 112 14" fill="none" xmlns="http://www.w3.org/2000/svg"><g clip-path="url(#clip0_2361_156)"><path fill-rule="evenodd" clip-rule="evenodd" d="M111.114 9.053l-4.211 4.083a3.065 3.065 0 01-4.241 0l-3.614-3.505h-.057v.001H12.93l-3.614 3.504a3.065 3.065 0 01-4.241 0L.864 9.053a2.846 2.846 0 010-4.112L5.075.858a3.065 3.065 0 014.241 0l4.211 4.083c.148.144.277.3.388.464h84.148c.111-.164.24-.32.389-.464l4.21-4.083a3.065 3.065 0 014.241 0l4.211 4.083a2.846 2.846 0 010 4.112z" fill="#D6A554"/><path d="M111.114 9.053l-4.211 4.083a3.065 3.065 0 01-4.241 0l-3.614-3.505h-.057v.001H12.93l-3.614 3.504a3.065 3.065 0 01-4.241 0L.864 9.053a2.846 2.846 0 010-4.112L5.075.858a3.065 3.065 0 014.241 0l4.211 4.083c.148.144.277.3.388.464h84.148c.111-.164.24-.32.389-.464l4.21-4.083a3.065 3.065 0 014.241 0l4.211 4.083a2.846 2.846 0 010 4.112z" fill="url(#paint0_linear_2361_156)"/></g><defs><linearGradient id="paint0_linear_2361_156" x1="-.014" y1=".006" x2="111.992" y2=".006" gradientUnits="userSpaceOnUse"><stop stop-color="#C99C49"/><stop offset="1" stop-color="#AB872B"/></linearGradient><clipPath id="clip0_2361_156"><path fill="#fff" d="M0 0h112v14H0z"/></clipPath></defs></svg>