<svg width="550" height="15" viewBox="0 0 550 15" fill="none" xmlns="http://www.w3.org/2000/svg"><g clip-path="url(#clip0_2362_150)"><path fill-rule="evenodd" clip-rule="evenodd" d="M548.841 9.795l-4.211 4.212a3.001 3.001 0 01-4.243 0l-3.615-3.616H.69v-4.36h535.097c.111-.169.24-.33.389-.479l4.211-4.211a3.001 3.001 0 014.243 0l4.211 4.211a3 3 0 010 4.243z" fill="#CCD5E2"/><path d="M548.841 9.795l-4.211 4.212a3.001 3.001 0 01-4.243 0l-3.615-3.616H.69v-4.36h535.097c.111-.169.24-.33.389-.479l4.211-4.211a3.001 3.001 0 014.243 0l4.211 4.211a3 3 0 010 4.243z" fill="url(#paint0_linear_2362_150)"/></g><defs><linearGradient id="paint0_linear_2362_150" x1=".69" y1=".463" x2="549.72" y2=".463" gradientUnits="userSpaceOnUse"><stop stop-color="#C99C49"/><stop offset="1" stop-color="#AB872B"/></linearGradient><clipPath id="clip0_2362_150"><path fill="#fff" d="M0 0h550v15H0z"/></clipPath></defs></svg>