<svg width="26" height="20" viewBox="0 0 26 20" fill="none" xmlns="http://www.w3.org/2000/svg"><g clip-path="url(#clip0_2361_150)" fill="#A18A46"><path d="M25.97 15.31c-.15.72-.38 1.4-.75 2.04-.77 1.35-1.89 2.19-3.46 2.38-1.84.22-3.5-.22-4.83-1.54a7.637 7.637 0 01-2.18-4.13c-.66-3.66.35-6.86 2.67-9.69 1.52-1.85 3.41-3.23 5.55-4.28.28-.14.44-.11.61.16.29.46.61.91.93 1.35.16.21.12.32-.11.44-1.45.81-2.75 1.82-3.8 3.12-1.05 1.29-1.68 2.77-1.98 4.4-.03.16-.1.37.23.24 2.43-.97 6.36.22 7.06 3.92.01.06.03.11.05.16v1.43h.01zM4.05 9.86c1.92-.67 3.7-.47 5.32.69 1.94 1.38 2.59 3.94 1.63 6.12-.67 1.54-1.74 2.66-3.43 2.98-2.26.44-4.18-.19-5.68-1.99C.62 16.12.06 14.34 0 12.37c-.1-3.28 1.11-6.05 3.26-8.46C4.72 2.28 6.46 1.05 8.41.09c.28-.14.44-.12.61.15.27.43.58.84.87 1.26.25.36.25.36-.12.57-1.56.9-2.96 2-4.02 3.47-.86 1.19-1.4 2.52-1.66 3.96-.02.11-.02.22-.04.35v.01z"/></g><defs><clipPath id="clip0_2361_150"><path fill="#fff" d="M0 0h25.97v19.78H0z"/></clipPath></defs></svg>