<svg width="112" height="14" viewBox="0 0 112 14" fill="none" xmlns="http://www.w3.org/2000/svg">
<g clip-path="url(#clip0_2361_156)">
<path fill-rule="evenodd" clip-rule="evenodd" d="M111.114 9.05301L106.903 13.136C105.732 14.272 103.833 14.272 102.662 13.136L99.048 9.63101H98.991V9.63201H12.93L9.316 13.136C8.145 14.272 6.246 14.272 5.075 13.136L0.863998 9.05301C-0.307002 7.91801 -0.307002 6.07701 0.863998 4.94101L5.075 0.858012C6.246 -0.277988 8.145 -0.277988 9.316 0.858012L13.527 4.94101C13.675 5.08501 13.804 5.24101 13.915 5.40501H98.063C98.174 5.24101 98.303 5.08501 98.452 4.94101L102.662 0.858012C103.833 -0.277988 105.732 -0.277988 106.903 0.858012L111.114 4.94101C112.285 6.07701 112.285 7.91801 111.114 9.05301Z" fill="#D6A554"/>
<path d="M111.114 9.05301L106.903 13.136C105.732 14.272 103.833 14.272 102.662 13.136L99.048 9.63101H98.991V9.63201H12.93L9.316 13.136C8.145 14.272 6.246 14.272 5.075 13.136L0.863998 9.05301C-0.307002 7.91801 -0.307002 6.07701 0.863998 4.94101L5.075 0.858012C6.246 -0.277988 8.145 -0.277988 9.316 0.858012L13.527 4.94101C13.675 5.08501 13.804 5.24101 13.915 5.40501H98.063C98.174 5.24101 98.303 5.08501 98.452 4.94101L102.662 0.858012C103.833 -0.277988 105.732 -0.277988 106.903 0.858012L111.114 4.94101C112.285 6.07701 112.285 7.91801 111.114 9.05301Z" fill="url(#paint0_linear_2361_156)"/>
</g>
<defs>
<linearGradient id="paint0_linear_2361_156" x1="-0.0142517" y1="0.00601196" x2="111.992" y2="0.00601196" gradientUnits="userSpaceOnUse">
<stop stop-color="#C99C49"/>
<stop offset="1" stop-color="#AB872B"/>
</linearGradient>
<clipPath id="clip0_2361_156">
<rect width="112" height="14" fill="white"/>
</clipPath>
</defs>
</svg>
