<?xml version="1.0" encoding="UTF-8"?>
<svg id="_圖層_1" data-name="圖層 1" xmlns="http://www.w3.org/2000/svg" viewBox="0 0 110.156 24.962">
  <path d="M18.245,6.032c-.872,0-1.309-.287-1.309-.863,0-.074,0-.17.026-.265.253-.625.359-1.057.359-1.32,0-.241-.203-.361-.67-.361h-3.008v-1.971h4.374c1.127,0,1.698.337,1.698,1.033,0,2.495-.492,3.748-1.47,3.748M13.643,19.294v-1.896h2.108c.41,0,.615-.194.615-.623v-.433h-2.723v-1.73h2.723v-.459c0-.358-.231-.55-.669-.55h-2.054v-1.875h3.474c1.025,0,1.564.382,1.564,1.201v5.094c0,.843-.566,1.27-1.695,1.27h-3.344ZM13.643,11.081v-1.807h.972c.364,0,.519-.165.519-.503,0-.385-.155-.579-.519-.579h-.972v-1.705h2.336c.823,0,1.209.387,1.209,1.154l.027,2.188c0,.816-.413,1.252-1.261,1.252h-2.311ZM13.643,5.839v-1.876h2.159c.542,0,.818.315.818.914,0,.65-.276.962-.818.962h-2.159ZM13.643,3.222h-3.889V0h.076c.853,0,1.262.24,1.262.77v.48h2.55v1.971ZM13.643,5.839h-3.889v-1.876h3.889v1.876ZM13.643,8.193h-3.889v-1.703h3.889v1.703ZM13.643,11.081h-3.889v-1.804h3.889v1.804ZM13.643,11.728v1.875h-2.707v1.009h2.707v1.73h-2.707v1.056h2.707v1.896h-3.889v-7.566h3.889ZM9.754,3.222h-3.785v-1.971h2.651v-.48c0-.507.384-.77,1.134-.77v3.222ZM9.754,5.839h-3.785v-1.876h3.785v1.876ZM9.754,8.193h-3.785v-1.703h3.785v1.703ZM9.754,11.081h-3.785v-1.804h3.785v1.804ZM9.754,11.728v7.566h-3.785v-1.896h2.678v-1.056h-2.678v-1.73h2.678v-1.009h-2.678v-1.875h3.785ZM5.969,3.222h-2.827c-.518,0-.773.215-.773.671v1.201c0,.552-.414.818-1.236.818-.747,0-1.133-.266-1.133-.818v-2.763c0-.72.487-1.081,1.463-1.081h4.506v1.971ZM5.969,3.963h-2.264c-.563,0-.848.315-.848.94s.285.936.848.936h2.264v-1.876ZM5.969,6.488v1.705h-1.003c-.332,0-.488.17-.488.555,0,.362.156.527.488.527h1.003v1.807h-2.32c-.818,0-1.256-.412-1.256-1.252v-2.261c0-.239.129-.479.358-.721.257-.238.468-.36.619-.36h2.599ZM5.969,11.728v1.875h-2.01c-.434,0-.665.17-.665.53v.479h2.675v1.73h-2.675v.459c0,.403.256.597.797.597h1.878v1.896h-3.37c-1.081,0-1.62-.48-1.62-1.391v-4.949c0-.817.539-1.226,1.596-1.226h3.395Z" style="fill: #073d85;"/>
  <path d="M41.811,1.971c0,.624-.309.934-.952.934h-4.114v-1.844h4.114c.643,0,.952.309.952.91M36.744,3.704h3.088c.895,0,1.333.407,1.333,1.222v12.64c0,1.248-.67,1.853-1.98,1.853-1.466,0-2.289-.266-2.44-.793v-1.878c.305.218.481.414.536.629.049-.027.127-.052.207-.052.075,0,.177,0,.254.025.515.097.876.17,1.082.17.21,0,.31-.144.31-.386v-7.904h-2.389v-1.467h2.389v-.625h-2.389v-1.347h2.389v-.312c0-.17-.1-.266-.328-.266h-2.061v-1.509ZM36.744,9.902h1.333c.364,0,.567.241.567.744s-.203.773-.567.773h-1.333v-1.517ZM36.744,11.873c.844.023,1.28.434,1.28,1.202v1.681c0,.768-.437,1.155-1.28,1.198v-4.081ZM36.744,2.905h-.029v.341c0,.166-.079.31-.234.458h.263v1.509h-1.109V0c.717.024,1.08.263,1.08.77v.291h.029v1.844ZM36.744,18.626c-.029-.072-.029-.147-.029-.219-.125.048-.234.072-.334.072-.158,0-.312-.047-.465-.119-.103-.051-.181-.094-.281-.143v-1.945c.462.165.822.336,1.109.476v1.878ZM35.635,9.902h1.109v1.517h-1.109v-1.517ZM35.635,11.848h.955c.046,0,.099.024.154.024v4.081h-1.109v-1.462h.178c.284,0,.436-.144.436-.409v-.338c0-.261-.152-.405-.436-.405h-.178v-1.491ZM36.744,9.23h-1.109v-1.467h1.109v1.467ZM36.744,7.138h-1.109v-1.347h1.109v1.347ZM35.635,18.217c-.801-.432-1.496-.819-2.138-1.107v-3.006c.027-.045.052-.068.102-.12.18-.189.359-.408.49-.645h-.592v-1.491h2.138v1.491h-.077v.049c0,.145-.024.286-.103.454,0,0-.028.023-.028.05-.152.286-.281.479-.385.599h.593v1.462h-.98c.359.099.693.198.98.318v1.945ZM33.497,9.902h2.138v1.517h-2.138v-1.517ZM35.635,9.23h-2.138V3.724c.079-.02.181-.02.257-.02h.949c-.1-.099-.176-.267-.176-.458v-.341h-1.03v-1.844h1.03v-.291c0-.507.36-.77,1.081-.77h.027v5.213h-.98c-.208,0-.334.097-.334.266v.312h1.314v1.347h-1.314v.338c0,.191.126.287.334.287h.98v1.467ZM33.497,17.11c-.207-.097-.387-.189-.566-.263v1.707c0,.504-.332.74-.978.74-.666,0-.978-.236-.978-.74v-1.515c-.204.123-.409.242-.616.338v-2.886h.616v-1.152h-.616v-1.491h.616v-.429h-.616v-1.517h.616v-.363c0-.506.312-.743.978-.743.646,0,.978.238.978.743v.363h.566v1.517h-.566v.429h.566v1.491h-.566v1.152h.52c-.026-.071-.055-.12-.055-.144,0-.072.055-.168.102-.242v3.006ZM33.497,9.23V3.724c-.695.071-1.056.48-1.056,1.202v3.101c0,.72.36,1.126,1.056,1.203M33.497,2.905h-3.14v-1.843h3.14v1.843ZM30.357,3.724v5.481c.646-.096.948-.482.948-1.178v-3.101c0-.698-.302-1.107-.948-1.202M30.357,14.444c.025-.049.025-.074.025-.098,0-.025,0-.046-.025-.097v.195ZM30.357,17.377c-.772.432-1.466.768-2.083,1.031v-1.947c.439-.144.876-.309,1.311-.507h-1.311v-1.462h.617c-.178-.265-.359-.479-.543-.648-.025-.047-.049-.098-.075-.168v-.286q0-.026.025-.049h-.025v-1.491h2.083v1.491h-.591c.358.405.541.72.591.911v3.127ZM30.357,11.419h-2.083v-1.519h2.083v1.519ZM30.357,2.905h-1.182v.341c0,.191-.056.337-.184.458h1.031c.129,0,.234,0,.335.02v5.481c-.101.024-.206.024-.335.024h-1.748v-1.467h.821c.234,0,.339-.096.339-.287v-.338h-1.16v-1.347h1.16v-.312c0-.17-.105-.266-.339-.266h-.821V.024c.59.023.901.262.901.746v.291h1.182v1.844ZM28.274,18.407c-.41.166-.796.313-1.133.407v-1.992c.358-.118.743-.214,1.133-.361v1.947ZM28.274,15.953h-1.133v-4.081c.05,0,.127-.024.179-.024h.954v1.491h-.18c-.284,0-.438.144-.438.405v.338c0,.265.154.409.438.409h.18v1.462ZM28.274,11.419h-1.133v-1.519h1.133v1.519ZM28.274,9.23h-1.133v-1.467h1.133v1.467ZM27.142,3.704h.05s-.023-.05-.05-.099V.333c.154-.214.488-.333.953-.333.076,0,.128,0,.18.024v5.188h-1.133v-1.509ZM28.274,7.138h-1.133v-1.347h1.133v1.347ZM28.274,13.388c-.027.047-.027.096-.027.145,0,.043,0,.093.027.141v-.286ZM27.142,18.814c-.412.123-.798.171-1.107.171-.568,0-.849-.359-.849-1.109,0-.43.154-.673.488-.743.49-.068.977-.19,1.468-.312v1.992ZM27.142,15.953c-.851-.043-1.263-.455-1.263-1.198v-1.681c0-.747.412-1.153,1.263-1.202v4.081ZM27.142,11.419h-1.315c-.36,0-.537-.267-.537-.773s.177-.744.537-.744h1.315v1.517ZM27.142,9.23v-1.467h-2.29v-.625h2.29v-1.347h-2.29v-.312c0-.17.102-.266.333-.266h1.957v-1.509h-2.986c-.876,0-1.336.407-1.336,1.222v13.914c0,.483.331.721,1.027.721.669,0,1.005-.238,1.005-.721v-9.61h2.29ZM27.142,3.605s-.027,0-.027-.022c-.025-.05-.047-.075-.047-.099-.027-.071-.053-.142-.053-.238v-.341h-4.168c-.647,0-.979-.31-.979-.934,0-.601.332-.91.979-.91h4.168v-.291c0-.196.053-.311.128-.437v3.271Z" style="fill: #073d85;"/>
  <path d="M64.239,2.978c0,.726-.286,1.058-.829,1.058h-8.519v1.417h5.795c.848,0,1.256.385,1.256,1.181v5.452c0,.769-.437,1.152-1.256,1.152h-3.168v3.151c0,.599.258.89.801.89h2.573c.485,0,.721-.359.721-1.109v-1.393c0-.477.385-.742,1.159-.742.717,0,1.106.265,1.106.742v2.502c0,1.319-.642,1.992-1.935,1.992h-4.703c-1.317,0-1.958-.576-1.958-1.752v-4.281h-1.338v-2.041h5.273c.334,0,.492-.216.492-.599v-2.572c0-.361-.184-.529-.516-.529h-5.25V0c.642.047.948.315.948.794v1.178h8.519c.544,0,.829.336.829,1.007M53.943,13.239h-1.516c-.105,2.141-1.034,3.727-2.832,4.784-1.802,1.034-3.272,1.537-4.428,1.537-.773,0-1.161-.453-1.161-1.416,0-.435.18-.697.515-.795,2.781-.789,4.403-1.463,4.893-2.092.46-.601.744-1.274.797-2.019h-2.859c-.85,0-1.262-.427-1.262-1.294v-5.31c0-.796.412-1.181,1.234-1.181h5.282v-1.417h-7.903c-.564,0-.851-.36-.851-1.106,0-.647.287-.959.851-.959h7.903V.794c0-.531.38-.794,1.15-.794h.186v7.498h-5.175c-.385,0-.594.192-.594.6v2.523c0,.39.21.576.594.576h5.175v2.041Z" style="fill: #073d85;"/>
  <path d="M86.261,14.514c.104.144.156.338.156.532,0,.817-.461,1.225-1.417,1.225-.461,0-.972-.603-1.594-1.827-.591-1.205-1.235-2.596-1.901-4.159v8.486c0,.523-.387.79-1.112.79-.769,0-1.154-.267-1.154-.79v-8.341c-.62,1.343-1.395,2.692-2.264,4.038-.905,1.342-1.601,2.014-2.136,2.014h-.054v-3.169c2.191-2.763,3.574-5.36,4.192-7.76h-2.21c-.589,0-.876-.365-.876-1.083,0-.723.287-1.084.876-1.084h2.496V.794c0-.529.388-.794,1.13-.794.75,0,1.132.264,1.132.794v2.593h3.814c.592,0,.872.361.872,1.084,0,.717-.28,1.083-.872,1.083h-3.451c.567,2.304,2.032,5.309,4.373,8.961M74.785,11.32v-3.413c.926,1.126,1.393,1.9,1.367,2.307,0,.743-.441,1.106-1.312,1.106h-.054ZM74.785,5.554v-2.167h.054c.563,0,.847.361.847,1.084,0,.717-.284,1.083-.847,1.083h-.054ZM74.785,16.482c-.9-.022-1.365-.43-1.365-1.224,0-.188.054-.359.181-.503.413-.481.822-.96,1.184-1.442v3.169ZM74.785,3.387h-2.265V.794c0-.529-.384-.794-1.133-.794s-1.107.264-1.107.794v2.593h-2.959c-.565,0-.849.361-.849,1.084,0,.717.284,1.083.849,1.083h2.447c-.568,2.304-1.729,4.707-3.424,7.23-.155.215-.203.431-.203.628,0,.767.438,1.13,1.362,1.13.487,0,1.032-.557,1.619-1.659.591-1.109.955-1.925,1.134-2.453v8.341c0,.523.36.79,1.109.79.743,0,1.128-.267,1.128-.79v-10.193c.439.553.725.943.847,1.134l.026.021c.312.481.542.867.747,1.178.157.262.386.386.671.41v-3.413c-.539-.649-1.26-1.441-2.161-2.353h2.161v-2.167Z" style="fill: #073d85;"/>
  <path d="M100.088,4.496c0,.333-.138.512-.426.512h-1.626v.693h1.174c.287,0,.438.157.438.449,0,.347-.151.523-.438.523h-2.914v-.972h.728v-.693h-.728v-.995h.728v-.664h-.728v-.943h.427c-.123-.063-.198-.169-.198-.323v-.211h-.229v-.991h.229v-.297c0-.287.17-.415.499-.415.356,0,.53.127.53.388v.324h2.023c.29,0,.437.148.437.472,0,.353-.147.519-.437.519h-2.023v.226c0,.175-.076.269-.214.307h1.943c.294,0,.428.136.428.446,0,.331-.134.498-.428.498h-1.248v.664h1.626c.288,0,.426.165.426.483M96.296,7.18h3.282c.296,0,.448.167.448.486,0,.344-.153.509-.448.509h-3.282v-.995ZM96.296,6.673h-.731v.507h.731v.995h-.731v1.219c0,.248-.152.377-.44.402V2.406h1.171v.943h-.731v.664h.731v.995h-.731v.693h.731v.972ZM95.125.881h1.171v.991h-1.171v-.991ZM95.125,9.796h-.08c-.314,0-.478-.13-.478-.418v-1.203h-.705v-.995h.705v-.507h-.705v-.972h.705v-.693h-.705v-.995h.705v-.664h-.705v-.943h1.264v7.39ZM93.861.881h1.264v.991h-1.264v-.991ZM93.861,8.175h-3.242c-.3,0-.45-.165-.45-.509,0-.319.15-.486.45-.486h3.242v.995ZM93.861,6.673h-2.886c-.29,0-.444-.176-.444-.523,0-.292.154-.449.444-.449h1.16v-.693h-1.604c-.292,0-.43-.179-.43-.512,0-.318.138-.483.43-.483h1.604v-.664h-1.17c-.293,0-.441-.166-.441-.506,0-.301.147-.438.441-.438h1.94c-.128-.063-.203-.169-.203-.323v-.211h-2.067c-.29,0-.441-.166-.441-.519,0-.324.151-.472.441-.472h2.067v-.297c0-.287.166-.415.492-.415.354,0,.534.127.534.388v.324h.134v.991h-.134v.226c0,.175-.066.269-.211.307h.345v.943h-.717v.664h.717v.995h-.717v.693h.717v.972Z" style="fill: #073d85;"/>
  <path d="M109.533,9.78c-.572,0-1.392-.259-2.448-.778-1.061-.532-1.698-.994-1.944-1.394-.503.627-1.208,1.145-2.146,1.557-.926.413-1.688.614-2.255.614-.375,0-.565-.225-.565-.662,0-.261.162-.402.494-.437,1.435-.153,2.583-.661,3.44-1.535h-3.428c-.304,0-.459-.164-.459-.495,0-.342.154-.519.466-.519h3.768c.03-.118.041-.213.041-.298,0-.091,0-.189.014-.282h-3.695c-.287,0-.44-.179-.44-.507,0-.344.153-.51.465-.51h3.684v-.52h-3.16c-.293,0-.444-.163-.444-.493,0-.345.151-.519.463-.519h3.141v-.474h-3.604c-.288,0-.441-.165-.441-.496,0-.343.153-.509.465-.509h2.004c-.104-.118-.266-.295-.505-.506-.06-.073-.103-.153-.103-.248,0-.388.202-.588.609-.588.315,0,.769.447,1.385,1.342h1.628c.201-.211.439-.579.743-1.097.1-.166.244-.259.43-.259.164,0,.328.054.48.164.146.109.228.236.228.389,0,.099-.154.367-.452.803h1.979c.313,0,.465.166.465.509,0,.331-.152.496-.44.496h-3.746v.474h3.278c.314,0,.478.174.478.519,0,.33-.154.493-.456.493h-3.3v.52h3.822c.315,0,.463.166.463.51,0,.329-.147.507-.441.507h-3.844v.579h3.968c.317,0,.47.176.47.519,0,.331-.153.495-.443.495h-3.544c.686.58,1.819,1.054,3.371,1.431.451.104.68.28.68.519,0,.459-.217.695-.616.684" style="fill: #073d85;"/>
  <path d="M99.95,12.705c0,.626-.302.95-.932.95h-.957c-.62,0-.933-.311-.933-.927v-1.335c0-.177-.114-.271-.327-.271h-.201v-1.068h.68c.628,0,.948.316.948.948v1.462c0,.155.097.241.276.241h.136c.153,0,.238-.124.238-.36v-.629c0-.273.179-.406.542-.406.353,0,.529.133.529.406v.989ZM96.6,18.227v-1.424c.314-.251.632-.549.927-.893.332-.392.508-.637.508-.737,0-.073-.049-.106-.136-.106h-1.299v-1.049h2.066c.48,0,.73.254.73.727,0,.287-.186.716-.567,1.257-.378.549-.816,1.035-1.351,1.488.331.164.99.428,1.943.774.353.117.558.211.593.285.053.07.066.156.066.236,0,.428-.18.654-.532.654-.164,0-.603-.144-1.336-.44-.685-.287-1.222-.55-1.613-.773M96.6,11.123h-.899c-.203,0-.303.094-.303.271v.502c0,.664-.211,1.166-.614,1.497-.42.345-.734.499-.975.499-.149,0-.276-.07-.4-.214-.119-.153-.178-.295-.178-.45,0-.182.059-.301.19-.346.579-.236.857-.583.857-1.035v-.843c0-.631.317-.948.943-.948h1.378v1.068ZM96.6,14.019h-2.573c-.217,0-.354.1-.393.288-.118-.118-.254-.179-.402-.179-.062,0-.115.008-.177.034-.217.119-.353.204-.438.238v-1.792h.763c.294,0,.431-.166.431-.523,0-.347-.137-.52-.431-.52h-.763v-1.381c0-.259-.18-.404-.546-.404-.378,0-.552.145-.552.404v1.381h-.911c-.289,0-.439.174-.439.52,0,.357.15.523.439.523h.911v2.305c-.293.119-.671.261-1.123.425-.189.072-.28.213-.28.418,0,.414.168.629.519.629.151,0,.44-.094.884-.31v1.997c0,.179-.052.261-.155.261-.083,0-.276-.037-.553-.118-.041-.015-.058-.026-.1-.026-.282,0-.414.204-.414.609,0,.39.473.59,1.423.59.59,0,.897-.282.897-.839v-2.949c.726-.37,1.095-.584,1.095-.652.048.083.15.118.316.118h2.573v-1.049ZM96.6,16.804v1.424c-.028-.011-.049-.025-.076-.037-.543.335-1.137.632-1.802.87-.671.26-1.1.38-1.287.38-.354,0-.518-.239-.518-.718,0-.223.086-.351.29-.398.806-.205,1.578-.49,2.292-.844-.454-.346-.933-.795-1.459-1.369-.027-.035-.039-.055-.052-.055-.087-.101-.137-.192-.137-.299,0-.142.071-.26.2-.393.141-.132.265-.203.394-.203.121,0,.276.113.474.335.517.579,1.035,1.044,1.555,1.391.035-.026.085-.053.126-.084" style="fill: #073d85;"/>
  <path d="M109.464,10.717c0,.324-.172.476-.527.476h-2.57v-.976h2.559c.353,0,.539.168.539.499M106.366,19.242v-1.057h1.969c.159,0,.235-.112.235-.316v-.53c0-.167-.089-.247-.253-.247h-1.951v-1.017h2.737c.4,0,.593.196.593.585v2.019c0,.368-.193.561-.585.561h-2.745ZM106.366,15.553v-.971h2.559c.353,0,.539.165.539.496,0,.311-.172.475-.527.475h-2.57ZM106.366,14.082v-.986h2.559c.353,0,.539.177.539.512,0,.31-.172.474-.527.474h-2.57ZM106.366,12.644v-1h3.248c.355,0,.536.175.536.512,0,.322-.181.488-.516.488h-3.267ZM106.366,11.193h-2.524c-.286,0-.425-.153-.425-.466,0-.342.139-.51.411-.51h2.538v.976ZM106.366,11.645v1h-3.255c-.087,0-.163-.025-.226-.062v-.878c.063-.037.139-.059.226-.059h3.255ZM106.366,13.096v.986h-2.524c-.286,0-.425-.157-.425-.465,0-.344.139-.521.411-.521h2.538ZM106.366,14.582v.971h-2.524c-.286,0-.425-.152-.425-.475,0-.331.139-.496.411-.496h2.538ZM106.366,16.076v1.017h-1.929c-.189,0-.279.101-.279.289v.528c0,.177.09.276.279.276h1.929v1.057h-2.649c-.426,0-.631-.217-.631-.658v-1.923c0-.39.204-.585.606-.585h2.674ZM102.885,11.015v-1.139c.124.074.191.188.191.354,0,.157-.068.418-.191.785M102.885,9.875v1.139c-.116.309-.267.701-.466,1.166v6.843c0,.282-.165.428-.492.428-.394,0-.583-.132-.583-.416v-4.825c-.2.329-.373.487-.548.487-.115,0-.253-.045-.408-.158-.152-.104-.215-.246-.215-.404,0-.067.038-.187.129-.34.678-1.091,1.21-2.22,1.612-3.366.137-.438.305-.651.495-.651.209,0,.36.023.477.095M102.885,11.704c-.125.069-.191.223-.191.463,0,.216.066.359.191.415v-.878Z" style="fill: #073d85;"/>
  <rect x=".113" y="21.543" width="70.774" height="3.418" style="fill: #dd5612;"/>
  <rect x="36.563" y="21.543" width="52.903" height="3.418" style="fill: #dd5612;"/>
  <rect x="89.181" y="23.83" width="1.106" height="1.132" style="fill: #dd5612;"/>
  <rect x="88.077" y="22.689" width="1.094" height="1.141" style="fill: #dd5612;"/>
  <rect x="89.181" y="21.543" width="1.106" height="1.145" style="fill: #dd5612;"/>
  <rect x="87.797" y="21.543" width="1.385" height="1.145" style="fill: #dd5612;"/>
  <rect x="88.077" y="23.83" width="1.094" height="1.132" style="fill: #fff;"/>
  <rect x="89.181" y="22.689" width="1.106" height="1.141" style="fill: #fff;"/>
  <rect x="90.287" y="23.83" width="1.099" height="1.132" style="fill: #fff;"/>
  <rect x="90.287" y="21.543" width="1.099" height="1.145" style="fill: #fff;"/>
  <rect x="90.287" y="22.689" width="1.099" height="1.141" style="fill: #dd5612;"/>
  <rect x="91.386" y="23.83" width="1.108" height="1.132" style="fill: #dd5612;"/>
  <rect x="91.386" y="21.543" width="1.108" height="1.145" style="fill: #dd5612;"/>
  <rect x="91.386" y="22.689" width="1.108" height="1.141" style="fill: #fff;"/>
  <rect x="92.49" y="23.83" width="1.109" height="1.132" style="fill: #fff;"/>
  <rect x="92.49" y="21.543" width="1.109" height="1.145" style="fill: #fff;"/>
  <rect x="92.49" y="22.689" width="1.109" height="1.141" style="fill: #dd5612;"/>
  <rect x="96.915" y="23.83" width="1.103" height="1.132" style="fill: #fff;"/>
  <rect x="96.915" y="21.543" width="1.103" height="1.145" style="fill: #fff;"/>
  <rect x="96.915" y="22.689" width="1.103" height="1.141" style="fill: #dd5612;"/>
  <rect x="95.807" y="23.83" width="1.108" height="1.132" style="fill: #dd5612;"/>
  <rect x="95.807" y="21.543" width="1.108" height="1.145" style="fill: #dd5612;"/>
  <rect x="95.807" y="22.689" width="1.108" height="1.141" style="fill: #fff;"/>
  <rect x="94.707" y="23.83" width="1.1" height="1.132" style="fill: #fff;"/>
  <rect x="94.707" y="21.543" width="1.1" height="1.145" style="fill: #fff;"/>
  <rect x="94.707" y="22.689" width="1.1" height="1.141" style="fill: #dd5612;"/>
  <rect x="93.599" y="23.83" width="1.108" height="1.132" style="fill: #dd5612;"/>
  <rect x="93.599" y="21.543" width="1.108" height="1.145" style="fill: #dd5612;"/>
  <rect x="93.599" y="22.689" width="1.108" height="1.141" style="fill: #fff;"/>
  <rect x="105.736" y="23.83" width="1.109" height="1.132" style="fill: #fff;"/>
  <rect x="105.736" y="21.543" width="1.109" height="1.145" style="fill: #fff;"/>
  <rect x="105.736" y="22.689" width="1.109" height="1.141" style="fill: #dd5612;"/>
  <rect x="104.633" y="23.83" width="1.102" height="1.132" style="fill: #dd5612;"/>
  <rect x="104.633" y="21.543" width="1.102" height="1.145" style="fill: #dd5612;"/>
  <rect x="104.633" y="22.689" width="1.102" height="1.141" style="fill: #fff;"/>
  <rect x="103.528" y="23.83" width="1.105" height="1.132" style="fill: #fff;"/>
  <rect x="103.528" y="21.543" width="1.105" height="1.145" style="fill: #fff;"/>
  <rect x="103.528" y="22.689" width="1.105" height="1.141" style="fill: #dd5612;"/>
  <rect x="102.425" y="23.83" width="1.105" height="1.132" style="fill: #dd5612;"/>
  <rect x="102.425" y="21.543" width="1.105" height="1.145" style="fill: #dd5612;"/>
  <rect x="102.425" y="22.689" width="1.105" height="1.141" style="fill: #fff;"/>
  <rect x="98.018" y="23.83" width="1.095" height="1.132" style="fill: #dd5612;"/>
  <rect x="98.018" y="21.543" width="1.095" height="1.145" style="fill: #dd5612;"/>
  <rect x="98.018" y="22.689" width="1.095" height="1.141" style="fill: #fff;"/>
  <rect x="99.112" y="23.83" width="1.105" height="1.132" style="fill: #fff;"/>
  <rect x="99.112" y="21.543" width="1.105" height="1.145" style="fill: #fff;"/>
  <rect x="99.112" y="22.689" width="1.105" height="1.141" style="fill: #dd5612;"/>
  <rect x="100.217" y="23.83" width="1.099" height="1.132" style="fill: #dd5612;"/>
  <rect x="100.217" y="21.543" width="1.099" height="1.145" style="fill: #dd5612;"/>
  <rect x="100.217" y="22.689" width="1.099" height="1.141" style="fill: #fff;"/>
  <rect x="101.317" y="23.83" width="1.108" height="1.132" style="fill: #fff;"/>
  <rect x="101.317" y="21.543" width="1.108" height="1.145" style="fill: #fff;"/>
  <rect x="101.317" y="22.689" width="1.108" height="1.141" style="fill: #dd5612;"/>
  <rect x="106.844" y="23.83" width="1.106" height="1.132" style="fill: #dd5612;"/>
  <rect x="106.844" y="21.543" width="1.106" height="1.145" style="fill: #dd5612;"/>
  <rect x="106.844" y="22.689" width="1.106" height="1.141" style="fill: #fff;"/>
  <rect x="107.946" y="21.543" width="1.106" height="1.145" style="fill: #fff;"/>
  <rect x="107.946" y="22.689" width="1.106" height="1.141" style="fill: #dd5612;"/>
  <rect x="109.052" y="21.543" width="1.104" height="1.145" style="fill: #dd5612;"/>
</svg>