<svg width="26" height="20" viewBox="0 0 26 20" fill="none" xmlns="http://www.w3.org/2000/svg">
<g clip-path="url(#clip0_2361_150)">
<path d="M25.97 15.31C25.82 16.03 25.59 16.71 25.22 17.35C24.45 18.7 23.33 19.54 21.76 19.73C19.92 19.95 18.26 19.51 16.93 18.19C15.78 17.05 15.04 15.66 14.75 14.06C14.09 10.4 15.1 7.19999 17.42 4.36999C18.94 2.51999 20.83 1.13999 22.97 0.0899903C23.25 -0.0500097 23.41 -0.0200097 23.58 0.24999C23.87 0.70999 24.19 1.15999 24.51 1.59999C24.67 1.80999 24.63 1.91999 24.4 2.03999C22.95 2.84999 21.65 3.85999 20.6 5.15999C19.55 6.44999 18.92 7.92999 18.62 9.55999C18.59 9.71999 18.52 9.92999 18.85 9.79999C21.28 8.82999 25.21 10.02 25.91 13.72C25.92 13.78 25.94 13.83 25.96 13.88V15.31H25.97Z" fill="#A18A46"/>
<path d="M4.05001 9.85999C5.97001 9.18999 7.75001 9.38999 9.37001 10.55C11.31 11.93 11.96 14.49 11 16.67C10.33 18.21 9.26001 19.33 7.57001 19.65C5.31001 20.09 3.39001 19.46 1.89001 17.66C0.620009 16.12 0.0600086 14.34 8.62777e-06 12.37C-0.0999914 9.08999 1.11001 6.31999 3.26001 3.90999C4.72001 2.27999 6.46001 1.04999 8.41001 0.0899939C8.69001 -0.0500061 8.85001 -0.0300061 9.02001 0.239994C9.29001 0.669994 9.60001 1.07999 9.89001 1.49999C10.14 1.85999 10.14 1.85999 9.77001 2.06999C8.21001 2.96999 6.81001 4.06999 5.75001 5.53999C4.89001 6.72999 4.35001 8.05999 4.09001 9.49999C4.07001 9.60999 4.07001 9.71999 4.05001 9.84999V9.85999Z" fill="#A18A46"/>
</g>
<defs>
<clipPath id="clip0_2361_150">
<rect width="25.97" height="19.78" fill="white"/>
</clipPath>
</defs>
</svg>
