<svg width="156" height="181" viewBox="0 0 156 181" fill="none" xmlns="http://www.w3.org/2000/svg">
<path d="M95.91 163.11H135.31C145.88 163.11 154.44 154.06 154.44 142.9V21.21C154.44 10.05 145.87 1 135.31 1H20.13C9.57 1 1 10.05 1 21.21V142.89C1 154.05 9.57 163.1 20.13 163.1H64.34L74.62 177.72C76.19 179.95 79.35 179.95 80.92 177.72L91.2 163.1H95.91V163.11Z" fill="#FCEDE4" stroke="#D95F28" stroke-width="2" stroke-linejoin="round"/>
<path opacity="0.2" d="M112.42 72.64H43.0299C36.0435 72.64 30.3799 78.3036 30.3799 85.29C30.3799 92.2764 36.0435 97.94 43.0299 97.94H112.42C119.406 97.94 125.07 92.2764 125.07 85.29C125.07 78.3036 119.406 72.64 112.42 72.64Z" fill="#D95F28"/>
<path opacity="0.2" d="M112.42 126.99H43.0299C36.0435 126.99 30.3799 132.654 30.3799 139.64C30.3799 146.626 36.0435 152.29 43.0299 152.29H112.42C119.406 152.29 125.07 146.626 125.07 139.64C125.07 132.654 119.406 126.99 112.42 126.99Z" fill="#D95F28"/>
<path d="M125.08 11.88H30.78C23.0314 11.88 16.75 18.1614 16.75 25.91C16.75 33.6586 23.0314 39.94 30.78 39.94H125.08C132.829 39.94 139.11 33.6586 139.11 25.91C139.11 18.1614 132.829 11.88 125.08 11.88Z" fill="#D95F28"/>
<path d="M33.3401 27.45C32.6101 27.66 31.8801 27.86 31.1201 28.07V32.37C31.1201 33.53 30.9101 34.11 30.2301 34.45C29.5701 34.82 28.6301 34.89 27.2801 34.87C27.2001 34.27 26.9101 33.33 26.6101 32.69C27.3601 32.73 28.1501 32.73 28.4001 32.73C28.6701 32.73 28.7701 32.63 28.7701 32.36V28.68L26.5501 29.28L26.0901 27.04C26.8401 26.89 27.7901 26.67 28.7701 26.44V22.27H26.3401V20.15H28.7701V16.91H31.1201V20.15H33.0301V22.27H31.1201V25.86C31.7801 25.69 32.4301 25.51 33.0701 25.34L33.3401 27.44V27.45ZM43.2701 18.48V34.18H40.8601V32.71H36.2101V34.33H33.9201V18.48H43.2701ZM40.8601 30.56V20.67H36.2101V30.56H40.8601Z" fill="white"/>
<path d="M50.4901 29.38C50.1801 31.02 49.5801 32.62 48.8501 33.68C48.4601 33.41 47.6201 33.01 47.1301 32.81C47.8601 31.88 48.3401 30.44 48.6001 29.05L50.4901 29.38ZM53.3001 28.69V32.78C53.3001 33.73 53.1701 34.27 52.5301 34.57C51.9101 34.9 51.1401 34.94 50.0801 34.94C50.0001 34.32 49.7301 33.51 49.4801 32.95C50.0601 32.97 50.7001 32.97 50.9101 32.97C51.1001 32.97 51.1601 32.91 51.1601 32.72V28.69H47.4401V26.8H56.9101V28.69H53.3001ZM51.1401 20.31H47.6901V18.44H51.1401V17.01H53.2801V18.44H56.6701V20.31H53.2801V21.29H56.2501V23.14H48.1501V21.29H51.1401V20.31ZM61.8101 24.48C61.8101 26.37 62.5401 30.59 65.6501 32.91C65.2401 33.41 64.6101 34.34 64.2601 34.92C62.0201 33.3 60.9601 30.02 60.7101 28.36C60.4601 30.06 59.2401 33.2 56.6801 34.92C56.4501 34.42 55.7901 33.45 55.4301 33.01C58.9001 30.66 59.6001 26.43 59.6001 24.48V22.46H59.2301C58.8101 23.93 58.2701 25.22 57.6101 26.24C57.3201 25.93 56.6601 25.43 56.1401 25.08V25.91H48.2701V24.06H56.1401C57.1201 22.21 57.6801 19.57 57.9901 16.89L60.2801 17.2C60.1501 18.28 59.9701 19.36 59.7401 20.38H63.5001L63.8501 20.3L65.3701 20.71C65.1401 22.56 64.7701 24.7 64.4101 26.11L62.6201 25.57C62.7701 24.76 62.9301 23.6 63.0401 22.47H61.8101V24.49V24.48ZM55.5201 29.01C56.0001 29.86 56.5201 31 56.7001 31.73L54.9101 32.48C54.7401 31.77 54.2701 30.55 53.8301 29.68L55.5301 29.01H55.5201Z" fill="white"/>
<path d="M86.5601 24.48V26.97H68.8201V24.48H86.5601Z" fill="white"/>
<path d="M95.55 17.6C95.13 18.81 94.62 20.05 94.05 21.26V34.93H91.87V25.05C91.45 25.65 91.02 26.21 90.58 26.71C90.41 26.15 89.85 24.8 89.5 24.22C91.1 22.46 92.57 19.71 93.43 16.93L95.55 17.59V17.6ZM107.33 17.88V34.72H105.15V33.77H97.9V34.89H95.82V17.88H107.33ZM105.16 31.79V19.87H97.91V31.79H105.16ZM102.38 23.9V25.56H104.23V30.73H98.89V25.56H100.61V23.9H98.39V22.24H100.61V20.27H102.38V22.24H104.71V23.9H102.38ZM102.51 27.14H100.54V29.17H102.51V27.14Z" fill="white"/>
<path d="M126.64 31.98C126.64 33.37 126.31 34.02 125.43 34.41C124.5 34.81 123.15 34.85 121.17 34.85C121.04 34.18 120.57 33.08 120.21 32.44C121.56 32.52 123.18 32.5 123.6 32.5C124.06 32.5 124.22 32.35 124.22 31.94V29.14H115.97C115.47 31.3 114.5 33.4 112.71 34.91C112.36 34.43 111.44 33.58 110.94 33.25C113.85 30.76 114.12 27.08 114.12 24.15V17.8H126.66V31.98H126.64ZM124.21 26.93V24.58H116.48C116.46 25.31 116.42 26.12 116.35 26.93H124.22H124.21ZM116.48 20.04V22.39H124.21V20.04H116.48Z" fill="white"/>
<path d="M43.7299 58.81L41.7099 59.39V63.73C41.7099 64.5 41.5499 64.91 41.0799 65.13C40.5999 65.36 39.8999 65.4 38.8199 65.39C38.7699 65.02 38.5599 64.41 38.3799 64.02C39.0599 64.05 39.7199 64.05 39.9099 64.04C40.1399 64.04 40.2199 63.98 40.2199 63.73V59.82C39.5299 60.03 38.8599 60.21 38.2699 60.37L37.8799 58.92C38.5299 58.76 39.3299 58.58 40.2199 58.34V55.13H38.1099V53.74H40.2199V50.61H41.7099V53.74H43.4699V55.13H41.7099V57.92C42.3099 57.76 42.9199 57.6 43.5299 57.42L43.7199 58.81H43.7299ZM44.4099 58.28H52.0599V65.32H50.5699V64.67H45.8199V65.4H44.3999V58.28H44.4099ZM50.3499 55.76C51.1899 55.76 51.3199 55.47 51.4299 53.82C51.7699 54.06 52.3999 54.27 52.7899 54.37C52.5999 56.55 52.1399 57.11 50.4499 57.11H46.9799C44.9599 57.11 44.4299 56.67 44.4299 55.09V50.63H45.9199V52.91C47.6999 52.52 49.5699 51.97 50.7099 51.44L51.8199 52.54C50.2099 53.2 47.9299 53.75 45.9099 54.12V55.09C45.9099 55.65 46.0999 55.75 47.0899 55.75H50.3499V55.76ZM45.8299 59.52V60.88H50.5799V59.52H45.8299ZM50.5799 63.46V62.06H45.8299V63.46H50.5799Z" fill="#494949"/>
<path d="M68.0999 54.92C67.7799 57.42 67.2599 59.54 66.3999 61.28C67.0799 62.56 67.9499 63.59 69.0799 64.25C68.7399 64.51 68.2899 65.06 68.0599 65.43C67.0399 64.75 66.2199 63.83 65.5599 62.72C64.7999 63.8 63.8599 64.71 62.6699 65.46C62.5399 65.17 62.1399 64.57 61.8599 64.28L60.9599 65.18C60.4899 64.84 59.8799 64.49 59.1999 64.13C58.1799 64.76 56.8399 65.16 55.1199 65.45C55.0399 65.08 54.8099 64.58 54.5699 64.29C55.9299 64.14 57.0199 63.9 57.8799 63.5C57.4599 63.32 57.0199 63.13 56.5899 62.97L56.3799 63.31L55.1499 62.99C55.4399 62.55 55.7799 62.01 56.0999 61.41L54.2299 61.44L54.1799 60.29C54.9199 60.29 55.7899 60.29 56.7299 60.27C56.8899 59.98 57.0399 59.71 57.1699 59.43H54.8599V56.62H57.7999V55.99H55.2299V54.28H54.1599V53.18H55.2299V51.48H57.7999V50.58H59.0899V51.48H61.8199V53.18H62.9199V54.28H61.8199V55.99H59.0899V56.62H62.1699V57.28C63.1199 55.55 63.6899 53.08 64.0299 50.56L65.4699 50.79C65.3399 51.73 65.1799 52.63 64.9699 53.52H68.9899V54.91H68.0999V54.92ZM56.1199 58.48H57.7999V57.61H56.1199V58.48ZM56.4699 52.49V53.26H57.7899V52.49H56.4699ZM57.7999 55V54.21H56.4799V55H57.7999ZM57.1499 62.03C57.7799 62.26 58.4099 62.51 59.0199 62.77C59.4199 62.38 59.7499 61.91 59.9699 61.35L57.5199 61.4L57.1499 62.03ZM61.3199 61.32C61.0899 62.13 60.7199 62.79 60.2199 63.32C60.8499 63.63 61.4099 63.93 61.8499 64.22C63.1599 63.48 64.1299 62.49 64.8399 61.27C64.3699 60.16 63.9999 58.88 63.7099 57.51C63.4699 58.03 63.2099 58.51 62.9399 58.93C62.7899 58.75 62.4699 58.41 62.1799 58.16V59.45H58.5999C58.4699 59.71 58.3299 60 58.1599 60.27C59.6899 60.25 61.3599 60.24 62.9899 60.21L62.9399 61.29L61.3299 61.32H61.3199ZM59.0899 52.49V53.26H60.4899V52.49H59.0899ZM60.4899 55V54.21H59.0899V55H60.4899ZM59.0899 57.6V58.47H60.8699V57.6H59.0899ZM64.6299 54.92L64.5799 55.08C64.8199 56.69 65.1599 58.21 65.6499 59.55C66.1499 58.21 66.4699 56.68 66.6799 54.92H64.6299Z" fill="#494949"/>
<path d="M74.6898 54.81H77.5098V56.09H76.0098L76.6998 56.27C76.4298 56.95 76.1398 57.66 75.8798 58.17H77.3198V59.46H74.6898V60.98H77.1098V62.26H74.6898V65.38H73.2898V62.26H70.7598V60.98H73.2898V59.46H70.6098V58.17H72.0098C71.9298 57.62 71.6898 56.86 71.3998 56.27L72.0598 56.09H70.3298V54.81H73.2798V53.41H70.9098V52.15H73.2798V50.63H74.6798V52.15H76.9098V53.41H74.6798V54.81H74.6898ZM74.7198 58.02C74.9498 57.47 75.2398 56.66 75.3998 56.08H72.6098C72.8998 56.71 73.1798 57.5 73.2398 58.02L72.7098 58.17H75.2798L74.7298 58.02H74.7198ZM84.7398 57.04C84.4198 58.96 83.7998 60.77 82.9198 62.3C83.6098 63.11 84.4198 63.77 85.3298 64.22C85.0098 64.49 84.5598 65.04 84.3298 65.41C83.5098 64.93 82.7598 64.28 82.0998 63.51C81.5398 64.25 80.8698 64.9 80.1298 65.43C79.9398 65.16 79.6098 64.8 79.3098 64.56V65.42H77.9498V51.31H84.3798V54.36C84.3798 55.05 84.2298 55.44 83.6698 55.65C83.1398 55.86 82.3098 55.86 81.0998 55.86C81.0398 55.47 80.8398 54.92 80.6498 54.57C81.5698 54.6 82.4298 54.6 82.6698 54.59C82.9098 54.58 82.9798 54.53 82.9798 54.35V52.64H79.3098V56.77H83.5898L83.8298 56.71L84.7498 57.05L84.7398 57.04ZM79.2998 64.29C80.0398 63.77 80.6698 63.11 81.2198 62.35C80.3998 61.07 79.7698 59.59 79.2998 57.99V64.29ZM80.5598 57.99C80.9198 59.09 81.3998 60.14 81.9998 61.09C82.5198 60.12 82.8898 59.07 83.1498 57.99H80.5698H80.5598Z" fill="#494949"/>
<path d="M90.8498 54.33H92.4198V65.1H91.3098V64.28H87.8598V65.33H86.7898V54.34H88.2898V52.5H86.5298V51.31H92.6298V52.5H90.8498V54.34V54.33ZM90.7198 59.01C90.0598 59.01 89.8598 58.83 89.8598 57.99V55.55H89.2298V56.89C89.2298 57.81 89.0698 59.04 88.2598 59.88C88.1598 59.78 87.9998 59.61 87.8398 59.49V60.59H91.2898V59.01H90.7098H90.7198ZM87.8498 55.55V59.2C88.4098 58.49 88.5098 57.62 88.5098 56.88V55.56H87.8498V55.55ZM91.2998 63.09V61.69H87.8498V63.09H91.2998ZM89.2398 54.33H89.8698V52.49H89.2398V54.33ZM91.2998 55.55H90.6198V57.97C90.6198 58.18 90.6498 58.2 90.7998 58.2H91.2998V55.55ZM94.1798 55.46C94.0698 56.88 93.8598 58.64 93.2798 59.74L92.4698 59.06C92.9698 58.17 93.1998 56.59 93.2898 55.23L94.1798 55.46ZM100.71 50.94V65.42H99.4498V58.95L98.8498 59.27C98.7198 58.53 98.3798 57.48 98.0298 56.53V65.04H96.7998V59L96.1098 59.34C96.0498 58.52 95.7698 57.35 95.4498 56.34V57.36C95.4498 60.36 95.2598 63.25 93.7398 65.5C93.4998 65.24 92.9798 64.89 92.6398 64.71C94.0598 62.69 94.2398 60.11 94.2398 57.36V50.98H95.4498V55.73L96.1298 55.41C96.3898 56.07 96.6298 56.86 96.8098 57.57V51.24H98.0398V55.52L98.5698 55.26C98.9098 55.95 99.2198 56.74 99.4598 57.5V50.95H100.72L100.71 50.94Z" fill="#494949"/>
<path d="M106.5 58.73C105.45 59.23 104.37 59.73 103.48 60.13L102.75 58.9C103.77 58.56 105.3 57.95 106.79 57.33L107.06 58.46L106.79 58.59L107.81 58.54C108.16 58.2 108.55 57.81 108.94 57.41C108.31 56.86 107.41 56.2 106.66 55.71L107.39 54.87C107.54 54.95 107.66 55.03 107.83 55.13C108.17 54.66 108.52 54.11 108.8 53.64H103.38V52.27H109.21V50.58H110.76V52.27H116.75V53.64H109.95L110.29 53.77C109.79 54.43 109.21 55.14 108.72 55.71C109.09 55.97 109.46 56.24 109.77 56.48C110.37 55.79 110.93 55.09 111.35 54.48L112.54 55.03C111.59 56.14 110.43 57.42 109.33 58.47L111.61 58.36C111.37 57.99 111.09 57.62 110.84 57.29L111.92 56.82C112.19 57.16 112.5 57.53 112.78 57.92L113.7 57.18C114.89 57.76 116.44 58.67 117.25 59.31L116.14 60.25C115.46 59.64 114.07 58.75 112.91 58.14C113.31 58.7 113.65 59.29 113.83 59.74L112.68 60.3C112.58 60.04 112.44 59.75 112.26 59.43C110.26 59.59 108.27 59.74 106.72 59.85L106.51 58.72L106.5 58.73ZM110.74 60.96H117.2V62.35H110.74V65.43H109.19V62.35H102.86V60.96H109.19V59.8H110.74V60.96ZM104.27 54.2C105.14 54.65 106.26 55.38 106.8 55.89L105.75 56.79C105.23 56.27 104.14 55.51 103.28 55L104.26 54.19L104.27 54.2ZM112.97 56.04C113.73 55.51 114.75 54.64 115.31 54.01L116.65 54.67C115.84 55.41 114.84 56.16 114.07 56.64L112.97 56.04Z" fill="#494949"/>
<path d="M30.04 118.04C30.75 118.14 31.51 118.19 32.32 118.19C33.01 118.19 35.73 118.19 36.65 118.16C36.41 118.52 36.15 119.24 36.09 119.68H32.25C29.09 119.68 26.76 119.15 25.29 116.61C24.76 117.98 24.01 119.11 23.01 119.97C22.77 119.7 22.14 119.18 21.77 118.94C23.55 117.62 24.37 115.36 24.71 112.53L26.26 112.68C26.16 113.42 26.03 114.13 25.87 114.79C26.43 116.29 27.34 117.15 28.5 117.63V111.37H24.77V109.93H33.86V111.37H30.05V113.74H34.67V115.14H30.05V118.05L30.04 118.04ZM24.02 110.52H22.55V106.81H28.46V105.08H30.06V106.81H36.03V110.52H34.5V108.23H24.02V110.52Z" fill="#494949"/>
<path d="M41.55 116.65C40.97 117.86 40.03 119.1 39.16 119.9C38.9 119.64 38.32 119.22 37.97 119.01C38.84 118.32 39.67 117.28 40.13 116.27L41.55 116.66V116.65ZM45.88 116.01H38.02V114.7H39.52V108.4H38.21V107.09H39.52V105.23H40.88V107.09H43.4V105.23H44.79V107.09H45.95V108.4H44.79V114.7H45.89V116.01H45.88ZM40.87 108.4V109.61H43.39V108.4H40.87ZM40.87 112.13H43.39V110.79H40.87V112.13ZM40.87 114.7H43.39V113.31H40.87V114.7ZM43.6 116.22C44.23 116.95 45 117.93 45.34 118.58L44.13 119.31C43.81 118.66 43.06 117.61 42.45 116.86L43.6 116.23V116.22ZM52.32 118.1C52.32 118.89 52.14 119.33 51.64 119.55C51.16 119.81 50.38 119.84 49.19 119.82C49.14 119.43 48.95 118.77 48.75 118.4C49.51 118.43 50.32 118.42 50.53 118.42C50.77 118.4 50.87 118.34 50.87 118.08V114.5H47.9C47.72 116.42 47.34 118.47 46.41 119.94C46.17 119.67 45.54 119.23 45.22 119.08C46.5 116.97 46.61 113.95 46.61 111.64V105.83H52.32V118.1ZM50.87 113.15V110.79H48.03V111.65C48.03 112.12 48.03 112.63 48 113.15H50.87ZM48.03 107.19V109.47H50.87V107.19H48.03Z" fill="#494949"/>
<path d="M62.3301 118.04C63.0401 118.14 63.8001 118.19 64.6101 118.19C65.3001 118.19 68.0201 118.19 68.9401 118.16C68.7001 118.52 68.4401 119.24 68.3801 119.68H64.5401C61.3801 119.68 59.0501 119.15 57.5801 116.61C57.0501 117.98 56.3001 119.11 55.3001 119.97C55.0601 119.7 54.4301 119.18 54.0601 118.94C55.8401 117.62 56.6601 115.36 57.0001 112.53L58.5501 112.68C58.4501 113.42 58.3201 114.13 58.1601 114.79C58.7201 116.29 59.6301 117.15 60.7901 117.63V111.37H57.0601V109.93H66.1501V111.37H62.3401V113.74H66.9601V115.14H62.3401V118.05L62.3301 118.04ZM56.3101 110.52H54.8401V106.81H60.7501V105.08H62.3501V106.81H68.3201V110.52H66.7901V108.23H56.3101V110.52Z" fill="#494949"/>
<path d="M76.3801 118.8C77.4901 118.38 78.7201 117.62 79.3201 116.98L80.5601 117.74C79.7201 118.56 78.3601 119.4 77.2001 119.85C76.9601 119.58 76.5201 119.14 76.2201 118.87H72.7201V119.6H71.4401V115.29C71.2501 115.37 71.0501 115.47 70.8601 115.55C70.7001 115.23 70.3401 114.74 70.0901 114.47C71.2401 114.05 72.3701 113.37 73.3001 112.52C72.8501 112.18 72.4001 111.86 71.9801 111.57C71.6901 111.84 71.4001 112.1 71.0901 112.33C70.9001 112.09 70.4001 111.65 70.1201 111.44C71.3601 110.63 72.4601 109.36 73.0601 107.95L74.3001 108.27C74.1701 108.56 74.0301 108.85 73.8601 109.13H75.6801L75.9101 109.07L76.7701 109.46C76.4001 110.54 75.8501 111.51 75.1901 112.33C76.0901 112.99 76.9301 113.64 77.4801 114.14L76.6101 115.17L76.3801 114.96V118.82V118.8ZM71.7801 108.89H70.5501V106.45H73.2101V105.09H74.6101V106.45H77.2901V108.89H76.0101V107.66H71.7601V108.89H71.7801ZM75.9801 114.59C75.5101 114.19 74.9301 113.73 74.3201 113.27C73.8201 113.77 73.2501 114.21 72.6601 114.59H75.9901H75.9801ZM75.0801 115.75H72.7201V117.7H75.0801V115.75ZM73.1901 110.16C73.0601 110.34 72.9301 110.5 72.8001 110.66C73.2401 110.95 73.7001 111.26 74.1701 111.58C74.5201 111.14 74.8501 110.66 75.0901 110.16H73.1901ZM80.0601 108.39C80.1601 107.97 80.2501 107.49 80.3301 107.05H77.4201V105.76H84.8801V107.05H81.9301C81.7801 107.5 81.6201 107.97 81.4801 108.39H84.5001V116.77H77.9801V108.39H80.0601ZM83.0801 109.53H79.3301V110.84H83.0801V109.53ZM83.0801 111.91H79.3301V113.23H83.0801V111.91ZM83.0801 114.29H79.3301V115.63H83.0801V114.29ZM82.7101 117.06C83.6101 117.64 84.7901 118.51 85.3901 119.11L84.2301 119.9C83.6701 119.32 82.5201 118.38 81.6101 117.75L82.7101 117.06Z" fill="#494949"/>
<path d="M90.84 109.27H93.67V110.55H92.17L92.86 110.73C92.59 111.41 92.3 112.12 92.04 112.63H93.48V113.92H90.85V115.44H93.27V116.72H90.85V119.84H89.45V116.72H86.92V115.44H89.45V113.92H86.77V112.63H88.17C88.09 112.08 87.85 111.32 87.56 110.73L88.22 110.55H86.49V109.27H89.44V107.87H87.07V106.61H89.44V105.09H90.84V106.61H93.07V107.87H90.84V109.27ZM90.87 112.49C91.1 111.94 91.39 111.13 91.55 110.55H88.76C89.05 111.18 89.33 111.97 89.39 112.49L88.86 112.64H91.43L90.88 112.49H90.87ZM100.89 111.5C100.57 113.42 99.95 115.23 99.07 116.76C99.76 117.57 100.57 118.23 101.48 118.68C101.16 118.95 100.71 119.5 100.48 119.87C99.66 119.39 98.91 118.74 98.25 117.97C97.69 118.71 97.02 119.36 96.28 119.89C96.09 119.62 95.76 119.26 95.46 119.02V119.88H94.1V105.77H100.53V108.82C100.53 109.51 100.38 109.9 99.82 110.11C99.29 110.32 98.46 110.32 97.25 110.32C97.19 109.93 96.99 109.38 96.8 109.03C97.72 109.06 98.58 109.06 98.82 109.05C99.06 109.04 99.13 108.99 99.13 108.81V107.1H95.46V111.23H99.74L99.98 111.17L100.9 111.51L100.89 111.5ZM95.45 118.75C96.19 118.23 96.82 117.57 97.37 116.81C96.55 115.53 95.92 114.05 95.45 112.45V118.75ZM96.71 112.45C97.07 113.55 97.55 114.6 98.15 115.55C98.67 114.58 99.04 113.53 99.3 112.45H96.72H96.71Z" fill="#494949"/>
<path d="M107 108.79H108.57V119.56H107.46V118.74H104.01V119.79H102.94V108.8H104.44V106.96H102.68V105.77H108.78V106.96H107V108.8V108.79ZM106.87 113.47C106.21 113.47 106.01 113.29 106.01 112.45V110.01H105.38V111.35C105.38 112.27 105.22 113.5 104.41 114.34C104.31 114.24 104.15 114.07 103.99 113.95V115.05H107.44V113.47H106.86H106.87ZM104 110.02V113.67C104.56 112.96 104.66 112.09 104.66 111.35V110.03H104V110.02ZM107.45 117.56V116.16H104V117.56H107.45ZM105.39 108.79H106.02V106.95H105.39V108.79ZM107.45 110.02H106.77V112.44C106.77 112.65 106.8 112.67 106.95 112.67H107.45V110.02ZM110.33 109.92C110.22 111.34 110.01 113.1 109.43 114.2L108.62 113.52C109.12 112.63 109.35 111.05 109.44 109.69L110.33 109.92ZM116.86 105.4V119.88H115.6V113.41L115 113.73C114.87 112.99 114.53 111.94 114.18 110.99V119.5H112.95V113.46L112.26 113.8C112.2 112.98 111.92 111.81 111.6 110.8V111.82C111.6 114.82 111.41 117.71 109.89 119.96C109.65 119.7 109.13 119.35 108.79 119.17C110.21 117.15 110.39 114.57 110.39 111.82V105.44H111.6V110.19L112.28 109.87C112.54 110.53 112.78 111.32 112.96 112.03V105.7H114.19V109.98L114.72 109.72C115.06 110.41 115.37 111.2 115.61 111.96V105.41H116.87L116.86 105.4Z" fill="#494949"/>
<path d="M122.65 113.2C121.6 113.7 120.52 114.2 119.63 114.6L118.9 113.37C119.92 113.03 121.45 112.42 122.94 111.8L123.21 112.93L122.94 113.06L123.96 113.01C124.31 112.67 124.7 112.28 125.09 111.88C124.46 111.33 123.56 110.67 122.81 110.18L123.54 109.34C123.69 109.42 123.81 109.5 123.98 109.6C124.32 109.13 124.67 108.58 124.95 108.11H119.53V106.74H125.36V105.05H126.91V106.74H132.9V108.11H126.1L126.44 108.24C125.94 108.9 125.36 109.61 124.87 110.18C125.24 110.44 125.61 110.71 125.92 110.95C126.52 110.26 127.08 109.56 127.5 108.95L128.69 109.5C127.74 110.61 126.58 111.89 125.48 112.94L127.76 112.83C127.52 112.46 127.24 112.09 126.99 111.76L128.07 111.29C128.34 111.63 128.65 112 128.93 112.39L129.85 111.65C131.04 112.23 132.59 113.14 133.4 113.78L132.29 114.72C131.61 114.11 130.22 113.22 129.06 112.61C129.46 113.17 129.8 113.76 129.98 114.21L128.83 114.77C128.73 114.51 128.59 114.22 128.41 113.9C126.41 114.06 124.42 114.21 122.87 114.32L122.66 113.19L122.65 113.2ZM126.89 115.43H133.35V116.82H126.89V119.9H125.34V116.82H119.01V115.43H125.34V114.27H126.89V115.43ZM120.42 108.66C121.29 109.11 122.41 109.84 122.95 110.35L121.9 111.25C121.38 110.73 120.29 109.97 119.43 109.46L120.41 108.65L120.42 108.66ZM129.12 110.5C129.88 109.97 130.9 109.1 131.46 108.47L132.8 109.13C131.99 109.87 130.99 110.62 130.22 111.1L129.12 110.5Z" fill="#494949"/>
<path d="M47.0801 86.22H52.7401V88.4H47.0801V86.22Z" fill="#D95F28"/>
<path d="M65.3702 89.26H63.5502V93.24H60.7102V89.26H54.1802V87.19L59.9002 77.9H63.5502V86.94H65.3702V89.26ZM60.7102 86.94V83.81C60.7102 82.92 60.7902 81.53 60.8302 80.64H60.7502C60.3802 81.45 59.9602 82.3 59.5302 83.13L57.1502 86.95H60.7202L60.7102 86.94Z" fill="#D95F28"/>
<path d="M67.4202 91.55C67.4202 90.43 68.2302 89.56 69.3102 89.56C70.3902 89.56 71.2202 90.43 71.2202 91.55C71.2202 92.67 70.4102 93.54 69.3102 93.54C68.2102 93.54 67.4202 92.67 67.4202 91.55Z" fill="#D95F28"/>
<path d="M82.2 81.18C81.66 80.56 80.73 80.06 79.84 80.06C78.08 80.06 76.63 81.39 76.5 85.22C77.33 84.2 78.66 83.58 79.65 83.58C82.22 83.58 84.05 85.11 84.05 88.41C84.05 91.71 81.85 93.53 79.24 93.53C76.32 93.53 73.72 91.19 73.72 85.77C73.72 80.05 76.56 77.6 79.65 77.6C81.52 77.6 82.89 78.39 83.82 79.34L82.2 81.16V81.18ZM81.25 88.41C81.25 86.59 80.4 85.73 79.07 85.73C78.24 85.73 77.33 86.17 76.56 87.35C76.85 90.15 77.89 91.23 79.17 91.23C80.31 91.23 81.24 90.28 81.24 88.41H81.25Z" fill="#D95F28"/>
<path d="M90.27 82.44C90.27 79.37 91.8 77.61 94 77.61C96.2 77.61 97.75 79.37 97.75 82.44C97.75 85.51 96.19 87.33 94 87.33C91.81 87.33 90.27 85.53 90.27 82.44ZM95.59 82.44C95.59 80.18 94.89 79.33 93.99 79.33C93.09 79.33 92.41 80.18 92.41 82.44C92.41 84.7 93.09 85.61 93.99 85.61C94.89 85.61 95.59 84.7 95.59 82.44ZM102.85 77.61H104.65L96.29 93.54H94.51L102.85 77.61ZM101.42 88.64C101.42 85.55 102.98 83.79 105.15 83.79C107.32 83.79 108.9 85.55 108.9 88.64C108.9 91.73 107.32 93.53 105.15 93.53C102.98 93.53 101.42 91.7 101.42 88.64ZM106.75 88.64C106.75 86.38 106.04 85.51 105.15 85.51C104.26 85.51 103.55 86.38 103.55 88.64C103.55 90.9 104.26 91.79 105.15 91.79C106.04 91.79 106.75 90.9 106.75 88.64Z" fill="#D95F28"/>
<path d="M46.9199 140.57H52.5799V142.75H46.9199V140.57Z" fill="#D95F28"/>
<path d="M65.21 143.62H63.39V147.6H60.55V143.62H54.02V141.55L59.74 132.26H63.39V141.3H65.21V143.62ZM60.54 141.3V138.17C60.54 137.28 60.62 135.89 60.66 135H60.58C60.21 135.81 59.79 136.66 59.36 137.49L56.98 141.31H60.55L60.54 141.3Z" fill="#D95F28"/>
<path d="M67.26 145.9C67.26 144.78 68.07 143.91 69.15 143.91C70.23 143.91 71.06 144.78 71.06 145.9C71.06 147.02 70.25 147.89 69.15 147.89C68.05 147.89 67.26 147.02 67.26 145.9Z" fill="#D95F28"/>
<path d="M82.0398 135.53C81.4998 134.91 80.5698 134.41 79.6798 134.41C77.9198 134.41 76.4698 135.74 76.3398 139.57C77.1698 138.55 78.4998 137.93 79.4898 137.93C82.0598 137.93 83.8898 139.46 83.8898 142.76C83.8898 146.06 81.6898 147.88 79.0798 147.88C76.1598 147.88 73.5598 145.54 73.5598 140.13C73.5598 134.41 76.3998 131.96 79.4898 131.96C81.3598 131.96 82.7298 132.75 83.6598 133.7L82.0398 135.53ZM81.0898 142.77C81.0898 140.95 80.2398 140.1 78.9098 140.1C78.0798 140.1 77.1698 140.54 76.3998 141.72C76.6898 144.52 77.7298 145.6 79.0098 145.6C80.1498 145.6 81.0798 144.65 81.0798 142.78L81.0898 142.77Z" fill="#D95F28"/>
<path d="M90.0999 136.8C90.0999 133.73 91.6299 131.97 93.8299 131.97C96.0299 131.97 97.5799 133.73 97.5799 136.8C97.5799 139.87 96.0199 141.69 93.8299 141.69C91.6399 141.69 90.0999 139.89 90.0999 136.8ZM95.4299 136.8C95.4299 134.54 94.7299 133.69 93.8299 133.69C92.9299 133.69 92.2499 134.54 92.2499 136.8C92.2499 139.06 92.9299 139.97 93.8299 139.97C94.7299 139.97 95.4299 139.06 95.4299 136.8ZM102.69 131.96H104.49L96.1299 147.89H94.3499L102.69 131.96ZM101.26 143C101.26 139.91 102.82 138.15 104.99 138.15C107.16 138.15 108.74 139.91 108.74 143C108.74 146.09 107.16 147.89 104.99 147.89C102.82 147.89 101.26 146.07 101.26 143ZM106.59 143C106.59 140.74 105.88 139.87 104.99 139.87C104.1 139.87 103.39 140.74 103.39 143C103.39 145.26 104.1 146.15 104.99 146.15C105.88 146.15 106.59 145.26 106.59 143Z" fill="#D95F28"/>
</svg>
