<svg width="156" height="181" viewBox="0 0 156 181" fill="none" xmlns="http://www.w3.org/2000/svg">
<path d="M135.31 163.1H95.91H27.9841L17.7041 177.72C16.1341 179.95 12.9741 179.95 11.4041 177.72L3.77869 167.005C1.97124 164.465 1 161.425 1 158.308V21.21C1 10.05 9.55999 1 20.13 1H135.31C145.87 1 154.44 10.05 154.44 21.21V142.89C154.44 154.05 145.88 163.1 135.31 163.1Z" fill="#FCEDE4" stroke="#D95F28" stroke-width="2" stroke-linejoin="round"/>
<path d="M128.89 11.86H29.1599C21.4113 11.86 15.1299 18.1414 15.1299 25.89C15.1299 33.6386 21.4113 39.92 29.1599 39.92H128.89C136.638 39.92 142.92 33.6386 142.92 25.89C142.92 18.1414 136.638 11.86 128.89 11.86Z" fill="#D95F28"/>
<path d="M34.6899 27.44C33.9599 27.65 33.2299 27.85 32.4699 28.06V32.36C32.4699 33.52 32.2599 34.1 31.5799 34.44C30.9199 34.81 29.9799 34.88 28.6299 34.86C28.5499 34.26 28.2599 33.32 27.9599 32.68C28.7099 32.72 29.4999 32.72 29.7499 32.72C30.0199 32.72 30.1199 32.62 30.1199 32.35V28.67L27.8999 29.27L27.4399 27.03C28.1899 26.88 29.1399 26.66 30.1199 26.43V22.26H27.6899V20.14H30.1199V16.9H32.4699V20.14H34.3799V22.26H32.4699V25.85C33.1299 25.68 33.7799 25.5 34.4199 25.33L34.6899 27.43V27.44ZM44.6299 18.47V34.17H42.2199V32.7H37.5699V34.32H35.2799V18.47H44.6299ZM42.2099 30.54V20.65H37.5599V30.54H42.2099Z" fill="white"/>
<path d="M51.84 29.37C51.53 31.01 50.93 32.61 50.2 33.67C49.81 33.4 48.97 33 48.48 32.8C49.21 31.87 49.69 30.43 49.95 29.04L51.84 29.37ZM54.66 28.67V32.76C54.66 33.71 54.53 34.25 53.89 34.55C53.27 34.88 52.5 34.92 51.44 34.92C51.36 34.3 51.09 33.49 50.84 32.93C51.42 32.95 52.06 32.95 52.27 32.95C52.46 32.95 52.52 32.89 52.52 32.7V28.67H48.8V26.78H58.27V28.67H54.66ZM52.5 20.3H49.05V18.43H52.5V17H54.64V18.43H58.03V20.3H54.64V21.28H57.61V23.13H49.51V21.28H52.5V20.3ZM63.16 24.47C63.16 26.36 63.89 30.58 67 32.9C66.59 33.4 65.96 34.33 65.61 34.91C63.37 33.29 62.31 30.01 62.06 28.35C61.81 30.05 60.59 33.19 58.03 34.91C57.8 34.41 57.14 33.44 56.78 33C60.25 30.65 60.95 26.42 60.95 24.47V22.45H60.58C60.16 23.92 59.62 25.21 58.96 26.23C58.67 25.92 58.01 25.42 57.49 25.07V25.9H49.62V24.05H57.49C58.47 22.2 59.03 19.56 59.34 16.88L61.63 17.19C61.5 18.27 61.32 19.35 61.09 20.37H64.85L65.2 20.29L66.72 20.7C66.49 22.55 66.12 24.69 65.76 26.1L63.97 25.56C64.12 24.75 64.28 23.59 64.39 22.46H63.16V24.48V24.47ZM56.88 29C57.36 29.85 57.88 30.99 58.06 31.72L56.27 32.47C56.1 31.76 55.63 30.54 55.19 29.67L56.89 29H56.88Z" fill="white"/>
<path d="M77.1899 26.22C76.0299 29.42 74.1199 32.64 72.2699 34.63C71.7499 34.15 70.5699 33.36 69.9399 32.97C71.8499 31.25 73.5499 28.38 74.5099 25.53L77.1899 26.22ZM87.5699 23.47H70.4799V21.08H77.7099V16.93H80.2199V21.08H87.5699V23.47ZM83.1699 25.51C84.8899 27.94 86.9099 31.22 87.7399 33.44L85.1599 34.58C84.4299 32.42 82.5399 29.01 80.8399 26.44L83.1699 25.51Z" fill="white"/>
<path d="M96.8998 17.58C96.4798 18.79 95.9698 20.03 95.3998 21.24V34.91H93.2198V25.03C92.7998 25.63 92.3698 26.19 91.9298 26.69C91.7598 26.13 91.1999 24.78 90.8499 24.2C92.4499 22.44 93.9198 19.69 94.7798 16.91L96.8998 17.57V17.58ZM108.69 17.87V34.71H106.51V33.76H99.2599V34.88H97.1798V17.87H108.69ZM106.51 31.78V19.86H99.2599V31.78H106.51ZM103.73 23.89V25.55H105.58V30.72H100.24V25.55H101.96V23.89H99.7398V22.23H101.96V20.26H103.73V22.23H106.06V23.89H103.73ZM103.87 27.13H101.9V29.16H103.87V27.13Z" fill="white"/>
<path d="M128 31.97C128 33.36 127.67 34.01 126.79 34.4C125.86 34.8 124.51 34.84 122.53 34.84C122.4 34.17 121.93 33.07 121.57 32.43C122.92 32.51 124.54 32.49 124.96 32.49C125.42 32.49 125.58 32.34 125.58 31.93V29.13H117.33C116.83 31.29 115.86 33.39 114.07 34.9C113.72 34.42 112.8 33.57 112.3 33.24C115.21 30.75 115.48 27.07 115.48 24.14V17.79H128.02V31.97H128ZM125.57 26.92V24.57H117.84C117.82 25.3 117.78 26.11 117.71 26.92H125.58H125.57ZM117.84 20.03V22.38H125.57V20.03H117.84Z" fill="white"/>
<path d="M43.61 57.64L41.59 58.22V62.56C41.59 63.34 41.43 63.74 40.96 63.97C40.48 64.2 39.78 64.24 38.7 64.23C38.65 63.86 38.44 63.25 38.26 62.86C38.94 62.89 39.6 62.89 39.79 62.88C40.02 62.88 40.1 62.81 40.1 62.57V58.66C39.41 58.87 38.74 59.05 38.15 59.21L37.76 57.76C38.41 57.6 39.21 57.42 40.1 57.18V53.97H37.99V52.58H40.1V49.45H41.59V52.58H43.35V53.97H41.59V56.76C42.19 56.6 42.8 56.44 43.41 56.26L43.6 57.65L43.61 57.64ZM44.28 57.11H51.93V64.15H50.44V63.5H45.69V64.23H44.27V57.11H44.28ZM50.23 54.59C51.07 54.59 51.2 54.3 51.31 52.65C51.65 52.89 52.28 53.1 52.67 53.2C52.48 55.38 52.02 55.95 50.33 55.95H46.86C44.84 55.95 44.31 55.51 44.31 53.93V49.47H45.8V51.75C47.58 51.36 49.45 50.81 50.59 50.28L51.7 51.38C50.09 52.04 47.81 52.59 45.79 52.96V53.93C45.79 54.5 45.98 54.59 46.97 54.59H50.23ZM45.71 58.36V59.72H50.46V58.36H45.71ZM50.45 62.29V60.89H45.7V62.29H50.45Z" fill="#494949"/>
<path d="M67.97 53.75C67.65 56.25 67.13 58.37 66.27 60.11C66.95 61.39 67.82 62.42 68.95 63.08C68.61 63.34 68.16 63.89 67.93 64.26C66.91 63.58 66.09 62.66 65.43 61.55C64.67 62.63 63.73 63.54 62.54 64.29C62.41 64 62.01 63.4 61.73 63.11L60.83 64.01C60.36 63.67 59.75 63.32 59.07 62.96C58.05 63.59 56.71 63.99 54.99 64.28C54.91 63.91 54.68 63.41 54.44 63.12C55.8 62.97 56.89 62.73 57.75 62.33C57.33 62.15 56.89 61.96 56.46 61.8L56.25 62.14L55.02 61.82C55.31 61.38 55.65 60.84 55.97 60.24L54.1 60.27L54.05 59.12C54.79 59.12 55.66 59.12 56.6 59.1C56.76 58.81 56.91 58.53 57.04 58.26H54.73V55.45H57.67V54.82H55.1V53.11H54.03V52.01H55.1V50.31H57.67V49.41H58.96V50.31H61.69V52.01H62.79V53.11H61.69V54.82H58.96V55.45H62.04V56.11C62.99 54.38 63.56 51.91 63.9 49.39L65.34 49.62C65.21 50.56 65.05 51.46 64.84 52.35H68.86V53.74H67.97V53.75ZM55.99 57.31H57.67V56.44H55.99V57.31ZM56.35 51.32V52.1H57.67V51.32H56.35ZM57.67 53.84V53.05H56.35V53.84H57.67ZM57.03 60.86C57.66 61.09 58.29 61.34 58.9 61.6C59.3 61.21 59.63 60.74 59.85 60.18L57.4 60.23L57.03 60.86ZM61.19 60.15C60.96 60.96 60.59 61.62 60.09 62.15C60.72 62.46 61.28 62.76 61.72 63.05C63.03 62.31 64 61.32 64.71 60.1C64.24 58.99 63.87 57.71 63.58 56.34C63.34 56.86 63.08 57.34 62.81 57.76C62.66 57.58 62.34 57.24 62.05 56.99V58.28H58.47C58.34 58.54 58.2 58.83 58.03 59.1C59.56 59.08 61.23 59.07 62.86 59.04L62.81 60.12L61.2 60.15H61.19ZM58.96 51.32V52.1H60.36V51.32H58.96ZM60.37 53.84V53.05H58.97V53.84H60.37ZM58.96 56.43V57.3H60.74V56.43H58.96ZM64.5 53.75L64.45 53.91C64.69 55.52 65.03 57.04 65.52 58.38C66.02 57.04 66.34 55.51 66.55 53.75H64.5Z" fill="#494949"/>
<path d="M74.56 53.64H77.38V54.92H75.88L76.57 55.1C76.3 55.78 76.01 56.49 75.75 57H77.19V58.29H74.56V59.81H76.98V61.09H74.56V64.21H73.16V61.09H70.63V59.81H73.16V58.29H70.48V57H71.88C71.8 56.45 71.56 55.69 71.27 55.1L71.93 54.92H70.2V53.64H73.15V52.23H70.78V50.97H73.15V49.45H74.55V50.97H76.78V52.23H74.55V53.64H74.56ZM74.59 56.85C74.82 56.3 75.11 55.49 75.27 54.91H72.48C72.77 55.54 73.05 56.33 73.11 56.85L72.58 57H75.15L74.6 56.85H74.59ZM84.62 55.87C84.3 57.79 83.68 59.6 82.8 61.13C83.49 61.94 84.3 62.6 85.21 63.05C84.89 63.32 84.44 63.87 84.21 64.25C83.39 63.77 82.64 63.12 81.98 62.34C81.42 63.08 80.75 63.73 80.01 64.26C79.82 63.99 79.49 63.63 79.19 63.39V64.25H77.83V50.14H84.26V53.19C84.26 53.88 84.11 54.27 83.55 54.48C83.02 54.69 82.19 54.69 80.98 54.69C80.92 54.3 80.72 53.75 80.53 53.4C81.45 53.43 82.31 53.43 82.55 53.42C82.79 53.4 82.86 53.36 82.86 53.18V51.47H79.19V55.6H83.47L83.71 55.54L84.63 55.88L84.62 55.87ZM79.18 63.12C79.92 62.6 80.55 61.94 81.1 61.18C80.28 59.9 79.65 58.42 79.18 56.82V63.12ZM80.44 56.82C80.8 57.92 81.28 58.97 81.88 59.92C82.4 58.95 82.77 57.9 83.03 56.82H80.45H80.44Z" fill="#494949"/>
<path d="M90.7299 53.16H92.2999V63.93H91.1899V63.11H87.7399V64.16H86.6699V53.17H88.1699V51.33H86.4099V50.14H92.5099V51.33H90.7299V53.17V53.16ZM90.5999 57.84C89.9399 57.84 89.7399 57.66 89.7399 56.82V54.38H89.1099V55.72C89.1099 56.64 88.9499 57.87 88.1399 58.71C88.0399 58.61 87.8799 58.43 87.7199 58.32V59.42H91.1699V57.84H90.5899H90.5999ZM87.7199 54.38V58.03C88.2799 57.32 88.3799 56.45 88.3799 55.71V54.39H87.7199V54.38ZM91.1799 61.92V60.52H87.7299V61.92H91.1799ZM89.1099 53.16H89.7399V51.32H89.1099V53.16ZM91.1799 54.38H90.4999V56.8C90.4999 57.01 90.5299 57.03 90.6799 57.03H91.1799V54.38ZM94.0499 54.29C93.9399 55.71 93.7299 57.47 93.1499 58.57L92.3399 57.89C92.8399 57 93.0699 55.42 93.1599 54.06L94.0499 54.29ZM100.59 49.77V64.25H99.3299V57.78L98.7299 58.1C98.5999 57.36 98.2599 56.31 97.9099 55.36V63.87H96.6799V57.83L95.9899 58.17C95.9299 57.35 95.6499 56.18 95.3299 55.17V56.19C95.3299 59.19 95.1399 62.08 93.6199 64.33C93.3799 64.07 92.8599 63.72 92.5199 63.54C93.9399 61.52 94.1199 58.94 94.1199 56.19V49.81H95.3299V54.56L96.0099 54.24C96.2699 54.9 96.5099 55.69 96.6899 56.4V50.07H97.9199V54.35L98.4499 54.09C98.7899 54.78 99.0999 55.58 99.3399 56.33V49.78H100.6L100.59 49.77Z" fill="#494949"/>
<path d="M106.37 57.56C105.32 58.06 104.24 58.56 103.35 58.96L102.62 57.73C103.64 57.39 105.17 56.78 106.66 56.16L106.93 57.29L106.66 57.42L107.68 57.37C108.03 57.03 108.42 56.64 108.81 56.24C108.18 55.69 107.28 55.03 106.53 54.54L107.26 53.7C107.41 53.78 107.53 53.86 107.7 53.96C108.04 53.49 108.39 52.94 108.67 52.47H103.25V51.1H109.08V49.4H110.63V51.1H116.62V52.47H109.82L110.16 52.6C109.66 53.26 109.08 53.97 108.59 54.54C108.96 54.8 109.33 55.07 109.64 55.31C110.24 54.62 110.8 53.92 111.22 53.31L112.41 53.86C111.46 54.97 110.3 56.25 109.2 57.3L111.48 57.19C111.24 56.82 110.96 56.45 110.71 56.12L111.79 55.65C112.06 55.99 112.37 56.36 112.65 56.75L113.57 56.01C114.76 56.59 116.31 57.5 117.12 58.14L116.01 59.08C115.33 58.47 113.94 57.58 112.78 56.97C113.18 57.53 113.52 58.12 113.7 58.57L112.55 59.14C112.45 58.88 112.31 58.59 112.13 58.27C110.13 58.43 108.14 58.58 106.59 58.69L106.38 57.56H106.37ZM110.62 59.79H117.08V61.18H110.62V64.26H109.07V61.18H102.74V59.79H109.07V58.63H110.62V59.79ZM104.15 53.03C105.02 53.48 106.14 54.21 106.68 54.72L105.63 55.62C105.11 55.1 104.02 54.34 103.16 53.83L104.14 53.02L104.15 53.03ZM112.85 54.87C113.61 54.34 114.63 53.47 115.19 52.84L116.53 53.5C115.72 54.24 114.72 54.99 113.95 55.47L112.85 54.87Z" fill="#494949"/>
<path d="M29.9099 116.87C30.6199 116.97 31.3799 117.02 32.1899 117.02C32.8799 117.02 35.5999 117.02 36.5199 116.99C36.2799 117.35 36.0199 118.07 35.9599 118.51H32.1199C28.9599 118.51 26.6299 117.98 25.1599 115.44C24.6299 116.81 23.8799 117.94 22.8799 118.8C22.6399 118.53 22.0099 118.01 21.6399 117.77C23.4199 116.45 24.2399 114.19 24.5799 111.36L26.1299 111.51C26.0299 112.25 25.8999 112.96 25.7399 113.63C26.2999 115.13 27.2099 115.99 28.3699 116.47V110.21H24.6399V108.77H33.7299V110.21H29.9199V112.58H34.5399V113.99H29.9199V116.9L29.9099 116.87ZM23.8899 109.35H22.4199V105.64H28.3299V103.91H29.9299V105.64H35.8999V109.35H34.3699V107.06H23.8899V109.35Z" fill="#494949"/>
<path d="M41.4299 115.48C40.8499 116.69 39.9099 117.93 39.0399 118.73C38.7799 118.47 38.1999 118.05 37.8499 117.84C38.7199 117.15 39.5499 116.11 40.0099 115.1L41.4299 115.49V115.48ZM45.7499 114.84H37.8899V113.53H39.3899V107.23H38.0799V105.92H39.3899V104.06H40.7499V105.92H43.2699V104.06H44.6599V105.92H45.8199V107.23H44.6599V113.53H45.7599V114.84H45.7499ZM40.7499 107.23V108.44H43.2699V107.23H40.7499ZM40.7499 110.96H43.2699V109.62H40.7499V110.96ZM40.7499 113.53H43.2699V112.14H40.7499V113.53ZM43.4799 115.05C44.1099 115.78 44.8799 116.76 45.2199 117.41L44.0099 118.14C43.6899 117.49 42.9399 116.44 42.3299 115.69L43.4799 115.06V115.05ZM52.1998 116.94C52.1998 117.73 52.0199 118.17 51.5199 118.39C51.0399 118.65 50.2599 118.68 49.0699 118.66C49.0199 118.27 48.8299 117.61 48.6299 117.24C49.3899 117.27 50.1999 117.26 50.4099 117.26C50.6499 117.24 50.7499 117.18 50.7499 116.92V113.34H47.7799C47.5999 115.26 47.2199 117.31 46.2899 118.78C46.0499 118.51 45.4199 118.07 45.0999 117.92C46.3799 115.8 46.4899 112.79 46.4899 110.48V104.67H52.1998V116.94ZM50.7399 111.98V109.62H47.8999V110.48C47.8999 110.95 47.8999 111.46 47.8699 111.98H50.7399ZM47.8999 106.02V108.3H50.7399V106.02H47.8999Z" fill="#494949"/>
<path d="M62.2099 116.87C62.9199 116.97 63.6799 117.02 64.4899 117.02C65.1799 117.02 67.8999 117.02 68.8199 116.99C68.5799 117.35 68.3199 118.07 68.2599 118.51H64.4199C61.2599 118.51 58.9299 117.98 57.4599 115.44C56.9299 116.81 56.1799 117.94 55.1799 118.8C54.9399 118.53 54.3099 118.01 53.9399 117.77C55.7199 116.45 56.5399 114.19 56.8799 111.36L58.4299 111.51C58.3299 112.25 58.1999 112.96 58.0399 113.63C58.5999 115.13 59.5099 115.99 60.6699 116.47V110.21H56.9399V108.77H66.0299V110.21H62.2199V112.58H66.8399V113.99H62.2199V116.9L62.2099 116.87ZM56.1899 109.35H54.7199V105.64H60.6299V103.91H62.2299V105.64H68.1999V109.35H66.6699V107.06H56.1899V109.35Z" fill="#494949"/>
<path d="M76.26 117.63C77.37 117.21 78.6 116.45 79.2 115.81L80.44 116.57C79.6 117.39 78.24 118.23 77.08 118.69C76.84 118.42 76.4 117.98 76.1 117.7H72.6V118.43H71.32V114.12C71.13 114.2 70.93 114.3 70.74 114.38C70.58 114.06 70.22 113.57 69.97 113.3C71.12 112.88 72.25 112.2 73.18 111.35C72.73 111.01 72.28 110.69 71.86 110.4C71.57 110.67 71.28 110.93 70.97 111.16C70.78 110.92 70.28 110.48 70 110.27C71.24 109.46 72.34 108.19 72.94 106.78L74.18 107.1C74.05 107.39 73.91 107.68 73.74 107.96H75.56L75.79 107.9L76.65 108.29C76.28 109.37 75.73 110.34 75.07 111.16C75.97 111.82 76.81 112.47 77.36 112.97L76.49 114L76.26 113.79V117.65V117.63ZM71.66 107.72H70.43V105.28H73.09V103.92H74.49V105.28H77.17V107.72H75.89V106.49H71.64V107.72H71.66ZM75.85 113.42C75.38 113.02 74.8 112.56 74.19 112.1C73.69 112.6 73.12 113.04 72.53 113.42H75.86H75.85ZM74.95 114.58H72.59V116.53H74.95V114.58ZM73.06 108.99C72.93 109.17 72.8 109.33 72.67 109.49C73.11 109.78 73.57 110.09 74.04 110.41C74.39 109.97 74.72 109.49 74.96 108.99H73.06ZM79.94 107.22C80.04 106.8 80.13 106.32 80.21 105.88H77.3V104.59H84.76V105.88H81.81C81.66 106.33 81.5 106.8 81.36 107.22H84.38V115.6H77.86V107.22H79.94ZM82.96 108.36H79.21V109.67H82.96V108.36ZM82.96 110.74H79.21V112.06H82.96V110.74ZM82.96 113.13H79.21V114.47H82.96V113.13ZM82.59 115.89C83.49 116.47 84.67 117.34 85.27 117.94L84.11 118.73C83.55 118.15 82.4 117.21 81.49 116.58L82.59 115.89Z" fill="#494949"/>
<path d="M90.7099 108.11H93.5399V109.39H92.0399L92.7299 109.57C92.4599 110.25 92.1699 110.96 91.9099 111.47H93.3499V112.76H90.7199V114.28H93.1399V115.56H90.7199V118.68H89.3199V115.56H86.7899V114.28H89.3199V112.76H86.6399V111.47H88.0399C87.9599 110.92 87.7199 110.16 87.4299 109.57L88.0899 109.39H86.3599V108.11H89.3099V106.7H86.9399V105.44H89.3099V103.92H90.7099V105.44H92.9399V106.7H90.7099V108.11ZM90.7399 111.32C90.9699 110.77 91.2599 109.96 91.4199 109.38H88.6299C88.9199 110.01 89.1999 110.8 89.2599 111.32L88.7299 111.47H91.2999L90.7499 111.32H90.7399ZM100.77 110.33C100.45 112.25 99.8299 114.06 98.9499 115.59C99.6399 116.4 100.45 117.06 101.36 117.51C101.04 117.78 100.59 118.33 100.36 118.71C99.5399 118.23 98.7899 117.58 98.1299 116.8C97.5699 117.54 96.8999 118.19 96.1599 118.72C95.9699 118.45 95.6399 118.09 95.3399 117.85V118.71H93.9799V104.6H100.41V107.65C100.41 108.34 100.26 108.73 99.6999 108.94C99.1699 109.15 98.3399 109.15 97.1299 109.15C97.0699 108.76 96.8699 108.21 96.6799 107.86C97.5999 107.89 98.4599 107.89 98.6999 107.88C98.9399 107.86 99.0099 107.82 99.0099 107.64V105.93H95.3399V110.06H99.6199L99.8599 110L100.78 110.34L100.77 110.33ZM95.3299 117.58C96.0699 117.06 96.6999 116.4 97.2499 115.64C96.4299 114.36 95.7999 112.88 95.3299 111.28V117.58ZM96.5899 111.29C96.9499 112.39 97.4299 113.44 98.0299 114.39C98.5499 113.42 98.9199 112.37 99.1799 111.29H96.5999H96.5899Z" fill="#494949"/>
<path d="M106.88 107.62H108.45V118.39H107.34V117.57H103.89V118.62H102.82V107.63H104.32V105.79H102.56V104.6H108.66V105.79H106.88V107.63V107.62ZM106.75 112.3C106.09 112.3 105.89 112.12 105.89 111.28V108.84H105.26V110.18C105.26 111.1 105.1 112.33 104.29 113.17C104.19 113.07 104.03 112.89 103.87 112.78V113.88H107.32V112.3H106.74H106.75ZM103.87 108.85V112.5C104.43 111.79 104.53 110.92 104.53 110.18V108.86H103.87V108.85ZM107.33 116.39V114.99H103.88V116.39H107.33ZM105.26 107.62H105.89V105.78H105.26V107.62ZM107.33 108.85H106.65V111.27C106.65 111.48 106.68 111.5 106.83 111.5H107.33V108.85ZM110.2 108.75C110.09 110.17 109.88 111.93 109.3 113.03L108.49 112.35C108.99 111.46 109.22 109.88 109.31 108.52L110.2 108.75ZM116.74 104.23V118.71H115.48V112.24L114.88 112.56C114.75 111.82 114.41 110.77 114.06 109.82V118.33H112.83V112.29L112.14 112.63C112.08 111.81 111.8 110.64 111.48 109.63V110.65C111.48 113.65 111.29 116.54 109.77 118.79C109.53 118.53 109.01 118.18 108.67 118C110.09 115.98 110.27 113.4 110.27 110.65V104.27H111.48V109.02L112.16 108.7C112.42 109.36 112.66 110.15 112.84 110.86V104.53H114.07V108.81L114.6 108.55C114.94 109.24 115.25 110.04 115.49 110.79V104.24H116.75L116.74 104.23Z" fill="#494949"/>
<path d="M122.52 112.03C121.47 112.53 120.39 113.03 119.5 113.43L118.77 112.2C119.79 111.86 121.32 111.25 122.81 110.63L123.08 111.76L122.81 111.89L123.83 111.84C124.18 111.5 124.57 111.11 124.96 110.71C124.33 110.16 123.43 109.5 122.68 109.01L123.41 108.17C123.56 108.25 123.68 108.33 123.85 108.43C124.19 107.96 124.54 107.41 124.82 106.94H119.4V105.57H125.23V103.87H126.78V105.57H132.77V106.94H125.97L126.31 107.07C125.81 107.73 125.23 108.44 124.74 109.01C125.11 109.27 125.48 109.54 125.79 109.78C126.39 109.09 126.95 108.39 127.37 107.78L128.56 108.33C127.61 109.44 126.45 110.72 125.35 111.77L127.63 111.66C127.39 111.29 127.11 110.92 126.86 110.59L127.94 110.12C128.21 110.46 128.52 110.83 128.8 111.22L129.72 110.48C130.91 111.06 132.46 111.97 133.27 112.61L132.16 113.55C131.48 112.94 130.09 112.05 128.93 111.44C129.33 112 129.67 112.59 129.85 113.04L128.7 113.61C128.6 113.35 128.46 113.06 128.28 112.74C126.28 112.9 124.29 113.05 122.74 113.16L122.53 112.03H122.52ZM126.77 114.26H133.23V115.65H126.77V118.73H125.22V115.65H118.89V114.26H125.22V113.1H126.77V114.26ZM120.3 107.49C121.17 107.94 122.29 108.67 122.83 109.18L121.78 110.08C121.26 109.56 120.17 108.8 119.31 108.29L120.29 107.48L120.3 107.49ZM129 109.33C129.76 108.8 130.78 107.93 131.34 107.3L132.68 107.96C131.87 108.7 130.87 109.45 130.1 109.93L129 109.33Z" fill="#494949"/>
<path d="M34.79 85.05H40.45V87.23H34.79V85.05Z" fill="#D95F28"/>
<path d="M43.1401 89.61H46.4401V79.9H43.6601V78.01C45.1901 77.72 46.2501 77.33 47.2301 76.72H49.4901V89.6H52.3701V92.07H43.1401V89.6V89.61Z" fill="#D95F28"/>
<path d="M56.33 88.8C56.89 89.4 57.84 89.88 58.76 89.88C60.48 89.88 61.91 88.57 62.04 84.72C61.25 85.76 59.95 86.4 58.89 86.4C56.34 86.4 54.49 84.82 54.49 81.57C54.49 78.32 56.69 76.45 59.32 76.45C62.22 76.45 64.84 78.73 64.84 84.06C64.84 89.87 62 92.38 58.95 92.38C57.04 92.38 55.65 91.57 54.74 90.64L56.34 88.82L56.33 88.8ZM61.99 82.58C61.72 79.78 60.66 78.74 59.36 78.74C58.22 78.74 57.29 79.67 57.29 81.56C57.29 83.45 58.14 84.21 59.47 84.21C60.3 84.21 61.25 83.75 62 82.57L61.99 82.58Z" fill="#D95F28"/>
<path d="M67.3401 90.38C67.3401 89.26 68.1501 88.39 69.2301 88.39C70.3101 88.39 71.1401 89.26 71.1401 90.38C71.1401 91.5 70.3301 92.37 69.2301 92.37C68.1301 92.37 67.3401 91.5 67.3401 90.38Z" fill="#D95F28"/>
<path d="M75.2799 88.8C75.8399 89.4 76.7899 89.88 77.7099 89.88C79.4299 89.88 80.8599 88.57 80.9899 84.72C80.1999 85.76 78.8999 86.4 77.8399 86.4C75.2899 86.4 73.4399 84.82 73.4399 81.57C73.4399 78.32 75.6399 76.45 78.2699 76.45C81.1699 76.45 83.7899 78.73 83.7899 84.06C83.7899 89.87 80.9499 92.38 77.8999 92.38C75.9899 92.38 74.5999 91.57 73.6899 90.64L75.2899 88.82L75.2799 88.8ZM80.9399 82.58C80.6699 79.78 79.6099 78.74 78.3099 78.74C77.1699 78.74 76.2399 79.67 76.2399 81.56C76.2399 83.45 77.0899 84.21 78.4199 84.21C79.2499 84.21 80.1999 83.75 80.9499 82.57L80.9399 82.58Z" fill="#D95F28"/>
<path d="M92.7501 79.28H85.8401V76.73H96.0401V78.58C92.4701 82.93 92.0001 86.07 91.7501 92.08H88.6601C88.9301 86.75 89.8201 83.35 92.7501 79.29V79.28Z" fill="#D95F28"/>
<path d="M102.39 81.27C102.39 78.2 103.92 76.44 106.12 76.44C108.32 76.44 109.87 78.2 109.87 81.27C109.87 84.34 108.31 86.16 106.12 86.16C103.93 86.16 102.39 84.36 102.39 81.27ZM107.72 81.27C107.72 79.01 107.02 78.16 106.12 78.16C105.22 78.16 104.54 79.01 104.54 81.27C104.54 83.53 105.22 84.44 106.12 84.44C107.02 84.44 107.72 83.53 107.72 81.27ZM114.98 76.44H116.78L108.42 92.37H106.64L114.98 76.44ZM113.55 87.47C113.55 84.38 115.11 82.62 117.28 82.62C119.45 82.62 121.03 84.38 121.03 87.47C121.03 90.56 119.45 92.36 117.28 92.36C115.11 92.36 113.55 90.53 113.55 87.47ZM118.88 87.47C118.88 85.21 118.17 84.34 117.28 84.34C116.39 84.34 115.68 85.21 115.68 87.47C115.68 89.73 116.39 90.62 117.28 90.62C118.17 90.62 118.88 89.73 118.88 87.47Z" fill="#D95F28"/>
<path d="M34.5901 139.4H40.2501V141.58H34.5901V139.4Z" fill="#D95F28"/>
<path d="M42.9402 143.96H46.2402V134.25H43.4602V132.36C44.9902 132.07 46.0502 131.68 47.0302 131.07H49.2902V143.95H52.1702V146.42H42.9402V143.95V143.96Z" fill="#D95F28"/>
<path d="M53.99 144.63L55.4 142.68C56.27 143.53 57.35 144.23 58.78 144.23C60.38 144.23 61.5 143.21 61.5 141.41C61.5 139.61 60.46 138.63 58.91 138.63C58 138.63 57.5 138.86 56.61 139.44L55.22 138.53L55.63 131.09H63.84V133.64H58.26L57.97 136.9C58.57 136.61 59.11 136.46 59.82 136.46C62.39 136.46 64.55 138 64.55 141.33C64.55 144.66 62.02 146.72 59.18 146.72C56.75 146.72 55.14 145.77 54 144.63H53.99Z" fill="#D95F28"/>
<path d="M67.1301 144.73C67.1301 143.61 67.9401 142.74 69.0201 142.74C70.1001 142.74 70.9301 143.61 70.9301 144.73C70.9301 145.85 70.1201 146.72 69.0201 146.72C67.9201 146.72 67.1301 145.85 67.1301 144.73Z" fill="#D95F28"/>
<path d="M72.9402 144.59L74.3702 142.66C75.2802 143.55 76.4002 144.24 77.7902 144.24C79.3502 144.24 80.4002 143.47 80.4002 142.1C80.4002 140.59 79.5102 139.65 76.1702 139.65V137.45C78.9902 137.45 79.9002 136.48 79.9002 135.11C79.9002 133.91 79.1502 133.2 77.8502 133.18C76.7502 133.2 75.8602 133.72 74.9502 134.55L73.3902 132.68C74.7202 131.52 76.1902 130.79 77.9902 130.79C80.9602 130.79 82.9702 132.24 82.9702 134.87C82.9702 136.53 82.0402 137.73 80.4002 138.37V138.47C82.1402 138.95 83.4702 140.23 83.4702 142.24C83.4702 145.06 81.0002 146.7 78.0802 146.7C75.6502 146.7 74.0202 145.79 72.9402 144.56V144.59Z" fill="#D95F28"/>
<path d="M85.5801 142.62C85.5801 140.65 86.7801 139.38 88.2101 138.62V138.52C87.0301 137.67 86.1801 136.51 86.1801 134.87C86.1801 132.4 88.1301 130.83 90.8001 130.83C93.4701 130.83 95.2601 132.47 95.2601 134.91C95.2601 136.42 94.3101 137.69 93.2901 138.41V138.51C94.7001 139.28 95.8601 140.52 95.8601 142.62C95.8601 144.94 93.8101 146.73 90.7001 146.73C87.7801 146.73 85.5801 145.03 85.5801 142.62ZM93.0301 142.51C93.0301 140.91 91.6201 140.25 89.6301 139.44C88.8001 140.1 88.2201 141.14 88.2201 142.28C88.2201 143.67 89.3601 144.56 90.7901 144.56C92.0801 144.56 93.0301 143.83 93.0301 142.51ZM92.7801 135.09C92.7801 133.85 92.0301 132.95 90.7501 132.95C89.7101 132.95 88.8801 133.63 88.8801 134.86C88.8801 136.31 90.0601 137.02 91.6801 137.66C92.4301 136.87 92.7801 136 92.7801 135.09Z" fill="#D95F28"/>
<path d="M102.19 135.63C102.19 132.56 103.72 130.8 105.92 130.8C108.12 130.8 109.67 132.56 109.67 135.63C109.67 138.7 108.11 140.52 105.92 140.52C103.73 140.52 102.19 138.72 102.19 135.63ZM107.52 135.63C107.52 133.37 106.82 132.52 105.92 132.52C105.02 132.52 104.34 133.37 104.34 135.63C104.34 137.89 105.02 138.8 105.92 138.8C106.82 138.8 107.52 137.89 107.52 135.63ZM114.77 130.8H116.57L108.21 146.73H106.43L114.77 130.8ZM113.34 141.83C113.34 138.74 114.9 136.98 117.07 136.98C119.24 136.98 120.82 138.74 120.82 141.83C120.82 144.92 119.24 146.72 117.07 146.72C114.9 146.72 113.34 144.9 113.34 141.83ZM118.67 141.83C118.67 139.57 117.96 138.7 117.07 138.7C116.18 138.7 115.47 139.57 115.47 141.83C115.47 144.09 116.18 144.98 117.07 144.98C117.96 144.98 118.67 144.09 118.67 141.83Z" fill="#D95F28"/>
<path opacity="0.2" d="M112.41 71.47H43.0199C36.0335 71.47 30.3699 77.1336 30.3699 84.12C30.3699 91.1064 36.0335 96.77 43.0199 96.77H112.41C119.396 96.77 125.06 91.1064 125.06 84.12C125.06 77.1336 119.396 71.47 112.41 71.47Z" fill="#D95F28"/>
<path opacity="0.2" d="M112.41 125.83H43.0199C36.0335 125.83 30.3699 131.494 30.3699 138.48C30.3699 145.466 36.0335 151.13 43.0199 151.13H112.41C119.396 151.13 125.06 145.466 125.06 138.48C125.06 131.494 119.396 125.83 112.41 125.83Z" fill="#D95F28"/>
</svg>
