<svg width="156" height="181" viewBox="0 0 156 181" fill="none" xmlns="http://www.w3.org/2000/svg">
<path d="M95.91 17.2925H135.31C145.88 17.2925 154.44 26.3425 154.44 37.5025V159.182C154.44 170.342 145.87 179.392 135.31 179.392H20.13C9.55999 179.392 1 170.342 1 159.182V37.5025C1 26.3425 9.56999 17.2925 20.13 17.2925H64.34L74.62 2.6725C76.19 0.442501 79.35 0.442501 80.92 2.6725L91.2 17.2925H95.91Z" fill="#FCEDE4" stroke="#D95F28" stroke-width="2" stroke-linejoin="round"/>
<path d="M128.89 29H29.1599C21.4113 29 15.1299 35.2815 15.1299 43.03C15.1299 50.7786 21.4113 57.06 29.1599 57.06H128.89C136.638 57.06 142.92 50.7786 142.92 43.03C142.92 35.2815 136.638 29 128.89 29Z" fill="#D95F28"/>
<path d="M34.6899 44.58C33.9599 44.79 33.2299 44.99 32.4699 45.2V49.5C32.4699 50.66 32.2599 51.24 31.5799 51.58C30.9199 51.95 29.9799 52.02 28.6299 52C28.5499 51.4 28.2599 50.46 27.9599 49.82C28.7099 49.86 29.4999 49.86 29.7499 49.86C30.0199 49.86 30.1199 49.76 30.1199 49.49V45.81L27.8999 46.41L27.4399 44.17C28.1899 44.02 29.1399 43.8 30.1199 43.57V39.4H27.6899V37.28H30.1199V34.04H32.4699V37.28H34.3799V39.4H32.4699V42.99C33.1299 42.82 33.7799 42.64 34.4199 42.47L34.6899 44.57V44.58ZM44.6299 35.61V51.31H42.2199V49.84H37.5699V51.46H35.2799V35.61H44.6299ZM42.2099 47.68V37.79H37.5599V47.68H42.2099Z" fill="white"/>
<path d="M51.84 46.51C51.53 48.15 50.93 49.75 50.2 50.81C49.81 50.54 48.97 50.14 48.48 49.94C49.21 49.01 49.69 47.57 49.95 46.18L51.84 46.51ZM54.66 45.81V49.9C54.66 50.85 54.53 51.39 53.89 51.69C53.27 52.02 52.5 52.06 51.44 52.06C51.36 51.44 51.09 50.63 50.84 50.07C51.42 50.09 52.06 50.09 52.27 50.09C52.46 50.09 52.52 50.03 52.52 49.84V45.81H48.8V43.92H58.27V45.81H54.66ZM52.5 37.44H49.05V35.57H52.5V34.14H54.64V35.57H58.03V37.44H54.64V38.42H57.61V40.27H49.51V38.42H52.5V37.44ZM63.16 41.61C63.16 43.5 63.89 47.72 67 50.04C66.59 50.54 65.96 51.47 65.61 52.05C63.37 50.43 62.31 47.15 62.06 45.49C61.81 47.19 60.59 50.33 58.03 52.05C57.8 51.55 57.14 50.58 56.78 50.14C60.25 47.79 60.95 43.56 60.95 41.61V39.59H60.58C60.16 41.06 59.62 42.35 58.96 43.37C58.67 43.06 58.01 42.56 57.49 42.21V43.04H49.62V41.19H57.49C58.47 39.34 59.03 36.7 59.34 34.02L61.63 34.33C61.5 35.41 61.32 36.49 61.09 37.51H64.85L65.2 37.43L66.72 37.84C66.49 39.69 66.12 41.83 65.76 43.24L63.97 42.7C64.12 41.89 64.28 40.73 64.39 39.6H63.16V41.62V41.61ZM56.88 46.14C57.36 46.99 57.88 48.13 58.06 48.86L56.27 49.61C56.1 48.9 55.63 47.68 55.19 46.81L56.89 46.14H56.88Z" fill="white"/>
<path d="M77.1899 43.36C76.0299 46.56 74.1199 49.78 72.2699 51.77C71.7499 51.29 70.5699 50.5 69.9399 50.11C71.8499 48.39 73.5499 45.52 74.5099 42.67L77.1899 43.36ZM87.5699 40.61H70.4799V38.22H77.7099V34.07H80.2199V38.22H87.5699V40.61ZM83.1699 42.65C84.8899 45.08 86.9099 48.36 87.7399 50.58L85.1599 51.72C84.4299 49.56 82.5399 46.15 80.8399 43.58L83.1699 42.65Z" fill="white"/>
<path d="M96.8998 34.72C96.4798 35.93 95.9698 37.17 95.3998 38.38V52.05H93.2198V42.17C92.7998 42.77 92.3698 43.33 91.9298 43.83C91.7598 43.27 91.1999 41.92 90.8499 41.34C92.4499 39.58 93.9198 36.83 94.7798 34.05L96.8998 34.71V34.72ZM108.69 35.01V51.85H106.51V50.9H99.2599V52.02H97.1798V35.01H108.69ZM106.51 48.92V37H99.2599V48.92H106.51ZM103.73 41.03V42.69H105.58V47.86H100.24V42.69H101.96V41.03H99.7398V39.37H101.96V37.4H103.73V39.37H106.06V41.03H103.73ZM103.87 44.27H101.9V46.3H103.87V44.27Z" fill="white"/>
<path d="M128 49.11C128 50.5 127.67 51.15 126.79 51.54C125.86 51.94 124.51 51.98 122.53 51.98C122.4 51.31 121.93 50.21 121.57 49.57C122.92 49.65 124.54 49.63 124.96 49.63C125.42 49.63 125.58 49.48 125.58 49.07V46.27H117.33C116.83 48.43 115.86 50.53 114.07 52.04C113.72 51.56 112.8 50.71 112.3 50.38C115.21 47.89 115.48 44.21 115.48 41.28V34.93H128.02V49.11H128ZM125.57 44.06V41.71H117.84C117.82 42.44 117.78 43.25 117.71 44.06H125.58H125.57ZM117.84 37.17V39.52H125.57V37.17H117.84Z" fill="white"/>
<path d="M43.61 74.78L41.59 75.36V79.7C41.59 80.48 41.43 80.88 40.96 81.11C40.48 81.34 39.78 81.38 38.7 81.37C38.65 81 38.44 80.39 38.26 80C38.94 80.03 39.6 80.03 39.79 80.02C40.02 80.02 40.1 79.95 40.1 79.71V75.8C39.41 76.01 38.74 76.19 38.15 76.35L37.76 74.9C38.41 74.74 39.21 74.56 40.1 74.32V71.11H37.99V69.72H40.1V66.59H41.59V69.72H43.35V71.11H41.59V73.9C42.19 73.74 42.8 73.58 43.41 73.4L43.6 74.79L43.61 74.78ZM44.28 74.25H51.93V81.29H50.44V80.64H45.69V81.37H44.27V74.25H44.28ZM50.23 71.73C51.07 71.73 51.2 71.44 51.31 69.79C51.65 70.03 52.28 70.24 52.67 70.34C52.48 72.52 52.02 73.09 50.33 73.09H46.86C44.84 73.09 44.31 72.65 44.31 71.07V66.61H45.8V68.89C47.58 68.5 49.45 67.95 50.59 67.42L51.7 68.52C50.09 69.18 47.81 69.73 45.79 70.1V71.07C45.79 71.64 45.98 71.73 46.97 71.73H50.23ZM45.71 75.5V76.86H50.46V75.5H45.71ZM50.45 79.43V78.03H45.7V79.43H50.45Z" fill="#494949"/>
<path d="M67.97 70.89C67.65 73.39 67.13 75.51 66.27 77.25C66.95 78.53 67.82 79.56 68.95 80.22C68.61 80.48 68.16 81.03 67.93 81.4C66.91 80.72 66.09 79.8 65.43 78.69C64.67 79.77 63.73 80.68 62.54 81.43C62.41 81.14 62.01 80.54 61.73 80.25L60.83 81.15C60.36 80.81 59.75 80.46 59.07 80.1C58.05 80.73 56.71 81.13 54.99 81.42C54.91 81.05 54.68 80.55 54.44 80.26C55.8 80.11 56.89 79.87 57.75 79.47C57.33 79.29 56.89 79.1 56.46 78.94L56.25 79.28L55.02 78.96C55.31 78.52 55.65 77.98 55.97 77.38L54.1 77.41L54.05 76.26C54.79 76.26 55.66 76.26 56.6 76.24C56.76 75.95 56.91 75.67 57.04 75.4H54.73V72.59H57.67V71.96H55.1V70.25H54.03V69.15H55.1V67.45H57.67V66.55H58.96V67.45H61.69V69.15H62.79V70.25H61.69V71.96H58.96V72.59H62.04V73.25C62.99 71.52 63.56 69.05 63.9 66.53L65.34 66.76C65.21 67.7 65.05 68.6 64.84 69.49H68.86V70.88H67.97V70.89ZM55.99 74.45H57.67V73.58H55.99V74.45ZM56.35 68.46V69.24H57.67V68.46H56.35ZM57.67 70.98V70.19H56.35V70.98H57.67ZM57.03 78C57.66 78.23 58.29 78.48 58.9 78.74C59.3 78.35 59.63 77.88 59.85 77.32L57.4 77.37L57.03 78ZM61.19 77.29C60.96 78.1 60.59 78.76 60.09 79.29C60.72 79.6 61.28 79.9 61.72 80.19C63.03 79.45 64 78.46 64.71 77.24C64.24 76.13 63.87 74.85 63.58 73.48C63.34 74 63.08 74.48 62.81 74.9C62.66 74.72 62.34 74.38 62.05 74.13V75.42H58.47C58.34 75.68 58.2 75.97 58.03 76.24C59.56 76.22 61.23 76.21 62.86 76.18L62.81 77.26L61.2 77.29H61.19ZM58.96 68.46V69.24H60.36V68.46H58.96ZM60.37 70.98V70.19H58.97V70.98H60.37ZM58.96 73.57V74.44H60.74V73.57H58.96ZM64.5 70.89L64.45 71.05C64.69 72.66 65.03 74.18 65.52 75.52C66.02 74.18 66.34 72.65 66.55 70.89H64.5Z" fill="#494949"/>
<path d="M74.56 70.78H77.38V72.06H75.88L76.57 72.24C76.3 72.92 76.01 73.63 75.75 74.14H77.19V75.43H74.56V76.95H76.98V78.23H74.56V81.35H73.16V78.23H70.63V76.95H73.16V75.43H70.48V74.14H71.88C71.8 73.59 71.56 72.83 71.27 72.24L71.93 72.06H70.2V70.78H73.15V69.37H70.78V68.11H73.15V66.59H74.55V68.11H76.78V69.37H74.55V70.78H74.56ZM74.59 73.99C74.82 73.44 75.11 72.63 75.27 72.05H72.48C72.77 72.68 73.05 73.47 73.11 73.99L72.58 74.14H75.15L74.6 73.99H74.59ZM84.62 73.01C84.3 74.93 83.68 76.74 82.8 78.27C83.49 79.08 84.3 79.74 85.21 80.19C84.89 80.46 84.44 81.01 84.21 81.39C83.39 80.91 82.64 80.26 81.98 79.48C81.42 80.22 80.75 80.87 80.01 81.4C79.82 81.13 79.49 80.77 79.19 80.53V81.39H77.83V67.28H84.26V70.33C84.26 71.02 84.11 71.41 83.55 71.62C83.02 71.83 82.19 71.83 80.98 71.83C80.92 71.44 80.72 70.89 80.53 70.54C81.45 70.57 82.31 70.57 82.55 70.56C82.79 70.54 82.86 70.5 82.86 70.32V68.61H79.19V72.74H83.47L83.71 72.68L84.63 73.02L84.62 73.01ZM79.18 80.26C79.92 79.74 80.55 79.08 81.1 78.32C80.28 77.04 79.65 75.56 79.18 73.96V80.26ZM80.44 73.96C80.8 75.06 81.28 76.11 81.88 77.06C82.4 76.09 82.77 75.04 83.03 73.96H80.45H80.44Z" fill="#494949"/>
<path d="M90.7299 70.3H92.2999V81.07H91.1899V80.25H87.7399V81.3H86.6699V70.31H88.1699V68.47H86.4099V67.28H92.5099V68.47H90.7299V70.31V70.3ZM90.5999 74.98C89.9399 74.98 89.7399 74.8 89.7399 73.96V71.52H89.1099V72.86C89.1099 73.78 88.9499 75.01 88.1399 75.85C88.0399 75.75 87.8799 75.57 87.7199 75.46V76.56H91.1699V74.98H90.5899H90.5999ZM87.7199 71.52V75.17C88.2799 74.46 88.3799 73.59 88.3799 72.85V71.53H87.7199V71.52ZM91.1799 79.06V77.66H87.7299V79.06H91.1799ZM89.1099 70.3H89.7399V68.46H89.1099V70.3ZM91.1799 71.52H90.4999V73.94C90.4999 74.15 90.5299 74.17 90.6799 74.17H91.1799V71.52ZM94.0499 71.43C93.9399 72.85 93.7299 74.61 93.1499 75.71L92.3399 75.03C92.8399 74.14 93.0699 72.56 93.1599 71.2L94.0499 71.43ZM100.59 66.91V81.39H99.3299V74.92L98.7299 75.24C98.5999 74.5 98.2599 73.45 97.9099 72.5V81.01H96.6799V74.97L95.9899 75.31C95.9299 74.49 95.6499 73.32 95.3299 72.31V73.33C95.3299 76.33 95.1399 79.22 93.6199 81.47C93.3799 81.21 92.8599 80.86 92.5199 80.68C93.9399 78.66 94.1199 76.08 94.1199 73.33V66.95H95.3299V71.7L96.0099 71.38C96.2699 72.04 96.5099 72.83 96.6899 73.54V67.21H97.9199V71.49L98.4499 71.23C98.7899 71.92 99.0999 72.72 99.3399 73.47V66.92H100.6L100.59 66.91Z" fill="#494949"/>
<path d="M106.37 74.7C105.32 75.2 104.24 75.7 103.35 76.1L102.62 74.87C103.64 74.53 105.17 73.92 106.66 73.3L106.93 74.43L106.66 74.56L107.68 74.51C108.03 74.17 108.42 73.78 108.81 73.38C108.18 72.83 107.28 72.17 106.53 71.68L107.26 70.84C107.41 70.92 107.53 71 107.7 71.1C108.04 70.63 108.39 70.08 108.67 69.61H103.25V68.24H109.08V66.54H110.63V68.24H116.62V69.61H109.82L110.16 69.74C109.66 70.4 109.08 71.11 108.59 71.68C108.96 71.94 109.33 72.21 109.64 72.45C110.24 71.76 110.8 71.06 111.22 70.45L112.41 71C111.46 72.11 110.3 73.39 109.2 74.44L111.48 74.33C111.24 73.96 110.96 73.59 110.71 73.26L111.79 72.79C112.06 73.13 112.37 73.5 112.65 73.89L113.57 73.15C114.76 73.73 116.31 74.64 117.12 75.28L116.01 76.22C115.33 75.61 113.94 74.72 112.78 74.11C113.18 74.67 113.52 75.26 113.7 75.71L112.55 76.28C112.45 76.02 112.31 75.73 112.13 75.41C110.13 75.57 108.14 75.72 106.59 75.83L106.38 74.7H106.37ZM110.62 76.93H117.08V78.32H110.62V81.4H109.07V78.32H102.74V76.93H109.07V75.77H110.62V76.93ZM104.15 70.17C105.02 70.62 106.14 71.35 106.68 71.86L105.63 72.76C105.11 72.24 104.02 71.48 103.16 70.97L104.14 70.16L104.15 70.17ZM112.85 72.01C113.61 71.48 114.63 70.61 115.19 69.98L116.53 70.64C115.72 71.38 114.72 72.13 113.95 72.61L112.85 72.01Z" fill="#494949"/>
<path d="M29.9099 134.01C30.6199 134.11 31.3799 134.16 32.1899 134.16C32.8799 134.16 35.5999 134.16 36.5199 134.13C36.2799 134.49 36.0199 135.21 35.9599 135.65H32.1199C28.9599 135.65 26.6299 135.12 25.1599 132.58C24.6299 133.95 23.8799 135.08 22.8799 135.94C22.6399 135.67 22.0099 135.15 21.6399 134.91C23.4199 133.59 24.2399 131.33 24.5799 128.5L26.1299 128.65C26.0299 129.39 25.8999 130.1 25.7399 130.77C26.2999 132.27 27.2099 133.13 28.3699 133.61V127.35H24.6399V125.91H33.7299V127.35H29.9199V129.72H34.5399V131.13H29.9199V134.04L29.9099 134.01ZM23.8899 126.49H22.4199V122.78H28.3299V121.05H29.9299V122.78H35.8999V126.49H34.3699V124.2H23.8899V126.49Z" fill="#494949"/>
<path d="M41.4299 132.62C40.8499 133.83 39.9099 135.07 39.0399 135.87C38.7799 135.61 38.1999 135.19 37.8499 134.98C38.7199 134.29 39.5499 133.25 40.0099 132.24L41.4299 132.63V132.62ZM45.7499 131.98H37.8899V130.67H39.3899V124.37H38.0799V123.06H39.3899V121.2H40.7499V123.06H43.2699V121.2H44.6599V123.06H45.8199V124.37H44.6599V130.67H45.7599V131.98H45.7499ZM40.7499 124.37V125.58H43.2699V124.37H40.7499ZM40.7499 128.1H43.2699V126.76H40.7499V128.1ZM40.7499 130.67H43.2699V129.28H40.7499V130.67ZM43.4799 132.19C44.1099 132.92 44.8799 133.9 45.2199 134.55L44.0099 135.28C43.6899 134.63 42.9399 133.58 42.3299 132.83L43.4799 132.2V132.19ZM52.1998 134.08C52.1998 134.87 52.0199 135.31 51.5199 135.53C51.0399 135.79 50.2599 135.82 49.0699 135.8C49.0199 135.41 48.8299 134.75 48.6299 134.38C49.3899 134.41 50.1999 134.4 50.4099 134.4C50.6499 134.38 50.7499 134.32 50.7499 134.06V130.48H47.7799C47.5999 132.4 47.2199 134.45 46.2899 135.92C46.0499 135.65 45.4199 135.21 45.0999 135.06C46.3799 132.94 46.4899 129.93 46.4899 127.62V121.81H52.1998V134.08ZM50.7399 129.12V126.76H47.8999V127.62C47.8999 128.09 47.8999 128.6 47.8699 129.12H50.7399ZM47.8999 123.16V125.44H50.7399V123.16H47.8999Z" fill="#494949"/>
<path d="M62.2099 134.01C62.9199 134.11 63.6799 134.16 64.4899 134.16C65.1799 134.16 67.8999 134.16 68.8199 134.13C68.5799 134.49 68.3199 135.21 68.2599 135.65H64.4199C61.2599 135.65 58.9299 135.12 57.4599 132.58C56.9299 133.95 56.1799 135.08 55.1799 135.94C54.9399 135.67 54.3099 135.15 53.9399 134.91C55.7199 133.59 56.5399 131.33 56.8799 128.5L58.4299 128.65C58.3299 129.39 58.1999 130.1 58.0399 130.77C58.5999 132.27 59.5099 133.13 60.6699 133.61V127.35H56.9399V125.91H66.0299V127.35H62.2199V129.72H66.8399V131.13H62.2199V134.04L62.2099 134.01ZM56.1899 126.49H54.7199V122.78H60.6299V121.05H62.2299V122.78H68.1999V126.49H66.6699V124.2H56.1899V126.49Z" fill="#494949"/>
<path d="M76.26 134.77C77.37 134.35 78.6 133.59 79.2 132.95L80.44 133.71C79.6 134.53 78.24 135.37 77.08 135.83C76.84 135.56 76.4 135.12 76.1 134.84H72.6V135.57H71.32V131.26C71.13 131.34 70.93 131.44 70.74 131.52C70.58 131.2 70.22 130.71 69.97 130.44C71.12 130.02 72.25 129.34 73.18 128.49C72.73 128.15 72.28 127.83 71.86 127.54C71.57 127.81 71.28 128.07 70.97 128.3C70.78 128.06 70.28 127.62 70 127.41C71.24 126.6 72.34 125.33 72.94 123.92L74.18 124.24C74.05 124.53 73.91 124.82 73.74 125.1H75.56L75.79 125.04L76.65 125.43C76.28 126.51 75.73 127.48 75.07 128.3C75.97 128.96 76.81 129.61 77.36 130.11L76.49 131.14L76.26 130.93V134.79V134.77ZM71.66 124.86H70.43V122.42H73.09V121.06H74.49V122.42H77.17V124.86H75.89V123.63H71.64V124.86H71.66ZM75.85 130.56C75.38 130.16 74.8 129.7 74.19 129.24C73.69 129.74 73.12 130.18 72.53 130.56H75.86H75.85ZM74.95 131.72H72.59V133.67H74.95V131.72ZM73.06 126.13C72.93 126.31 72.8 126.47 72.67 126.63C73.11 126.92 73.57 127.23 74.04 127.55C74.39 127.11 74.72 126.63 74.96 126.13H73.06ZM79.94 124.36C80.04 123.94 80.13 123.46 80.21 123.02H77.3V121.73H84.76V123.02H81.81C81.66 123.47 81.5 123.94 81.36 124.36H84.38V132.74H77.86V124.36H79.94ZM82.96 125.5H79.21V126.81H82.96V125.5ZM82.96 127.88H79.21V129.2H82.96V127.88ZM82.96 130.27H79.21V131.61H82.96V130.27ZM82.59 133.03C83.49 133.61 84.67 134.48 85.27 135.08L84.11 135.87C83.55 135.29 82.4 134.35 81.49 133.72L82.59 133.03Z" fill="#494949"/>
<path d="M90.7099 125.25H93.5399V126.53H92.0399L92.7299 126.71C92.4599 127.39 92.1699 128.1 91.9099 128.61H93.3499V129.9H90.7199V131.42H93.1399V132.7H90.7199V135.82H89.3199V132.7H86.7899V131.42H89.3199V129.9H86.6399V128.61H88.0399C87.9599 128.06 87.7199 127.3 87.4299 126.71L88.0899 126.53H86.3599V125.25H89.3099V123.84H86.9399V122.58H89.3099V121.06H90.7099V122.58H92.9399V123.84H90.7099V125.25ZM90.7399 128.46C90.9699 127.91 91.2599 127.1 91.4199 126.52H88.6299C88.9199 127.15 89.1999 127.94 89.2599 128.46L88.7299 128.61H91.2999L90.7499 128.46H90.7399ZM100.77 127.47C100.45 129.39 99.8299 131.2 98.9499 132.73C99.6399 133.54 100.45 134.2 101.36 134.65C101.04 134.92 100.59 135.47 100.36 135.85C99.5399 135.37 98.7899 134.72 98.1299 133.94C97.5699 134.68 96.8999 135.33 96.1599 135.86C95.9699 135.59 95.6399 135.23 95.3399 134.99V135.85H93.9799V121.74H100.41V124.79C100.41 125.48 100.26 125.87 99.6999 126.08C99.1699 126.29 98.3399 126.29 97.1299 126.29C97.0699 125.9 96.8699 125.35 96.6799 125C97.5999 125.03 98.4599 125.03 98.6999 125.02C98.9399 125 99.0099 124.96 99.0099 124.78V123.07H95.3399V127.2H99.6199L99.8599 127.14L100.78 127.48L100.77 127.47ZM95.3299 134.72C96.0699 134.2 96.6999 133.54 97.2499 132.78C96.4299 131.5 95.7999 130.02 95.3299 128.42V134.72ZM96.5899 128.43C96.9499 129.53 97.4299 130.58 98.0299 131.53C98.5499 130.56 98.9199 129.51 99.1799 128.43H96.5999H96.5899Z" fill="#494949"/>
<path d="M106.88 124.76H108.45V135.53H107.34V134.71H103.89V135.76H102.82V124.77H104.32V122.93H102.56V121.74H108.66V122.93H106.88V124.77V124.76ZM106.75 129.44C106.09 129.44 105.89 129.26 105.89 128.42V125.98H105.26V127.32C105.26 128.24 105.1 129.47 104.29 130.31C104.19 130.21 104.03 130.03 103.87 129.92V131.02H107.32V129.44H106.74H106.75ZM103.87 125.99V129.64C104.43 128.93 104.53 128.06 104.53 127.32V126H103.87V125.99ZM107.33 133.53V132.13H103.88V133.53H107.33ZM105.26 124.76H105.89V122.92H105.26V124.76ZM107.33 125.99H106.65V128.41C106.65 128.62 106.68 128.64 106.83 128.64H107.33V125.99ZM110.2 125.89C110.09 127.31 109.88 129.07 109.3 130.17L108.49 129.49C108.99 128.6 109.22 127.02 109.31 125.66L110.2 125.89ZM116.74 121.37V135.85H115.48V129.38L114.88 129.7C114.75 128.96 114.41 127.91 114.06 126.96V135.47H112.83V129.43L112.14 129.77C112.08 128.95 111.8 127.78 111.48 126.77V127.79C111.48 130.79 111.29 133.68 109.77 135.93C109.53 135.67 109.01 135.32 108.67 135.14C110.09 133.12 110.27 130.54 110.27 127.79V121.41H111.48V126.16L112.16 125.84C112.42 126.5 112.66 127.29 112.84 128V121.67H114.07V125.95L114.6 125.69C114.94 126.38 115.25 127.18 115.49 127.93V121.38H116.75L116.74 121.37Z" fill="#494949"/>
<path d="M122.52 129.17C121.47 129.67 120.39 130.17 119.5 130.57L118.77 129.34C119.79 129 121.32 128.39 122.81 127.77L123.08 128.9L122.81 129.03L123.83 128.98C124.18 128.64 124.57 128.25 124.96 127.85C124.33 127.3 123.43 126.64 122.68 126.15L123.41 125.31C123.56 125.39 123.68 125.47 123.85 125.57C124.19 125.1 124.54 124.55 124.82 124.08H119.4V122.71H125.23V121.01H126.78V122.71H132.77V124.08H125.97L126.31 124.21C125.81 124.87 125.23 125.58 124.74 126.15C125.11 126.41 125.48 126.68 125.79 126.92C126.39 126.23 126.95 125.53 127.37 124.92L128.56 125.47C127.61 126.58 126.45 127.86 125.35 128.91L127.63 128.8C127.39 128.43 127.11 128.06 126.86 127.73L127.94 127.26C128.21 127.6 128.52 127.97 128.8 128.36L129.72 127.62C130.91 128.2 132.46 129.11 133.27 129.75L132.16 130.69C131.48 130.08 130.09 129.19 128.93 128.58C129.33 129.14 129.67 129.73 129.85 130.18L128.7 130.75C128.6 130.49 128.46 130.2 128.28 129.88C126.28 130.04 124.29 130.19 122.74 130.3L122.53 129.17H122.52ZM126.77 131.4H133.23V132.79H126.77V135.87H125.22V132.79H118.89V131.4H125.22V130.24H126.77V131.4ZM120.3 124.63C121.17 125.08 122.29 125.81 122.83 126.32L121.78 127.22C121.26 126.7 120.17 125.94 119.31 125.43L120.29 124.62L120.3 124.63ZM129 126.47C129.76 125.94 130.78 125.07 131.34 124.44L132.68 125.1C131.87 125.84 130.87 126.59 130.1 127.07L129 126.47Z" fill="#494949"/>
<path d="M34.79 102.19H40.45V104.37H34.79V102.19Z" fill="#D95F28"/>
<path d="M43.1401 106.75H46.4401V97.04H43.6601V95.15C45.1901 94.86 46.2501 94.47 47.2301 93.86H49.4901V106.74H52.3701V109.21H43.1401V106.74V106.75Z" fill="#D95F28"/>
<path d="M56.33 105.94C56.89 106.54 57.84 107.02 58.76 107.02C60.48 107.02 61.91 105.71 62.04 101.86C61.25 102.9 59.95 103.54 58.89 103.54C56.34 103.54 54.49 101.96 54.49 98.71C54.49 95.46 56.69 93.59 59.32 93.59C62.22 93.59 64.84 95.87 64.84 101.2C64.84 107.01 62 109.52 58.95 109.52C57.04 109.52 55.65 108.71 54.74 107.78L56.34 105.96L56.33 105.94ZM61.99 99.72C61.72 96.92 60.66 95.88 59.36 95.88C58.22 95.88 57.29 96.81 57.29 98.7C57.29 100.59 58.14 101.35 59.47 101.35C60.3 101.35 61.25 100.89 62 99.71L61.99 99.72Z" fill="#D95F28"/>
<path d="M67.3401 107.52C67.3401 106.4 68.1501 105.53 69.2301 105.53C70.3101 105.53 71.1401 106.4 71.1401 107.52C71.1401 108.64 70.3301 109.51 69.2301 109.51C68.1301 109.51 67.3401 108.64 67.3401 107.52Z" fill="#D95F28"/>
<path d="M75.2799 105.94C75.8399 106.54 76.7899 107.02 77.7099 107.02C79.4299 107.02 80.8599 105.71 80.9899 101.86C80.1999 102.9 78.8999 103.54 77.8399 103.54C75.2899 103.54 73.4399 101.96 73.4399 98.71C73.4399 95.46 75.6399 93.59 78.2699 93.59C81.1699 93.59 83.7899 95.87 83.7899 101.2C83.7899 107.01 80.9499 109.52 77.8999 109.52C75.9899 109.52 74.5999 108.71 73.6899 107.78L75.2899 105.96L75.2799 105.94ZM80.9399 99.72C80.6699 96.92 79.6099 95.88 78.3099 95.88C77.1699 95.88 76.2399 96.81 76.2399 98.7C76.2399 100.59 77.0899 101.35 78.4199 101.35C79.2499 101.35 80.1999 100.89 80.9499 99.71L80.9399 99.72Z" fill="#D95F28"/>
<path d="M92.7501 96.42H85.8401V93.87H96.0401V95.72C92.4701 100.07 92.0001 103.21 91.7501 109.22H88.6601C88.9301 103.89 89.8201 100.49 92.7501 96.43V96.42Z" fill="#D95F28"/>
<path d="M102.39 98.41C102.39 95.34 103.92 93.58 106.12 93.58C108.32 93.58 109.87 95.34 109.87 98.41C109.87 101.48 108.31 103.3 106.12 103.3C103.93 103.3 102.39 101.5 102.39 98.41ZM107.72 98.41C107.72 96.15 107.02 95.3 106.12 95.3C105.22 95.3 104.54 96.15 104.54 98.41C104.54 100.67 105.22 101.58 106.12 101.58C107.02 101.58 107.72 100.67 107.72 98.41ZM114.98 93.58H116.78L108.42 109.51H106.64L114.98 93.58ZM113.55 104.61C113.55 101.52 115.11 99.76 117.28 99.76C119.45 99.76 121.03 101.52 121.03 104.61C121.03 107.7 119.45 109.5 117.28 109.5C115.11 109.5 113.55 107.67 113.55 104.61ZM118.88 104.61C118.88 102.35 118.17 101.48 117.28 101.48C116.39 101.48 115.68 102.35 115.68 104.61C115.68 106.87 116.39 107.76 117.28 107.76C118.17 107.76 118.88 106.87 118.88 104.61Z" fill="#D95F28"/>
<path d="M34.5901 156.54H40.2501V158.72H34.5901V156.54Z" fill="#D95F28"/>
<path d="M42.9402 161.1H46.2402V151.39H43.4602V149.5C44.9902 149.21 46.0502 148.82 47.0302 148.21H49.2902V161.09H52.1702V163.56H42.9402V161.09V161.1Z" fill="#D95F28"/>
<path d="M53.99 161.77L55.4 159.82C56.27 160.67 57.35 161.37 58.78 161.37C60.38 161.37 61.5 160.35 61.5 158.55C61.5 156.75 60.46 155.77 58.91 155.77C58 155.77 57.5 156 56.61 156.58L55.22 155.67L55.63 148.23H63.84V150.78H58.26L57.97 154.04C58.57 153.75 59.11 153.6 59.82 153.6C62.39 153.6 64.55 155.14 64.55 158.47C64.55 161.8 62.02 163.86 59.18 163.86C56.75 163.86 55.14 162.91 54 161.77H53.99Z" fill="#D95F28"/>
<path d="M67.1301 161.87C67.1301 160.75 67.9401 159.88 69.0201 159.88C70.1001 159.88 70.9301 160.75 70.9301 161.87C70.9301 162.99 70.1201 163.86 69.0201 163.86C67.9201 163.86 67.1301 162.99 67.1301 161.87Z" fill="#D95F28"/>
<path d="M72.9402 161.73L74.3702 159.8C75.2802 160.69 76.4002 161.38 77.7902 161.38C79.3502 161.38 80.4002 160.61 80.4002 159.24C80.4002 157.73 79.5102 156.79 76.1702 156.79V154.59C78.9902 154.59 79.9002 153.62 79.9002 152.25C79.9002 151.05 79.1502 150.34 77.8502 150.32C76.7502 150.34 75.8602 150.86 74.9502 151.69L73.3902 149.82C74.7202 148.66 76.1902 147.93 77.9902 147.93C80.9602 147.93 82.9702 149.38 82.9702 152.01C82.9702 153.67 82.0402 154.87 80.4002 155.51V155.61C82.1402 156.09 83.4702 157.37 83.4702 159.38C83.4702 162.2 81.0002 163.84 78.0802 163.84C75.6502 163.84 74.0202 162.93 72.9402 161.7V161.73Z" fill="#D95F28"/>
<path d="M85.5801 159.76C85.5801 157.79 86.7801 156.52 88.2101 155.76V155.66C87.0301 154.81 86.1801 153.65 86.1801 152.01C86.1801 149.54 88.1301 147.97 90.8001 147.97C93.4701 147.97 95.2601 149.61 95.2601 152.05C95.2601 153.56 94.3101 154.83 93.2901 155.55V155.65C94.7001 156.42 95.8601 157.66 95.8601 159.76C95.8601 162.08 93.8101 163.87 90.7001 163.87C87.7801 163.87 85.5801 162.17 85.5801 159.76ZM93.0301 159.65C93.0301 158.05 91.6201 157.39 89.6301 156.58C88.8001 157.24 88.2201 158.28 88.2201 159.42C88.2201 160.81 89.3601 161.7 90.7901 161.7C92.0801 161.7 93.0301 160.97 93.0301 159.65ZM92.7801 152.23C92.7801 150.99 92.0301 150.09 90.7501 150.09C89.7101 150.09 88.8801 150.77 88.8801 152C88.8801 153.45 90.0601 154.16 91.6801 154.8C92.4301 154.01 92.7801 153.14 92.7801 152.23Z" fill="#D95F28"/>
<path d="M102.19 152.77C102.19 149.7 103.72 147.94 105.92 147.94C108.12 147.94 109.67 149.7 109.67 152.77C109.67 155.84 108.11 157.66 105.92 157.66C103.73 157.66 102.19 155.86 102.19 152.77ZM107.52 152.77C107.52 150.51 106.82 149.66 105.92 149.66C105.02 149.66 104.34 150.51 104.34 152.77C104.34 155.03 105.02 155.94 105.92 155.94C106.82 155.94 107.52 155.03 107.52 152.77ZM114.77 147.94H116.57L108.21 163.87H106.43L114.77 147.94ZM113.34 158.97C113.34 155.88 114.9 154.12 117.07 154.12C119.24 154.12 120.82 155.88 120.82 158.97C120.82 162.06 119.24 163.86 117.07 163.86C114.9 163.86 113.34 162.04 113.34 158.97ZM118.67 158.97C118.67 156.71 117.96 155.84 117.07 155.84C116.18 155.84 115.47 156.71 115.47 158.97C115.47 161.23 116.18 162.12 117.07 162.12C117.96 162.12 118.67 161.23 118.67 158.97Z" fill="#D95F28"/>
<path opacity="0.2" d="M112.41 88.61H43.0199C36.0335 88.61 30.3699 94.2736 30.3699 101.26C30.3699 108.246 36.0335 113.91 43.0199 113.91H112.41C119.396 113.91 125.06 108.246 125.06 101.26C125.06 94.2736 119.396 88.61 112.41 88.61Z" fill="#D95F28"/>
<path opacity="0.2" d="M112.41 142.97H43.0199C36.0335 142.97 30.3699 148.634 30.3699 155.62C30.3699 162.606 36.0335 168.27 43.0199 168.27H112.41C119.396 168.27 125.06 162.606 125.06 155.62C125.06 148.634 119.396 142.97 112.41 142.97Z" fill="#D95F28"/>
</svg>
