<svg width="140" height="129" viewBox="0 0 140 129" fill="none" xmlns="http://www.w3.org/2000/svg">
<path d="M17.9129 127.092C8.63616 127.092 1.09326 119.494 1.09326 110.151V31.2099C1.09326 21.8668 8.63616 14.2687 17.9129 14.2687H60.1996L68.9242 1.57937C69.134 1.28118 69.4765 1.10449 69.8299 1.10449C70.1833 1.10449 70.5366 1.28118 70.7354 1.57937L79.46 14.2687H121.747C131.024 14.2687 138.566 21.8668 138.566 31.2099V110.151C138.566 119.494 131.024 127.092 121.747 127.092H17.9129Z" fill="#FFECE3"/>
<path d="M69.841 2.20876L78.8968 15.373H121.758C130.438 15.373 137.473 22.4631 137.473 31.2098V110.151C137.473 118.898 130.438 125.988 121.758 125.988H17.9241C9.24364 125.988 2.20876 118.898 2.20876 110.151V31.2098C2.20876 22.4631 9.24364 15.373 17.9241 15.373H60.785L69.841 2.20876ZM69.841 0C69.1121 0 68.4384 0.353396 68.0187 0.960805L59.6255 13.1752H17.9241C8.03987 13.1752 0 21.2703 0 31.2208V110.162C0 120.112 8.03987 128.207 17.9241 128.207H121.758C131.642 128.207 139.682 120.112 139.682 110.162V31.2208C139.682 21.2703 131.642 13.1752 121.758 13.1752H80.0565L71.6631 0.960805C71.2545 0.36444 70.5699 0 69.841 0Z" fill="#EA5404"/>
</svg>
