<svg width="140" height="129" viewBox="0 0 140 129" fill="none" xmlns="http://www.w3.org/2000/svg">
<path d="M69.841 127.092C69.4765 127.092 69.1342 126.915 68.9354 126.617L60.2108 113.928H17.9241C8.64728 113.928 1.10437 106.33 1.10437 96.9868V18.0457C1.10437 8.70263 8.64728 1.10449 17.9241 1.10449H121.758C131.035 1.10449 138.578 8.70263 138.578 18.0457V96.9868C138.578 106.33 131.035 113.928 121.758 113.928H79.4712L70.7466 126.617C70.5367 126.915 70.2054 127.092 69.841 127.092Z" fill="#FFECE3"/>
<path d="M121.758 2.20876C130.438 2.20876 137.473 9.29888 137.473 18.0456V96.9867C137.473 105.733 130.438 112.823 121.758 112.823H78.8969L69.841 125.988L60.7851 112.823H17.9241C9.24366 112.823 2.20876 105.733 2.20876 96.9867V18.0456C2.20876 9.29888 9.24366 2.20876 17.9241 2.20876H121.758ZM121.758 0H17.9241C8.03988 0 0 8.09511 0 18.0456V96.9867C0 106.937 8.03988 115.032 17.9241 115.032H59.6255L68.0188 127.247C68.4274 127.843 69.1121 128.207 69.841 128.207C70.5699 128.207 71.2435 127.854 71.6632 127.247L80.0565 115.032H121.758C131.642 115.032 139.682 106.937 139.682 96.9867V18.0456C139.682 8.09511 131.642 0 121.758 0Z" fill="#EA5404"/>
</svg>
