<svg width="156" height="181" viewBox="0 0 156 181" fill="none" xmlns="http://www.w3.org/2000/svg">
<path d="M59.53 17.2925H20.13C9.55997 17.2925 1 26.3425 1 37.5025V159.183C1 170.343 9.56997 179.393 20.13 179.393H135.31C145.88 179.393 154.44 170.343 154.44 159.183V37.5025C154.44 26.3425 145.87 17.2925 135.31 17.2925H91.1L80.82 2.6725C79.25 0.4425 76.09 0.4425 74.52 2.6725L64.24 17.2925H59.53Z" fill="#FCEDE4" stroke="#D95F28" stroke-width="2" stroke-linejoin="round"/>
<path opacity="0.2" d="M112.42 87.6825H43.0299C36.0435 87.6825 30.3799 93.3461 30.3799 100.333C30.3799 107.319 36.0435 112.982 43.0299 112.982H112.42C119.406 112.982 125.07 107.319 125.07 100.333C125.07 93.3461 119.406 87.6825 112.42 87.6825Z" fill="#D95F28"/>
<path opacity="0.2" d="M112.42 142.032H43.0299C36.0435 142.032 30.3799 147.696 30.3799 154.682C30.3799 161.669 36.0435 167.333 43.0299 167.333H112.42C119.406 167.333 125.07 161.669 125.07 154.682C125.07 147.696 119.406 142.032 112.42 142.032Z" fill="#D95F28"/>
<path d="M116.19 27.2425H39.2399C31.4914 27.2425 25.21 33.5239 25.21 41.2725C25.21 49.021 31.4914 55.3025 39.2399 55.3025H116.19C123.938 55.3025 130.22 49.021 130.22 41.2725C130.22 33.5239 123.938 27.2425 116.19 27.2425Z" fill="#D95F28"/>
<path d="M43.95 42.8125C43.22 43.0225 42.48 43.2225 41.73 43.4325V47.7325C41.73 48.8925 41.52 49.4725 40.84 49.8125C40.18 50.1825 39.24 50.2525 37.89 50.2325C37.81 49.6325 37.52 48.6925 37.22 48.0525C37.97 48.0925 38.7599 48.0925 39.0099 48.0925C39.2799 48.0925 39.3799 47.9925 39.3799 47.7225V44.0425L37.16 44.6425L36.7 42.4025C37.45 42.2525 38.3999 42.0325 39.3799 41.8025V37.6325H36.95V35.5125H39.3799V32.2725H41.73V35.5125H43.64V37.6325H41.73V41.2225C42.39 41.0525 43.0399 40.8725 43.6799 40.7025L43.95 42.8025V42.8125ZM53.8799 33.8425V49.5425H51.47V48.0725H46.8199V49.6925H44.53V33.8425H53.8799ZM51.47 45.9225V36.0325H46.8199V45.9225H51.47Z" fill="white"/>
<path d="M61.09 44.7425C60.78 46.3825 60.18 47.9825 59.45 49.0425C59.07 48.7725 58.22 48.3725 57.73 48.1725C58.46 47.2425 58.94 45.8025 59.2 44.4125L61.09 44.7425ZM63.91 44.0525V48.1425C63.91 49.0925 63.77 49.6325 63.14 49.9325C62.52 50.2625 61.7499 50.3025 60.6899 50.3025C60.6099 49.6825 60.34 48.8725 60.09 48.3125C60.67 48.3325 61.3 48.3325 61.52 48.3325C61.71 48.3325 61.77 48.2725 61.77 48.0825V44.0525H58.05V42.1625H67.52V44.0525H63.91ZM61.7499 35.6825H58.3V33.8125H61.7499V32.3825H63.89V33.8125H67.28V35.6825H63.89V36.6625H66.86V38.5125H58.7599V36.6625H61.7499V35.6825ZM72.42 39.8425C72.42 41.7325 73.1499 45.9525 76.2599 48.2725C75.8499 48.7725 75.2199 49.7025 74.8699 50.2825C72.6299 48.6625 71.5699 45.3825 71.3199 43.7225C71.0699 45.4225 69.85 48.5625 67.29 50.2825C67.06 49.7825 66.4 48.8125 66.04 48.3725C69.51 46.0225 70.21 41.7925 70.21 39.8425V37.8225H69.84C69.42 39.2925 68.88 40.5825 68.22 41.6025C67.93 41.2925 67.2699 40.7925 66.7499 40.4425V41.2725H58.8799V39.4225H66.7499C67.7299 37.5725 68.29 34.9325 68.6 32.2525L70.89 32.5625C70.76 33.6425 70.58 34.7225 70.35 35.7425H74.11L74.46 35.6625L75.98 36.0725C75.75 37.9225 75.38 40.0625 75.02 41.4725L73.23 40.9325C73.38 40.1225 73.54 38.9625 73.65 37.8325H72.42V39.8525V39.8425ZM66.1299 44.3725C66.6099 45.2225 67.1299 46.3625 67.3099 47.0925L65.52 47.8425C65.35 47.1325 64.8799 45.9125 64.4399 45.0425L66.14 44.3725H66.1299Z" fill="white"/>
<path d="M97.17 39.8425V42.3325H79.4299V39.8425H97.17Z" fill="white"/>
<path d="M118.33 46.1725H111.73V50.3025H109.36V46.1725H100.68V43.9725H103.73V38.9225H109.36V36.6125H105.23C104.44 37.9825 103.51 39.2125 102.61 40.1225C102.17 39.7325 101.18 38.9625 100.62 38.6325C102.36 37.1625 103.84 34.7025 104.67 32.2125L107 32.8125C106.83 33.3525 106.61 33.8725 106.36 34.3925H117.26V36.6125H111.72V38.9225H116.81V41.0425H111.72V43.9725H118.32V46.1725H118.33ZM109.36 43.9725V41.0425H106.02V43.9725H109.36Z" fill="white"/>
<path d="M43.62 74.2325L41.6 74.8125V79.1525C41.6 79.9225 41.44 80.3325 40.97 80.5525C40.49 80.7825 39.79 80.8225 38.71 80.8125C38.66 80.4425 38.45 79.8225 38.27 79.4425C38.95 79.4725 39.61 79.4725 39.8 79.4625C40.03 79.4625 40.11 79.4025 40.11 79.1525V75.2425C39.42 75.4525 38.75 75.6325 38.16 75.7925L37.77 74.3425C38.42 74.1825 39.22 74.0025 40.11 73.7625V70.5525H38V69.1625H40.11V66.0325H41.6V69.1625H43.36V70.5525H41.6V73.3425C42.2 73.1825 42.81 73.0225 43.42 72.8425L43.61 74.2325H43.62ZM44.3 73.6925H51.95V80.7325H50.46V80.0825H45.71V80.8125H44.29V73.6925H44.3ZM50.24 71.1825C51.08 71.1825 51.21 70.8925 51.32 69.2425C51.66 69.4825 52.29 69.6925 52.68 69.7925C52.49 71.9725 52.03 72.5325 50.34 72.5325H46.87C44.85 72.5325 44.32 72.0925 44.32 70.5125V66.0525H45.81V68.3325C47.59 67.9425 49.46 67.3925 50.6 66.8625L51.71 67.9625C50.1 68.6225 47.82 69.1725 45.8 69.5425V70.5125C45.8 71.0725 45.99 71.1725 46.98 71.1725H50.24V71.1825ZM45.72 74.9425V76.3025H50.47V74.9425H45.72ZM50.47 78.8825V77.4825H45.72V78.8825H50.47Z" fill="#494949"/>
<path d="M67.99 70.3425C67.67 72.8425 67.15 74.9625 66.29 76.7025C66.97 77.9825 67.84 79.0125 68.97 79.6725C68.63 79.9325 68.18 80.4825 67.95 80.8525C66.93 80.1725 66.11 79.2525 65.45 78.1425C64.69 79.2225 63.75 80.1325 62.56 80.8925C62.43 80.6025 62.03 80.0025 61.75 79.7125L60.85 80.6125C60.38 80.2725 59.77 79.9225 59.09 79.5625C58.07 80.1925 56.73 80.5925 55.01 80.8825C54.93 80.5125 54.7 80.0125 54.46 79.7225C55.82 79.5725 56.91 79.3325 57.77 78.9325C57.35 78.7525 56.91 78.5625 56.48 78.4025L56.27 78.7425L55.04 78.4225C55.33 77.9825 55.67 77.4325 55.99 76.8425L54.12 76.8725L54.07 75.7225C54.81 75.7225 55.68 75.7225 56.62 75.7025C56.78 75.4125 56.93 75.1425 57.06 74.8625H54.75V72.0525H57.69V71.4225H55.12V69.7125H54.05V68.6125H55.12V66.9125H57.69V66.0125H58.98V66.9125H61.71V68.6125H62.81V69.7125H61.71V71.4225H58.98V72.0525H62.06V72.7125C63.01 70.9825 63.58 68.5125 63.92 65.9925L65.36 66.2225C65.23 67.1625 65.07 68.0625 64.86 68.9525H68.88V70.3425H67.99ZM56.01 73.8925H57.69V73.0225H56.01V73.8925ZM56.36 67.9025V68.6725H57.68V67.9025H56.36ZM57.69 70.4225V69.6325H56.37V70.4225H57.69ZM57.04 77.4425C57.67 77.6725 58.3 77.9225 58.91 78.1825C59.31 77.7925 59.64 77.3225 59.86 76.7625L57.41 76.8125L57.04 77.4425ZM61.21 76.7325C60.98 77.5425 60.61 78.2025 60.11 78.7325C60.74 79.0425 61.31 79.3425 61.74 79.6325C63.05 78.8925 64.02 77.9025 64.73 76.6825C64.26 75.5725 63.89 74.2925 63.6 72.9225C63.36 73.4425 63.1 73.9225 62.83 74.3425C62.68 74.1625 62.36 73.8225 62.07 73.5625V74.8525H58.49C58.36 75.1125 58.22 75.4025 58.05 75.6725C59.58 75.6525 61.25 75.6425 62.88 75.6125L62.83 76.6925L61.21 76.7225V76.7325ZM58.98 67.9025V68.6725H60.38V67.9025H58.98ZM60.38 70.4225V69.6325H58.98V70.4225H60.38ZM58.98 73.0225V73.8925H60.76V73.0225H58.98ZM64.52 70.3425L64.47 70.5025C64.71 72.1125 65.05 73.6325 65.54 74.9725C66.04 73.6325 66.36 72.1025 66.57 70.3425H64.52Z" fill="#494949"/>
<path d="M74.58 70.2225H77.4V71.5025H75.9L76.59 71.6825C76.32 72.3625 76.02 73.0725 75.77 73.5925H77.21V74.8825H74.58V76.4025H76.9999V77.6825H74.58V80.8025H73.17V77.6825H70.64V76.4025H73.17V74.8825H70.4899V73.5925H71.89C71.81 73.0425 71.57 72.2825 71.28 71.6825L71.9399 71.5025H70.21V70.2225H73.16V68.8225H70.79V67.5625H73.16V66.0425H74.5699V67.5625H76.8V68.8225H74.5699V70.2225H74.58ZM74.61 73.4425C74.84 72.8925 75.13 72.0825 75.29 71.5025H72.4999C72.7899 72.1325 73.0699 72.9225 73.1299 73.4425L72.6 73.5925H75.17L74.6199 73.4425H74.61ZM84.6299 72.4525C84.3099 74.3725 83.6899 76.1825 82.8099 77.7125C83.4999 78.5225 84.31 79.1825 85.22 79.6325C84.9 79.9025 84.44 80.4525 84.22 80.8225C83.4 80.3425 82.6499 79.6925 81.9899 78.9225C81.4299 79.6625 80.76 80.3125 80.02 80.8425C79.83 80.5725 79.5 80.2125 79.2 79.9725V80.8325H77.84V66.7225H84.2599V69.7725C84.2599 70.4625 84.11 70.8525 83.55 71.0625C83.02 71.2725 82.19 71.2725 80.98 71.2725C80.92 70.8825 80.72 70.3325 80.53 69.9825C81.45 70.0125 82.31 70.0125 82.55 70.0025C82.79 69.9825 82.86 69.9425 82.86 69.7625V68.0525H79.1899V72.1825H83.47L83.71 72.1225L84.6299 72.4625V72.4525ZM79.1899 79.7025C79.9299 79.1825 80.56 78.5225 81.11 77.7625C80.29 76.4825 79.6599 75.0025 79.1899 73.4025V79.7025ZM80.45 73.4025C80.81 74.5025 81.29 75.5525 81.89 76.5025C82.41 75.5325 82.78 74.4825 83.04 73.4025H80.46H80.45Z" fill="#494949"/>
<path d="M90.7399 69.7425H92.3099V80.5125H91.1999V79.6925H87.7499V80.7425H86.6799V69.7525H88.1799V67.9125H86.4199V66.7125H92.5199V67.9125H90.7399V69.7525V69.7425ZM90.6099 74.4225C89.9499 74.4225 89.7499 74.2425 89.7499 73.4025V70.9625H89.1199V72.3025C89.1199 73.2225 88.9599 74.4525 88.1499 75.2925C88.0499 75.1925 87.8899 75.0225 87.7299 74.9025V76.0025H91.1799V74.4225H90.5999H90.6099ZM87.7399 70.9725V74.6225C88.2999 73.9125 88.3999 73.0425 88.3999 72.2925V70.9725H87.7399ZM91.1899 78.5125V77.1025H87.7399V78.5125H91.1899ZM89.1299 69.7425H89.7599V67.9025H89.1299V69.7425ZM91.1899 70.9725H90.5099V73.3925C90.5099 73.6025 90.5399 73.6225 90.6899 73.6225H91.1899V70.9725ZM94.0699 70.8725C93.9599 72.2925 93.7499 74.0525 93.1699 75.1525L92.3599 74.4725C92.8599 73.5825 93.0899 72.0025 93.1799 70.6425L94.0699 70.8725ZM100.61 66.3525V80.8325H99.3499V74.3625L98.7499 74.6825C98.6199 73.9425 98.2799 72.8925 97.9299 71.9325V80.4425H96.6999V74.4025L96.0099 74.7425C95.9499 73.9225 95.6699 72.7525 95.3499 71.7425V72.7625C95.3499 75.7625 95.1599 78.6525 93.6399 80.9025C93.3999 80.6425 92.8799 80.2925 92.5399 80.1125C93.9599 78.0925 94.1399 75.5125 94.1399 72.7725V66.3925H95.3499V71.1425L96.0299 70.8225C96.2899 71.4825 96.5299 72.2725 96.7099 72.9825V66.6525H97.9399V70.9325L98.4699 70.6725C98.8099 71.3625 99.1199 72.1525 99.3599 72.9125V66.3625H100.62L100.61 66.3525Z" fill="#494949"/>
<path d="M106.39 74.1525C105.34 74.6525 104.26 75.1525 103.37 75.5525L102.64 74.3225C103.66 73.9825 105.19 73.3725 106.68 72.7525L106.95 73.8825L106.68 74.0125L107.7 73.9625C108.05 73.6225 108.44 73.2325 108.83 72.8325C108.2 72.2825 107.3 71.6225 106.55 71.1325L107.28 70.2925C107.43 70.3725 107.55 70.4525 107.72 70.5525C108.06 70.0825 108.41 69.5325 108.69 69.0625H103.27V67.6925H109.1V66.0025H110.65V67.6925H116.64V69.0625H109.84L110.18 69.1925C109.68 69.8525 109.1 70.5625 108.61 71.1325C108.98 71.3925 109.35 71.6625 109.66 71.9125C110.26 71.2225 110.82 70.5225 111.24 69.9125L112.43 70.4625C111.48 71.5725 110.32 72.8525 109.22 73.9025L111.5 73.7925C111.26 73.4225 110.98 73.0525 110.73 72.7225L111.81 72.2525C112.08 72.5925 112.39 72.9625 112.67 73.3525L113.59 72.6125C114.78 73.1925 116.33 74.1025 117.14 74.7425L116.03 75.6825C115.35 75.0725 113.96 74.1825 112.8 73.5625C113.2 74.1325 113.54 74.7125 113.72 75.1625L112.57 75.7225C112.47 75.4625 112.33 75.1725 112.15 74.8525C110.15 75.0125 108.16 75.1625 106.61 75.2725L106.4 74.1425L106.39 74.1525ZM110.63 76.3725H117.09V77.7625H110.63V80.8425H109.08V77.7625H102.75V76.3725H109.08V75.2125H110.63V76.3725ZM104.16 69.6125C105.03 70.0625 106.15 70.7925 106.7 71.3125L105.65 72.2125C105.13 71.6925 104.04 70.9325 103.18 70.4225L104.16 69.6125ZM112.86 71.4525C113.62 70.9225 114.64 70.0425 115.2 69.4225L116.54 70.0825C115.73 70.8225 114.73 71.5725 113.96 72.0525L112.86 71.4525Z" fill="#494949"/>
<path d="M29.9299 133.453C30.6399 133.553 31.3999 133.592 32.2099 133.592C32.8999 133.592 35.6199 133.592 36.5399 133.562C36.2999 133.923 36.0399 134.643 35.9799 135.083H32.1399C28.9799 135.083 26.6499 134.553 25.1799 132.013C24.6499 133.383 23.8999 134.512 22.8999 135.372C22.6599 135.102 22.0299 134.582 21.6599 134.342C23.4399 133.022 24.2599 130.762 24.5999 127.932L26.1499 128.083C26.0499 128.823 25.9199 129.533 25.7599 130.193C26.3299 131.693 27.2299 132.552 28.3899 133.032V126.773H24.6599V125.333H33.7499V126.773H29.9399V129.143H34.5599V130.542H29.9399V133.453H29.9299ZM23.9099 125.932H22.4399V122.222H28.3499V120.492H29.9499V122.222H35.9199V125.932H34.3899V123.643H23.9099V125.932Z" fill="#494949"/>
<path d="M41.4398 132.062C40.8598 133.273 39.9199 134.512 39.0499 135.312C38.7899 135.053 38.2099 134.632 37.8599 134.422C38.7299 133.732 39.5598 132.692 40.0198 131.672L41.4398 132.062ZM45.7698 131.422H37.9099V130.112H39.4099V123.812H38.0999V122.503H39.4099V120.643H40.7698V122.503H43.2899V120.643H44.6798V122.503H45.8398V123.812H44.6798V130.112H45.7798V131.422H45.7698ZM40.7698 123.812V125.023H43.2899V123.812H40.7698ZM40.7698 127.542H43.2899V126.203H40.7698V127.542ZM40.7698 130.112H43.2899V128.722H40.7698V130.112ZM43.4898 131.633C44.1198 132.363 44.8999 133.342 45.2299 133.992L44.0198 134.722C43.6998 134.072 42.9498 133.023 42.3398 132.273L43.4898 131.643V131.633ZM52.2098 133.523C52.2098 134.313 52.0298 134.752 51.5298 134.972C51.0498 135.232 50.2698 135.262 49.0798 135.242C49.0298 134.852 48.8398 134.193 48.6398 133.823C49.3998 133.853 50.2099 133.842 50.4199 133.842C50.6599 133.822 50.7598 133.763 50.7598 133.503V129.922H47.7899C47.6099 131.842 47.2199 133.892 46.2999 135.362C46.0599 135.092 45.4299 134.653 45.0999 134.503C46.3799 132.393 46.4898 129.372 46.4898 127.062V121.253H52.1998V133.523H52.2098ZM50.7598 128.562V126.203H47.9199V127.062C47.9199 127.532 47.9198 128.053 47.8898 128.562H50.7598ZM47.9199 122.602V124.883H50.7598V122.602H47.9199Z" fill="#494949"/>
<path d="M62.22 133.453C62.93 133.553 63.6899 133.592 64.4999 133.592C65.1899 133.592 67.91 133.592 68.83 133.562C68.59 133.923 68.33 134.643 68.27 135.083H64.4299C61.2699 135.083 58.94 134.553 57.47 132.013C56.94 133.383 56.1899 134.512 55.1899 135.372C54.9499 135.102 54.32 134.582 53.95 134.342C55.73 133.022 56.55 130.762 56.89 127.932L58.4399 128.083C58.3399 128.823 58.21 129.533 58.05 130.193C58.62 131.693 59.5199 132.552 60.6799 133.032V126.773H56.95V125.333H66.04V126.773H62.23V129.143H66.85V130.542H62.23V133.453H62.22ZM56.2 125.932H54.73V122.222H60.64V120.492H62.2399V122.222H68.21V125.932H66.6799V123.643H56.2V125.932Z" fill="#494949"/>
<path d="M76.27 134.213C77.38 133.793 78.61 133.033 79.21 132.393L80.45 133.153C79.61 133.973 78.25 134.813 77.09 135.263C76.85 134.993 76.41 134.552 76.11 134.282H72.61V135.013H71.33V130.703C71.14 130.783 70.9399 130.883 70.7499 130.963C70.5899 130.643 70.23 130.153 69.97 129.883C71.12 129.463 72.2499 128.782 73.1799 127.932C72.7299 127.592 72.28 127.272 71.86 126.982C71.57 127.252 71.28 127.512 70.97 127.742C70.78 127.502 70.2799 127.062 69.9999 126.852C71.2399 126.042 72.3399 124.772 72.9399 123.362L74.1799 123.682C74.0499 123.972 73.9099 124.262 73.7399 124.542H75.5599L75.79 124.482L76.65 124.872C76.28 125.952 75.7299 126.922 75.0699 127.742C75.9699 128.402 76.81 129.052 77.36 129.552L76.4899 130.583L76.2599 130.372V134.232L76.27 134.213ZM71.67 124.302H70.4399V121.862H73.1V120.503H74.4999V121.862H77.1799V124.302H75.9V123.073H71.65V124.302H71.67ZM75.8699 130.003C75.3999 129.603 74.82 129.142 74.21 128.682C73.71 129.182 73.14 129.623 72.55 130.003H75.8799H75.8699ZM74.97 131.162H72.61V133.112H74.97V131.162ZM73.08 125.573C72.95 125.753 72.8199 125.913 72.6899 126.073C73.1299 126.363 73.5899 126.672 74.0599 126.992C74.4099 126.552 74.74 126.073 74.98 125.573H73.0699H73.08ZM79.95 123.802C80.05 123.382 80.14 122.903 80.22 122.463H77.3099V121.172H84.77V122.463H81.8199C81.6699 122.913 81.5099 123.382 81.3699 123.802H84.39V132.182H77.8699V123.802H79.95ZM82.97 124.953H79.22V126.263H82.97V124.953ZM82.97 127.323H79.22V128.643H82.97V127.323ZM82.97 129.713H79.22V131.052H82.97V129.713ZM82.6 132.472C83.5 133.052 84.68 133.923 85.28 134.523L84.1199 135.312C83.5599 134.733 82.4099 133.792 81.4999 133.162L82.6 132.472Z" fill="#494949"/>
<path d="M90.7299 124.693H93.5599V125.972H92.0599L92.7499 126.153C92.4799 126.833 92.1899 127.543 91.9299 128.062H93.3699V129.352H90.7399V130.872H93.1599V132.153H90.7399V135.273H89.3399V132.153H86.7999V130.872H89.3399V129.352H86.6599V128.062H88.0599C87.9799 127.512 87.7399 126.753 87.4499 126.153L88.1099 125.972H86.3799V124.693H89.3299V123.292H86.9599V122.032H89.3299V120.513H90.7299V122.032H92.9599V123.292H90.7299V124.693ZM90.7599 127.903C90.9899 127.353 91.2799 126.543 91.4399 125.963H88.6499C88.9399 126.593 89.2199 127.383 89.2799 127.903L88.7499 128.052H91.3199L90.7699 127.903H90.7599ZM100.78 126.912C100.46 128.832 99.8399 130.642 98.9599 132.172C99.6499 132.982 100.46 133.642 101.37 134.092C101.05 134.362 100.6 134.912 100.37 135.282C99.5499 134.802 98.7999 134.153 98.1399 133.383C97.5699 134.123 96.9099 134.772 96.1699 135.302C95.9799 135.032 95.6499 134.672 95.3499 134.432V135.292H93.9899V121.182H100.42V124.232C100.42 124.922 100.27 125.313 99.7099 125.523C99.1799 125.733 98.3499 125.732 97.1399 125.732C97.0799 125.342 96.8799 124.793 96.6899 124.443C97.6099 124.473 98.4699 124.473 98.7099 124.463C98.9499 124.443 99.0199 124.402 99.0199 124.222V122.513H95.3499V126.643H99.6299L99.8699 126.583L100.79 126.922L100.78 126.912ZM95.3399 134.162C96.0799 133.642 96.7099 132.982 97.2599 132.222C96.4399 130.942 95.8099 129.462 95.3399 127.862V134.162ZM96.5999 127.872C96.9599 128.972 97.4399 130.022 98.0399 130.972C98.5599 130.002 98.9299 128.952 99.1899 127.872H96.6099H96.5999Z" fill="#494949"/>
<path d="M106.89 124.203H108.46V134.972H107.35V134.153H103.89V135.203H102.82V124.213H104.32V122.372H102.56V121.172H108.66V122.372H106.88V124.213L106.89 124.203ZM106.76 128.883C106.1 128.883 105.9 128.702 105.9 127.862V125.422H105.27V126.763C105.27 127.683 105.11 128.913 104.3 129.753C104.2 129.653 104.04 129.482 103.88 129.362V130.463H107.34V128.883H106.76ZM103.89 125.432V129.083C104.46 128.373 104.55 127.503 104.55 126.753V125.432H103.89ZM107.34 132.972V131.562H103.88V132.972H107.34ZM105.28 124.203H105.91V122.362H105.28V124.203ZM107.34 125.432H106.66V127.852C106.66 128.062 106.69 128.083 106.84 128.083H107.34V125.432ZM110.22 125.333C110.11 126.753 109.9 128.512 109.32 129.612L108.51 128.932C109.01 128.042 109.24 126.462 109.33 125.102L110.22 125.333ZM116.75 120.812V135.292H115.49V128.823L114.89 129.143C114.76 128.403 114.42 127.353 114.07 126.393V134.903H112.84V128.862L112.15 129.203C112.09 128.383 111.81 127.213 111.49 126.203V127.222C111.49 130.222 111.3 133.112 109.78 135.362C109.54 135.102 109.02 134.753 108.68 134.573C110.1 132.553 110.28 129.972 110.28 127.232V120.852H111.49V125.602L112.17 125.282C112.43 125.942 112.67 126.733 112.85 127.443V121.112H114.08V125.393L114.61 125.133C114.95 125.823 115.26 126.612 115.5 127.372V120.823H116.76L116.75 120.812Z" fill="#494949"/>
<path d="M122.54 128.612C121.49 129.112 120.41 129.613 119.52 130.013L118.79 128.782C119.81 128.442 121.34 127.833 122.83 127.213L123.1 128.342L122.83 128.472L123.85 128.422C124.21 128.082 124.59 127.692 124.98 127.292C124.35 126.742 123.45 126.082 122.7 125.592L123.43 124.753C123.58 124.833 123.7 124.913 123.87 125.013C124.21 124.543 124.56 123.993 124.84 123.523H119.42V122.153H125.25V120.463H126.8V122.153H132.79V123.523H125.99L126.33 123.653C125.83 124.313 125.25 125.022 124.76 125.592C125.13 125.852 125.5 126.122 125.81 126.372C126.41 125.682 126.97 124.982 127.39 124.372L128.59 124.922C127.64 126.032 126.47 127.312 125.38 128.362L127.66 128.253C127.42 127.883 127.14 127.512 126.88 127.182L127.96 126.713C128.23 127.053 128.54 127.423 128.82 127.812L129.74 127.073C130.94 127.653 132.49 128.563 133.29 129.203L132.18 130.143C131.5 129.533 130.11 128.643 128.95 128.023C129.35 128.593 129.69 129.172 129.87 129.622L128.72 130.182C128.62 129.922 128.48 129.632 128.3 129.312C126.3 129.472 124.31 129.622 122.76 129.732L122.55 128.602L122.54 128.612ZM126.78 130.842H133.24V132.232H126.78V135.312H125.23V132.232H118.9V130.842H125.23V129.682H126.78V130.842ZM120.31 124.073C121.18 124.523 122.3 125.253 122.84 125.773L121.79 126.672C121.27 126.152 120.18 125.393 119.32 124.883L120.31 124.073ZM129.01 125.912C129.77 125.382 130.79 124.503 131.35 123.883L132.69 124.542C131.88 125.282 130.88 126.033 130.11 126.513L129.01 125.912Z" fill="#494949"/>
<path d="M34.8 101.172H40.46V103.352H34.8V101.172Z" fill="#D95F28"/>
<path d="M42.35 106.432C46.52 102.702 48.9899 99.8125 48.9899 97.4525C48.9899 95.9025 48.1399 94.9625 46.6899 94.9625C45.5699 94.9625 44.6399 95.6925 43.8699 96.5425L42.21 94.8825C43.62 93.3925 44.99 92.5625 47.08 92.5625C49.98 92.5625 51.91 94.4325 51.91 97.2925C51.91 100.152 49.6099 103.062 46.8099 105.792C47.5799 105.712 48.59 105.622 49.3 105.622H52.64V108.193H42.35V106.432Z" fill="#D95F28"/>
<path d="M54.21 106.352L55.64 104.422C56.55 105.312 57.6699 106.003 59.0599 106.003C60.6199 106.003 61.67 105.232 61.67 103.862C61.67 102.352 60.7799 101.412 57.4399 101.412V99.2125C60.2599 99.2125 61.17 98.2425 61.17 96.8725C61.17 95.6725 60.4199 94.9625 59.1199 94.9425C58.0199 94.9625 57.13 95.4825 56.22 96.3125L54.67 94.4425C56 93.2825 57.47 92.5525 59.27 92.5525C62.23 92.5525 64.2499 94.0025 64.2499 96.6325C64.2499 98.2925 63.3199 99.4925 61.6799 100.133V100.232C63.4199 100.712 64.7499 101.993 64.7499 104.003C64.7499 106.823 62.28 108.463 59.36 108.463C56.93 108.463 55.3 107.553 54.22 106.323L54.21 106.352Z" fill="#D95F28"/>
<path d="M67.3501 106.503C67.3501 105.383 68.1601 104.513 69.2401 104.513C70.3201 104.513 71.1501 105.383 71.1501 106.503C71.1501 107.623 70.3401 108.492 69.2401 108.492C68.1401 108.492 67.3501 107.623 67.3501 106.503Z" fill="#D95F28"/>
<path d="M82.1299 96.1325C81.5899 95.5125 80.6599 95.0125 79.7699 95.0125C78.0099 95.0125 76.5599 96.3425 76.4299 100.172C77.2599 99.1525 78.5899 98.5325 79.5799 98.5325C82.1499 98.5325 83.9799 100.062 83.9799 103.362C83.9799 106.662 81.7799 108.482 79.1699 108.482C76.2499 108.482 73.6499 106.142 73.6499 100.722C73.6499 95.0025 76.4899 92.5525 79.5799 92.5525C81.4499 92.5525 82.8199 93.3425 83.7499 94.2925L82.1299 96.1125V96.1325ZM81.1799 103.372C81.1799 101.552 80.3299 100.703 78.9999 100.703C78.1699 100.703 77.2599 101.143 76.4899 102.323C76.7799 105.123 77.8199 106.203 79.0999 106.203C80.2399 106.203 81.1699 105.253 81.1699 103.383L81.1799 103.372Z" fill="#D95F28"/>
<path d="M87.5001 104.922C88.0601 105.522 89.0101 106.003 89.9301 106.003C91.6501 106.003 93.0801 104.692 93.2101 100.842C92.4201 101.882 91.1201 102.523 90.0601 102.523C87.5101 102.523 85.6602 100.943 85.6602 97.6925C85.6602 94.4425 87.8601 92.5725 90.4901 92.5725C93.3901 92.5725 96.0101 94.8525 96.0101 100.182C96.0101 105.992 93.1701 108.503 90.1201 108.503C88.2101 108.503 86.8202 107.693 85.9102 106.763L87.5101 104.943L87.5001 104.922ZM93.1602 98.7025C92.8902 95.9025 91.8302 94.8625 90.5302 94.8625C89.3902 94.8625 88.4601 95.7925 88.4601 97.6825C88.4601 99.5725 89.3101 100.333 90.6401 100.333C91.4701 100.333 92.4202 99.8725 93.1702 98.6925L93.1602 98.7025Z" fill="#D95F28"/>
<path d="M102.4 97.3925C102.4 94.3225 103.94 92.5625 106.13 92.5625C108.32 92.5625 109.88 94.3225 109.88 97.3925C109.88 100.463 108.32 102.282 106.13 102.282C103.94 102.282 102.4 100.483 102.4 97.3925ZM107.73 97.3925C107.73 95.1325 107.03 94.2825 106.13 94.2825C105.23 94.2825 104.55 95.1325 104.55 97.3925C104.55 99.6525 105.23 100.562 106.13 100.562C107.03 100.562 107.73 99.6525 107.73 97.3925ZM114.99 92.5625H116.79L108.43 108.492H106.65L114.99 92.5625ZM113.56 103.592C113.56 100.502 115.12 98.7425 117.29 98.7425C119.46 98.7425 121.04 100.502 121.04 103.592C121.04 106.682 119.46 108.482 117.29 108.482C115.12 108.482 113.56 106.652 113.56 103.592ZM118.89 103.592C118.89 101.332 118.18 100.463 117.29 100.463C116.4 100.463 115.69 101.332 115.69 103.592C115.69 105.852 116.4 106.742 117.29 106.742C118.18 106.742 118.89 105.852 118.89 103.592Z" fill="#D95F28"/>
<path d="M39.1199 160.083H42.4199V150.372H39.6399V148.482C41.1699 148.192 42.2299 147.803 43.2099 147.193H45.4699V160.073H48.3499V162.542H39.1199V160.073V160.083Z" fill="#D95F28"/>
<path d="M50.54 154.823C50.54 149.513 52.61 146.922 55.75 146.922C58.89 146.922 60.93 149.533 60.93 154.823C60.93 160.113 58.86 162.842 55.75 162.842C52.64 162.842 50.54 160.103 50.54 154.823ZM58.05 154.823C58.05 150.533 57.05 149.282 55.75 149.282C54.45 149.282 53.43 150.523 53.43 154.823C53.43 159.123 54.43 160.463 55.75 160.463C57.07 160.463 58.05 159.133 58.05 154.823Z" fill="#D95F28"/>
<path d="M63.3098 160.852C63.3098 159.732 64.1198 158.862 65.1998 158.862C66.2798 158.862 67.1099 159.732 67.1099 160.852C67.1099 161.972 66.2998 162.842 65.1998 162.842C64.0998 162.842 63.3098 161.972 63.3098 160.852Z" fill="#D95F28"/>
<path d="M71.2499 159.273C71.8099 159.873 72.7599 160.352 73.6799 160.352C75.3999 160.352 76.8299 159.043 76.9599 155.193C76.1699 156.233 74.8699 156.872 73.8099 156.872C71.2599 156.872 69.4099 155.292 69.4099 152.042C69.4099 148.792 71.6099 146.922 74.2399 146.922C77.1399 146.922 79.7599 149.202 79.7599 154.532C79.7599 160.342 76.9199 162.852 73.8699 162.852C71.9599 162.852 70.5699 162.042 69.6599 161.112L71.2599 159.282L71.2499 159.273ZM76.9099 153.052C76.6399 150.252 75.5799 149.213 74.2799 149.213C73.1399 149.213 72.2099 150.142 72.2099 152.032C72.2099 153.922 73.0599 154.682 74.3899 154.682C75.2199 154.682 76.1699 154.222 76.9199 153.042L76.9099 153.052Z" fill="#D95F28"/>
<path d="M83.4599 159.273C84.0199 159.873 84.9699 160.352 85.8899 160.352C87.6099 160.352 89.0399 159.043 89.1699 155.193C88.3799 156.233 87.0799 156.872 86.0199 156.872C83.4699 156.872 81.6199 155.292 81.6199 152.042C81.6199 148.792 83.8199 146.922 86.4499 146.922C89.3499 146.922 91.9699 149.202 91.9699 154.532C91.9699 160.342 89.1299 162.852 86.0799 162.852C84.1699 162.852 82.7799 162.042 81.8699 161.112L83.4699 159.282L83.4599 159.273ZM89.1199 153.052C88.8499 150.252 87.7899 149.213 86.4899 149.213C85.3499 149.213 84.4199 150.142 84.4199 152.032C84.4199 153.922 85.2699 154.682 86.5999 154.682C87.4299 154.682 88.3799 154.222 89.1299 153.042L89.1199 153.052Z" fill="#D95F28"/>
<path d="M98.3699 151.753C98.3699 148.683 99.9099 146.922 102.1 146.922C104.29 146.922 105.85 148.683 105.85 151.753C105.85 154.823 104.29 156.643 102.1 156.643C99.9099 156.643 98.3699 154.843 98.3699 151.753ZM103.7 151.753C103.7 149.493 103 148.643 102.1 148.643C101.2 148.643 100.52 149.493 100.52 151.753C100.52 154.013 101.2 154.922 102.1 154.922C103 154.922 103.7 154.013 103.7 151.753ZM110.96 146.922H112.76L104.4 162.852H102.62L110.96 146.922ZM109.52 157.953C109.52 154.863 111.08 153.102 113.25 153.102C115.42 153.102 117 154.863 117 157.953C117 161.043 115.42 162.842 113.25 162.842C111.08 162.842 109.52 161.023 109.52 157.953ZM114.85 157.953C114.85 155.693 114.14 154.823 113.25 154.823C112.36 154.823 111.65 155.693 111.65 157.953C111.65 160.213 112.36 161.102 113.25 161.102C114.14 161.102 114.85 160.213 114.85 157.953Z" fill="#D95F28"/>
</svg>
