<svg width="156" height="181" viewBox="0 0 156 181" fill="none" xmlns="http://www.w3.org/2000/svg">
<path d="M95.91 163.1H135.31C145.88 163.1 154.44 154.05 154.44 142.89V21.21C154.44 10.05 145.87 1 135.31 1H20.13C9.56001 1 1 10.05 1 21.21V142.89C1 154.05 9.57 163.1 20.13 163.1H64.34L74.62 177.72C76.19 179.95 79.35 179.95 80.92 177.72L91.2 163.1H95.91Z" fill="#FCEDE4" stroke="#D95F28" stroke-width="2" stroke-linejoin="round"/>
<path opacity="0.2" d="M112.42 72.31H43.0298C36.0434 72.31 30.3799 77.9736 30.3799 84.96C30.3799 91.9464 36.0434 97.61 43.0298 97.61H112.42C119.406 97.61 125.07 91.9464 125.07 84.96C125.07 77.9736 119.406 72.31 112.42 72.31Z" fill="#D95F28"/>
<path opacity="0.2" d="M112.42 126.66H43.0298C36.0434 126.66 30.3799 132.324 30.3799 139.31C30.3799 146.296 36.0434 151.96 43.0298 151.96H112.42C119.406 151.96 125.07 146.296 125.07 139.31C125.07 132.324 119.406 126.66 112.42 126.66Z" fill="#D95F28"/>
<path d="M116.2 11.87H39.2498C31.5012 11.87 25.2197 18.1515 25.2197 25.9C25.2197 33.6486 31.5012 39.93 39.2498 39.93H116.2C123.948 39.93 130.23 33.6486 130.23 25.9C130.23 18.1515 123.948 11.87 116.2 11.87Z" fill="#D95F28"/>
<path d="M43.9502 27.44C43.2202 27.65 42.4802 27.85 41.7302 28.06V32.36C41.7302 33.52 41.5202 34.1 40.8402 34.44C40.1802 34.81 39.2402 34.88 37.8902 34.86C37.8102 34.26 37.5202 33.32 37.2202 32.68C37.9702 32.72 38.7602 32.72 39.0102 32.72C39.2802 32.72 39.3802 32.62 39.3802 32.35V28.67L37.1602 29.27L36.7002 27.03C37.4502 26.88 38.4002 26.66 39.3802 26.43V22.26H36.9502V20.14H39.3802V16.9H41.7302V20.14H43.6402V22.26H41.7302V25.85C42.3902 25.68 43.0402 25.5 43.6802 25.33L43.9502 27.43V27.44ZM53.8802 18.47V34.17H51.4702V32.7H46.8203V34.32H44.5302V18.47H53.8802ZM51.4702 30.55V20.66H46.8203V30.55H51.4702Z" fill="white"/>
<path d="M61.1002 29.37C60.7902 31.01 60.1902 32.61 59.4602 33.67C59.0802 33.4 58.2302 33 57.7402 32.8C58.4702 31.87 58.9502 30.43 59.2102 29.04L61.1002 29.37ZM63.9102 28.68V32.77C63.9102 33.72 63.7702 34.26 63.1402 34.56C62.5202 34.89 61.7502 34.93 60.6902 34.93C60.6102 34.31 60.3402 33.5 60.0902 32.94C60.6702 32.96 61.3002 32.96 61.5202 32.96C61.7102 32.96 61.7702 32.9 61.7702 32.71V28.68H58.0502V26.79H67.5202V28.68H63.9102ZM61.7502 20.31H58.3002V18.44H61.7502V17.01H63.8902V18.44H67.2802V20.31H63.8902V21.29H66.8602V23.14H58.7602V21.29H61.7502V20.31ZM72.4202 24.47C72.4202 26.36 73.1502 30.58 76.2602 32.9C75.8502 33.4 75.2202 34.33 74.8702 34.91C72.6302 33.29 71.5703 30.01 71.3203 28.35C71.0703 30.05 69.8502 33.19 67.2902 34.91C67.0602 34.41 66.4002 33.44 66.0402 33C69.5102 30.65 70.2102 26.42 70.2102 24.47V22.45H69.8402C69.4202 23.92 68.8802 25.21 68.2202 26.23C67.9302 25.92 67.2702 25.42 66.7502 25.07V25.9H58.8802V24.05H66.7502C67.7302 22.2 68.2902 19.56 68.6002 16.88L70.8902 17.19C70.7602 18.27 70.5802 19.35 70.3502 20.37H74.1102L74.4602 20.29L75.9802 20.7C75.7502 22.55 75.3802 24.69 75.0202 26.1L73.2302 25.56C73.3802 24.75 73.5402 23.59 73.6502 22.46H72.4202V24.48V24.47ZM66.1302 29.01C66.6102 29.86 67.1302 31 67.3102 31.73L65.5202 32.48C65.3502 31.77 64.8802 30.55 64.4402 29.68L66.1402 29.01H66.1302Z" fill="white"/>
<path d="M89.2601 20.23V21.89H96.1302V32.58C96.1302 33.64 95.9002 34.16 95.1902 34.49C94.5102 34.82 93.4901 34.84 92.1401 34.84C92.0201 34.26 91.7002 33.43 91.4102 32.89C92.2402 32.93 93.2002 32.93 93.4902 32.93C93.7802 32.91 93.8702 32.83 93.8702 32.56V31.27C93.5202 31.46 93.0402 31.79 92.8502 32C92.3302 31.31 91.9602 30.48 91.7302 29.61C91.3802 30.54 90.9602 31.36 90.4202 32C90.1702 31.77 89.5901 31.34 89.2601 31.15V34.85H87.0801V31.46C86.8101 31.67 86.5002 31.92 86.3502 32.12C85.7902 31.39 85.4202 30.56 85.1702 29.65C84.8002 30.63 84.3402 31.5 83.7202 32.18C83.5302 31.97 83.0502 31.6 82.7202 31.39V34.86H80.5201V21.9H87.0801V20.24H79.8901V17.98H96.7302V20.24H89.2701L89.2601 20.23ZM85.9601 24.94C85.9601 26.93 86.0801 28.89 87.0801 30.55V24.03H82.7202V31.11C83.7202 30.01 84.2202 28.35 84.4702 26.46H83.4702V24.94H85.9601ZM89.2601 24.03V31.11C90.2201 29.99 90.7802 28.33 91.0502 26.46H90.0502V24.94H92.5801C92.5801 27.06 92.7002 29.13 93.8702 30.84V24.03H89.2601Z" fill="white"/>
<path d="M118.33 30.8H111.73V34.93H109.36V30.8H100.68V28.6H103.73V23.55H109.36V21.24H105.23C104.44 22.61 103.51 23.84 102.61 24.75C102.17 24.36 101.18 23.59 100.62 23.26C102.36 21.79 103.84 19.33 104.67 16.84L107 17.44C106.83 17.98 106.61 18.5 106.36 19.02H117.26V21.24H111.72V23.55H116.81V25.67H111.72V28.6H118.32V30.8H118.33ZM109.36 28.6V25.67H106.02V28.6H109.36Z" fill="white"/>
<path d="M43.6098 58.41L41.5898 58.99V63.33C41.5898 64.1 41.4298 64.51 40.9598 64.73C40.4798 64.96 39.7798 65 38.6998 64.99C38.6498 64.62 38.4398 64 38.2598 63.62C38.9398 63.65 39.5998 63.65 39.7898 63.64C40.0198 63.64 40.0998 63.58 40.0998 63.33V59.42C39.4098 59.63 38.7398 59.81 38.1498 59.97L37.7598 58.52C38.4098 58.36 39.2098 58.18 40.0998 57.94V54.73H37.9898V53.34H40.0998V50.21H41.5898V53.34H43.3498V54.73H41.5898V57.52C42.1898 57.36 42.7998 57.2 43.4098 57.02L43.5998 58.41H43.6098ZM44.2898 57.87H51.9398V64.91H50.4498V64.26H45.6998V64.99H44.2798V57.87H44.2898ZM50.2298 55.36C51.0698 55.36 51.1998 55.07 51.3098 53.42C51.6498 53.66 52.2798 53.87 52.6698 53.97C52.4798 56.15 52.0198 56.71 50.3298 56.71H46.8598C44.8398 56.71 44.3098 56.27 44.3098 54.69V50.23H45.7998V52.51C47.5798 52.12 49.4498 51.57 50.5898 51.04L51.6998 52.14C50.0898 52.8 47.8098 53.35 45.7898 53.72V54.69C45.7898 55.25 45.9798 55.35 46.9698 55.35H50.2298V55.36ZM45.7098 59.12V60.48H50.4598V59.12H45.7098ZM50.4598 63.06V61.66H45.7098V63.06H50.4598Z" fill="#494949"/>
<path d="M67.98 54.52C67.66 57.02 67.14 59.14 66.28 60.88C66.96 62.16 67.83 63.19 68.96 63.85C68.62 64.11 68.1701 64.66 67.9401 65.03C66.9201 64.35 66.1001 63.43 65.4401 62.32C64.6801 63.4 63.74 64.31 62.55 65.07C62.42 64.78 62.0201 64.18 61.7401 63.89L60.84 64.79C60.37 64.45 59.76 64.1 59.08 63.74C58.06 64.37 56.7201 64.77 55.0001 65.06C54.9201 64.69 54.69 64.19 54.45 63.9C55.81 63.75 56.9 63.51 57.76 63.11C57.34 62.93 56.9 62.74 56.47 62.58L56.26 62.92L55.03 62.6C55.32 62.16 55.66 61.61 55.98 61.02L54.11 61.05L54.0601 59.9C54.8001 59.9 55.67 59.9 56.61 59.88C56.77 59.59 56.92 59.32 57.05 59.04H54.7401V56.23H57.6801V55.6H55.11V53.89H54.04V52.79H55.11V51.09H57.6801V50.19H58.97V51.09H61.7V52.79H62.8V53.89H61.7V55.6H58.97V56.23H62.05V56.89C63 55.16 63.57 52.69 63.91 50.17L65.35 50.4C65.22 51.34 65.06 52.24 64.85 53.13H68.8701V54.52H67.98ZM56.0001 58.07H57.6801V57.2H56.0001V58.07ZM56.35 52.08V52.85H57.67V52.08H56.35ZM57.6801 54.6V53.81H56.36V54.6H57.6801ZM57.03 61.62C57.66 61.85 58.29 62.1 58.9 62.36C59.3 61.97 59.63 61.5 59.85 60.94L57.4 60.99L57.03 61.62ZM61.1901 60.91C60.9601 61.72 60.59 62.38 60.09 62.91C60.72 63.22 61.29 63.52 61.72 63.81C63.03 63.07 64 62.08 64.71 60.86C64.24 59.75 63.87 58.47 63.58 57.1C63.34 57.62 63.0801 58.1 62.8101 58.52C62.6601 58.34 62.34 58 62.05 57.74V59.03H58.47C58.34 59.29 58.2 59.58 58.03 59.85C59.56 59.83 61.23 59.82 62.86 59.79L62.8101 60.87L61.1901 60.9V60.91ZM58.97 52.08V52.85H60.3701V52.08H58.97ZM60.3701 54.6V53.81H58.97V54.6H60.3701ZM58.97 57.2V58.07H60.7501V57.2H58.97ZM64.5001 54.52L64.45 54.68C64.69 56.29 65.03 57.81 65.52 59.15C66.02 57.81 66.34 56.28 66.55 54.52H64.5001Z" fill="#494949"/>
<path d="M74.5698 54.4H77.3897V55.68H75.8897L76.5797 55.86C76.3097 56.54 76.0097 57.25 75.7597 57.77H77.1997V59.06H74.5698V60.58H76.9897V61.86H74.5698V64.98H73.1597V61.86H70.6298V60.58H73.1597V59.06H70.4797V57.77H71.8798C71.7998 57.22 71.5597 56.46 71.2697 55.86L71.9297 55.68H70.1997V54.4H73.1497V53H70.7797V51.74H73.1497V50.22H74.5598V51.74H76.7897V53H74.5598V54.4H74.5698ZM74.5997 57.62C74.8297 57.07 75.1197 56.26 75.2797 55.68H72.4897C72.7797 56.31 73.0598 57.1 73.1198 57.62L72.5897 57.77H75.1597L74.6097 57.62H74.5997ZM84.6198 56.63C84.2998 58.55 83.6797 60.36 82.7997 61.89C83.4897 62.7 84.2997 63.36 85.2097 63.81C84.8897 64.08 84.4297 64.63 84.2097 65C83.3897 64.52 82.6397 63.87 81.9797 63.1C81.4197 63.84 80.7497 64.49 80.0097 65.02C79.8197 64.75 79.4898 64.39 79.1898 64.15V65.01H77.8297V50.9H84.2498V53.95C84.2498 54.64 84.0997 55.03 83.5397 55.24C83.0097 55.45 82.1797 55.45 80.9697 55.45C80.9097 55.06 80.7097 54.51 80.5197 54.16C81.4397 54.19 82.2997 54.19 82.5397 54.18C82.7797 54.16 82.8497 54.12 82.8497 53.94V52.23H79.1797V56.36H83.4597L83.6997 56.3L84.6198 56.64V56.63ZM79.1797 63.88C79.9197 63.36 80.5497 62.7 81.0997 61.94C80.2797 60.66 79.6497 59.18 79.1797 57.58V63.88ZM80.4398 57.58C80.7998 58.68 81.2798 59.73 81.8798 60.68C82.3998 59.71 82.7697 58.66 83.0297 57.58H80.4497H80.4398Z" fill="#494949"/>
<path d="M90.7297 53.92H92.2997V64.69H91.1897V63.87H87.7397V64.92H86.6697V53.93H88.1697V52.09H86.4097V50.89H92.5096V52.09H90.7297V53.93V53.92ZM90.5997 58.6C89.9397 58.6 89.7397 58.42 89.7397 57.58V55.14H89.1097V56.48C89.1097 57.4 88.9496 58.63 88.1396 59.47C88.0396 59.37 87.8797 59.2 87.7197 59.08V60.18H91.1697V58.6H90.5897H90.5997ZM87.7297 55.15V58.8C88.2897 58.09 88.3896 57.22 88.3896 56.47V55.15H87.7297ZM91.1797 62.69V61.28H87.7297V62.69H91.1797ZM89.1197 53.92H89.7497V52.08H89.1197V53.92ZM91.1797 55.15H90.4997V57.57C90.4997 57.78 90.5297 57.8 90.6797 57.8H91.1797V55.15ZM94.0597 55.05C93.9497 56.47 93.7397 58.23 93.1597 59.33L92.3497 58.65C92.8497 57.76 93.0797 56.18 93.1697 54.82L94.0597 55.05ZM100.59 50.53V65.01H99.3297V58.54L98.7297 58.86C98.5997 58.12 98.2597 57.07 97.9097 56.11V64.62H96.6797V58.58L95.9897 58.92C95.9297 58.1 95.6497 56.93 95.3297 55.92V56.94C95.3297 59.94 95.1397 62.83 93.6197 65.08C93.3797 64.82 92.8597 64.47 92.5197 64.29C93.9397 62.27 94.1197 59.69 94.1197 56.95V50.57H95.3297V55.32L96.0096 55C96.2696 55.66 96.5097 56.45 96.6897 57.16V50.83H97.9197V55.11L98.4496 54.85C98.7896 55.54 99.0997 56.33 99.3397 57.09V50.54H100.6L100.59 50.53Z" fill="#494949"/>
<path d="M106.38 58.33C105.33 58.83 104.25 59.33 103.36 59.73L102.63 58.5C103.65 58.16 105.18 57.55 106.67 56.93L106.94 58.06L106.67 58.19L107.69 58.14C108.04 57.8 108.43 57.41 108.82 57.01C108.19 56.46 107.29 55.8 106.54 55.31L107.27 54.47C107.42 54.55 107.54 54.63 107.71 54.73C108.05 54.26 108.4 53.71 108.68 53.24H103.26V51.87H109.09V50.18H110.64V51.87H116.63V53.24H109.83L110.17 53.37C109.67 54.03 109.09 54.74 108.6 55.31C108.97 55.57 109.34 55.84 109.65 56.09C110.25 55.4 110.81 54.7 111.23 54.09L112.42 54.64C111.47 55.75 110.31 57.03 109.21 58.08L111.49 57.97C111.25 57.6 110.97 57.23 110.72 56.9L111.8 56.43C112.07 56.77 112.38 57.14 112.66 57.53L113.58 56.79C114.77 57.37 116.32 58.28 117.13 58.92L116.02 59.86C115.34 59.25 113.95 58.36 112.79 57.74C113.19 58.31 113.53 58.89 113.71 59.34L112.56 59.9C112.46 59.64 112.32 59.35 112.14 59.03C110.14 59.19 108.15 59.34 106.6 59.45L106.39 58.32L106.38 58.33ZM110.62 60.55H117.08V61.94H110.62V65.02H109.07V61.94H102.74V60.55H109.07V59.39H110.62V60.55ZM104.15 53.79C105.02 54.24 106.14 54.97 106.69 55.49L105.64 56.39C105.12 55.87 104.03 55.11 103.17 54.6L104.15 53.79ZM112.85 55.63C113.61 55.1 114.63 54.22 115.19 53.6L116.53 54.26C115.72 55 114.72 55.75 113.95 56.23L112.85 55.63Z" fill="#494949"/>
<path d="M29.9199 117.63C30.6299 117.73 31.3899 117.77 32.1999 117.77C32.8899 117.77 35.6099 117.77 36.5299 117.74C36.2899 118.1 36.0299 118.82 35.9699 119.26H32.1299C28.9699 119.26 26.6399 118.73 25.1699 116.19C24.6399 117.56 23.8899 118.69 22.8899 119.55C22.6499 119.28 22.0199 118.76 21.6499 118.52C23.4299 117.2 24.2499 114.94 24.5899 112.11L26.1399 112.26C26.0399 113 25.9099 113.71 25.7499 114.37C26.3199 115.87 27.2199 116.73 28.3799 117.21V110.95H24.6499V109.51H33.7399V110.95H29.9299V113.32H34.5499V114.72H29.9299V117.63H29.9199ZM23.8999 110.11H22.4299V106.4H28.3399V104.67H29.9399V106.4H35.9099V110.11H34.3799V107.82H23.8999V110.11Z" fill="#494949"/>
<path d="M41.4301 116.25C40.8501 117.46 39.9101 118.7 39.0401 119.5C38.7801 119.24 38.2001 118.82 37.8501 118.61C38.7201 117.92 39.5501 116.88 40.0101 115.86L41.4301 116.25ZM45.7601 115.6H37.9001V114.29H39.4001V107.99H38.0901V106.68H39.4001V104.82H40.7601V106.68H43.2801V104.82H44.6701V106.68H45.8301V107.99H44.6701V114.29H45.7701V115.6H45.7601ZM40.7501 108V109.21H43.2701V108H40.7501ZM40.7501 111.72H43.2701V110.38H40.7501V111.72ZM40.7501 114.29H43.2701V112.9H40.7501V114.29ZM43.4801 115.81C44.1101 116.54 44.8901 117.52 45.2201 118.17L44.0101 118.9C43.6901 118.25 42.9401 117.2 42.3301 116.45L43.4801 115.82V115.81ZM52.2001 117.7C52.2001 118.49 52.0201 118.93 51.5201 119.15C51.0401 119.41 50.2601 119.44 49.0701 119.42C49.0201 119.03 48.8301 118.37 48.6301 118C49.3901 118.03 50.2001 118.02 50.4101 118.02C50.6501 118 50.7501 117.94 50.7501 117.68V114.1H47.7801C47.6001 116.02 47.2101 118.07 46.2901 119.54C46.0501 119.27 45.4201 118.83 45.0901 118.68C46.3701 116.57 46.4801 113.55 46.4801 111.24V105.43H52.1901V117.7H52.2001ZM50.7501 112.74V110.38H47.9101V111.24C47.9101 111.71 47.9101 112.23 47.8801 112.74H50.7501ZM47.9101 106.79V109.07H50.7501V106.79H47.9101Z" fill="#494949"/>
<path d="M62.2099 117.63C62.9199 117.73 63.6799 117.77 64.4899 117.77C65.1799 117.77 67.8999 117.77 68.8199 117.74C68.5799 118.1 68.3199 118.82 68.2599 119.26H64.4199C61.2599 119.26 58.9299 118.73 57.4599 116.19C56.9299 117.56 56.1799 118.69 55.1799 119.55C54.9399 119.28 54.3099 118.76 53.9399 118.52C55.7199 117.2 56.5399 114.94 56.8799 112.11L58.4299 112.26C58.3299 113 58.1999 113.71 58.0399 114.37C58.6099 115.87 59.5099 116.73 60.6699 117.21V110.95H56.9399V109.51H66.0299V110.95H62.2199V113.32H66.8399V114.72H62.2199V117.63H62.2099ZM56.1899 110.11H54.7199V106.4H60.6299V104.67H62.2299V106.4H68.1999V110.11H66.6699V107.82H56.1899V110.11Z" fill="#494949"/>
<path d="M76.2599 118.39C77.3699 117.97 78.6 117.21 79.2 116.57L80.44 117.33C79.6 118.15 78.24 118.99 77.08 119.44C76.84 119.17 76.4 118.73 76.1 118.46H72.6V119.19H71.32V114.88C71.13 114.96 70.93 115.06 70.74 115.14C70.58 114.82 70.22 114.33 69.96 114.06C71.11 113.64 72.24 112.96 73.17 112.11C72.72 111.77 72.27 111.45 71.85 111.16C71.56 111.43 71.27 111.69 70.96 111.92C70.77 111.68 70.27 111.24 69.99 111.03C71.23 110.22 72.33 108.95 72.93 107.54L74.17 107.86C74.04 108.15 73.9 108.44 73.73 108.72H75.55L75.78 108.66L76.64 109.05C76.27 110.13 75.72 111.1 75.06 111.92C75.96 112.58 76.8 113.23 77.35 113.73L76.48 114.76L76.25 114.55V118.41L76.2599 118.39ZM71.66 108.48H70.43V106.04H73.09V104.68H74.49V106.04H77.17V108.48H75.89V107.25H71.64V108.48H71.66ZM75.86 114.18C75.39 113.78 74.81 113.32 74.2 112.86C73.7 113.36 73.13 113.8 72.54 114.18H75.87H75.86ZM74.95 115.34H72.59V117.29H74.95V115.34ZM73.07 109.76C72.94 109.94 72.81 110.1 72.68 110.26C73.12 110.55 73.58 110.86 74.05 111.18C74.4 110.74 74.73 110.26 74.97 109.76H73.06H73.07ZM79.94 107.98C80.04 107.56 80.13 107.08 80.21 106.64H77.3V105.35H84.7599V106.64H81.81C81.66 107.09 81.5 107.56 81.36 107.98H84.38V116.36H77.86V107.98H79.94ZM82.96 109.13H79.21V110.44H82.96V109.13ZM82.96 111.5H79.21V112.82H82.96V111.5ZM82.96 113.89H79.21V115.23H82.96V113.89ZM82.59 116.65C83.49 117.23 84.67 118.1 85.27 118.7L84.11 119.49C83.55 118.91 82.4 117.97 81.49 117.34L82.59 116.65Z" fill="#494949"/>
<path d="M90.7201 108.87H93.5501V110.15H92.0501L92.7401 110.33C92.4701 111.01 92.1801 111.72 91.9201 112.24H93.3601V113.53H90.7301V115.05H93.1501V116.33H90.7301V119.45H89.3301V116.33H86.7901V115.05H89.3301V113.53H86.6501V112.24H88.0501C87.9701 111.69 87.7301 110.93 87.4401 110.33L88.1001 110.15H86.3701V108.87H89.3201V107.47H86.9501V106.21H89.3201V104.69H90.7201V106.21H92.9501V107.47H90.7201V108.87ZM90.7501 112.08C90.9801 111.53 91.2701 110.72 91.4301 110.14H88.6401C88.9301 110.77 89.2101 111.56 89.2701 112.08L88.7401 112.23H91.3101L90.7601 112.08H90.7501ZM100.77 111.09C100.45 113.01 99.8301 114.82 98.9501 116.35C99.6401 117.16 100.45 117.82 101.36 118.27C101.04 118.54 100.59 119.09 100.36 119.46C99.54 118.98 98.7901 118.33 98.1301 117.56C97.5601 118.3 96.9001 118.95 96.1601 119.48C95.9701 119.21 95.6401 118.85 95.3401 118.61V119.47H93.9801V105.36H100.41V108.41C100.41 109.1 100.26 109.49 99.7001 109.7C99.1701 109.91 98.3401 109.91 97.1301 109.91C97.0701 109.52 96.8701 108.97 96.6801 108.62C97.6001 108.65 98.4601 108.65 98.7001 108.64C98.9401 108.62 99.0101 108.58 99.0101 108.4V106.69H95.3401V110.82H99.6201L99.86 110.76L100.78 111.1L100.77 111.09ZM95.3301 118.34C96.0701 117.82 96.7001 117.16 97.2501 116.4C96.4301 115.12 95.8001 113.64 95.3301 112.04V118.34ZM96.5901 112.05C96.9501 113.15 97.4301 114.2 98.0301 115.15C98.5501 114.18 98.9201 113.13 99.1801 112.05H96.6001H96.5901Z" fill="#494949"/>
<path d="M106.88 108.38H108.45V119.15H107.34V118.33H103.88V119.38H102.81V108.39H104.31V106.55H102.55V105.35H108.65V106.55H106.87V108.39L106.88 108.38ZM106.75 113.06C106.09 113.06 105.89 112.88 105.89 112.04V109.6H105.26V110.94C105.26 111.86 105.1 113.09 104.29 113.93C104.19 113.83 104.03 113.66 103.87 113.54V114.64H107.33V113.06H106.75ZM103.88 109.61V113.26C104.45 112.55 104.54 111.68 104.54 110.93V109.61H103.88ZM107.33 117.15V115.74H103.87V117.15H107.33ZM105.27 108.38H105.9V106.54H105.27V108.38ZM107.33 109.61H106.65V112.03C106.65 112.24 106.68 112.26 106.83 112.26H107.33V109.61ZM110.2 109.51C110.09 110.93 109.88 112.69 109.3 113.79L108.49 113.11C108.99 112.22 109.22 110.64 109.31 109.28L110.2 109.51ZM116.74 104.99V119.47H115.48V113L114.88 113.32C114.75 112.58 114.41 111.53 114.06 110.57V119.08H112.83V113.04L112.14 113.38C112.08 112.56 111.8 111.39 111.48 110.38V111.4C111.48 114.4 111.29 117.29 109.77 119.54C109.53 119.28 109.01 118.93 108.67 118.75C110.09 116.73 110.27 114.15 110.27 111.41V105.03H111.48V109.78L112.16 109.46C112.42 110.12 112.66 110.91 112.84 111.62V105.29H114.07V109.57L114.6 109.31C114.94 110 115.25 110.79 115.49 111.55V105H116.75L116.74 104.99Z" fill="#494949"/>
<path d="M122.53 112.79C121.48 113.29 120.4 113.79 119.51 114.19L118.78 112.96C119.8 112.62 121.33 112.01 122.82 111.39L123.09 112.52L122.82 112.65L123.84 112.6C124.2 112.26 124.58 111.87 124.97 111.47C124.34 110.92 123.44 110.26 122.69 109.77L123.42 108.93C123.57 109.01 123.69 109.09 123.86 109.19C124.2 108.72 124.55 108.17 124.83 107.7H119.41V106.33H125.24V104.64H126.79V106.33H132.78V107.7H125.98L126.32 107.83C125.82 108.49 125.24 109.2 124.75 109.77C125.12 110.03 125.49 110.3 125.8 110.55C126.4 109.86 126.96 109.16 127.38 108.55L128.58 109.1C127.63 110.21 126.46 111.49 125.37 112.54L127.65 112.43C127.41 112.06 127.13 111.69 126.87 111.36L127.95 110.89C128.22 111.23 128.53 111.6 128.81 111.99L129.73 111.25C130.93 111.83 132.48 112.74 133.28 113.38L132.17 114.32C131.49 113.71 130.1 112.82 128.94 112.2C129.34 112.77 129.68 113.35 129.86 113.8L128.71 114.36C128.61 114.1 128.47 113.81 128.29 113.49C126.29 113.65 124.3 113.8 122.75 113.91L122.54 112.78L122.53 112.79ZM126.77 115.02H133.23V116.41H126.77V119.49H125.22V116.41H118.89V115.02H125.22V113.86H126.77V115.02ZM120.3 108.25C121.17 108.7 122.29 109.43 122.83 109.95L121.78 110.85C121.26 110.33 120.17 109.57 119.31 109.06L120.3 108.25ZM129 110.09C129.76 109.56 130.78 108.68 131.34 108.06L132.68 108.72C131.87 109.46 130.87 110.21 130.1 110.69L129 110.09Z" fill="#494949"/>
<path d="M40.8999 85.81H46.5599V87.99H40.8999V85.81Z" fill="#D95F28"/>
<path d="M48.0898 90.99L49.5198 89.06C50.4298 89.95 51.5499 90.64 52.9399 90.64C54.4899 90.64 55.5499 89.87 55.5499 88.5C55.5499 86.99 54.6599 86.05 51.3199 86.05V83.85C54.1399 83.85 55.0499 82.88 55.0499 81.51C55.0499 80.31 54.2999 79.6 52.9999 79.58C51.8999 79.6 51.0099 80.12 50.0999 80.95L48.5399 79.08C49.8699 77.92 51.3398 77.19 53.1398 77.19C56.1098 77.19 58.1199 78.64 58.1199 81.27C58.1199 82.93 57.1899 84.13 55.5499 84.77V84.87C57.2899 85.35 58.6199 86.63 58.6199 88.64C58.6199 91.46 56.1499 93.1 53.2299 93.1C50.7999 93.1 49.1698 92.19 48.0898 90.96V90.99Z" fill="#D95F28"/>
<path d="M61.23 91.14C61.23 90.02 62.04 89.15 63.12 89.15C64.2 89.15 65.03 90.02 65.03 91.14C65.03 92.26 64.22 93.13 63.12 93.13C62.02 93.13 61.23 92.26 61.23 91.14Z" fill="#D95F28"/>
<path d="M67.39 91.08C71.56 87.35 74.03 84.47 74.03 82.1C74.03 80.54 73.18 79.61 71.73 79.61C70.61 79.61 69.68 80.34 68.91 81.19L67.25 79.53C68.66 78.04 70.03 77.21 72.12 77.21C75.02 77.21 76.95 79.08 76.95 81.94C76.95 84.8 74.65 87.7 71.85 90.44C72.62 90.36 73.63 90.27 74.34 90.27H77.68V92.84H67.39V91.08Z" fill="#D95F28"/>
<path d="M80.4102 90.37H83.7101V80.67H80.9302V78.78C82.4602 78.49 83.5202 78.1 84.5002 77.49H86.7601V90.37H89.6401V92.84H80.4102V90.37Z" fill="#D95F28"/>
<path d="M96.29 82.04C96.29 78.97 97.82 77.21 100.02 77.21C102.22 77.21 103.77 78.97 103.77 82.04C103.77 85.11 102.22 86.93 100.02 86.93C97.82 86.93 96.29 85.13 96.29 82.04ZM101.62 82.04C101.62 79.78 100.91 78.93 100.02 78.93C99.13 78.93 98.4401 79.78 98.4401 82.04C98.4401 84.3 99.12 85.21 100.02 85.21C100.92 85.21 101.62 84.3 101.62 82.04ZM108.88 77.2H110.68L102.32 93.13H100.54L108.88 77.2ZM107.44 88.24C107.44 85.15 108.99 83.39 111.17 83.39C113.35 83.39 114.92 85.15 114.92 88.24C114.92 91.33 113.34 93.13 111.17 93.13C109 93.13 107.44 91.3 107.44 88.24ZM112.77 88.24C112.77 85.98 112.06 85.11 111.17 85.11C110.28 85.11 109.57 85.98 109.57 88.24C109.57 90.5 110.28 91.39 111.17 91.39C112.06 91.39 112.77 90.5 112.77 88.24Z" fill="#D95F28"/>
<path d="M39.1099 144.72H42.4099V135.01H39.6299V133.12C41.1599 132.83 42.2198 132.44 43.1998 131.83H45.4598V144.71H48.3398V147.18H39.1099V144.71V144.72Z" fill="#D95F28"/>
<path d="M51.3198 144.72H54.6198V135.01H51.8398V133.12C53.3698 132.83 54.4298 132.44 55.4098 131.83H57.6698V144.71H60.5498V147.18H51.3198V144.71V144.72Z" fill="#D95F28"/>
<path d="M63.2998 145.49C63.2998 144.37 64.1098 143.5 65.1898 143.5C66.2698 143.5 67.0998 144.37 67.0998 145.49C67.0998 146.61 66.2898 147.48 65.1898 147.48C64.0898 147.48 63.2998 146.61 63.2998 145.49Z" fill="#D95F28"/>
<path d="M69.54 143.38C69.54 141.41 70.74 140.14 72.17 139.38V139.28C70.99 138.43 70.14 137.27 70.14 135.63C70.14 133.16 72.09 131.59 74.76 131.59C77.43 131.59 79.22 133.23 79.22 135.67C79.22 137.18 78.2701 138.45 77.2501 139.17V139.27C78.6601 140.04 79.8201 141.28 79.8201 143.38C79.8201 145.7 77.77 147.49 74.66 147.49C71.74 147.49 69.54 145.79 69.54 143.38ZM76.9901 143.27C76.9901 141.67 75.58 141.01 73.59 140.2C72.76 140.86 72.1801 141.9 72.1801 143.04C72.1801 144.43 73.3201 145.32 74.7501 145.32C76.0401 145.32 76.9901 144.59 76.9901 143.27ZM76.7401 135.85C76.7401 134.61 75.99 133.71 74.71 133.71C73.67 133.71 72.84 134.39 72.84 135.62C72.84 137.07 74.02 137.78 75.64 138.42C76.39 137.63 76.7401 136.76 76.7401 135.85Z" fill="#D95F28"/>
<path d="M92.41 143.21H90.58V147.19H87.74V143.21H81.21V141.14L86.93 131.85H90.58V140.89H92.41V143.21ZM87.74 140.89V137.76C87.74 136.87 87.82 135.48 87.86 134.59H87.78C87.41 135.4 86.99 136.25 86.56 137.08L84.18 140.9H87.75L87.74 140.89Z" fill="#D95F28"/>
<path d="M98.3599 136.39C98.3599 133.32 99.8999 131.56 102.09 131.56C104.28 131.56 105.84 133.32 105.84 136.39C105.84 139.46 104.28 141.28 102.09 141.28C99.8999 141.28 98.3599 139.48 98.3599 136.39ZM103.69 136.39C103.69 134.13 102.99 133.28 102.09 133.28C101.19 133.28 100.51 134.13 100.51 136.39C100.51 138.65 101.19 139.56 102.09 139.56C102.99 139.56 103.69 138.65 103.69 136.39ZM110.94 131.56H112.74L104.38 147.49H102.6L110.94 131.56ZM109.51 142.59C109.51 139.5 111.07 137.74 113.24 137.74C115.41 137.74 116.99 139.5 116.99 142.59C116.99 145.68 115.41 147.48 113.24 147.48C111.07 147.48 109.51 145.66 109.51 142.59ZM114.84 142.59C114.84 140.33 114.13 139.46 113.24 139.46C112.35 139.46 111.64 140.33 111.64 142.59C111.64 144.85 112.35 145.74 113.24 145.74C114.13 145.74 114.84 144.85 114.84 142.59Z" fill="#D95F28"/>
</svg>
