<svg width="140" height="129" viewBox="0 0 140 129" fill="none" xmlns="http://www.w3.org/2000/svg"><path d="M69.841 127.092c-.364 0-.707-.177-.906-.475l-8.724-12.689H17.924c-9.277 0-16.82-7.598-16.82-16.941V18.046c0-9.343 7.543-16.942 16.82-16.942h103.834c9.277 0 16.82 7.599 16.82 16.942v78.94c0 9.344-7.543 16.942-16.82 16.942H79.471l-8.724 12.689c-.21.298-.542.475-.906.475z" fill="#FFECE3"/><path d="M121.758 2.209c8.68 0 15.715 7.09 15.715 15.837v78.94c0 8.747-7.035 15.837-15.715 15.837H78.897l-9.056 13.165-9.056-13.165h-42.86c-8.681 0-15.716-7.09-15.716-15.836V18.046c0-8.747 7.035-15.837 15.715-15.837h103.834zm0-2.209H17.924C8.04 0 0 8.095 0 18.046v78.94c0 9.951 8.04 18.046 17.924 18.046h41.702l8.393 12.215c.408.596 1.093.96 1.822.96.729 0 1.403-.353 1.822-.96l8.394-12.215h41.701c9.884 0 17.924-8.095 17.924-18.045V18.046c0-9.95-8.04-18.046-17.924-18.046z" fill="#EA5404"/></svg>