<svg width="140" height="129" viewBox="0 0 140 129" fill="none" xmlns="http://www.w3.org/2000/svg"><path d="M17.913 127.092c-9.277 0-16.82-7.598-16.82-16.941V31.21c0-9.343 7.543-16.941 16.82-16.941H60.2l8.724-12.69a1.1 1.1 0 011.811 0l8.725 12.69h42.287c9.277 0 16.819 7.598 16.819 16.94v78.942c0 9.343-7.542 16.941-16.819 16.941H17.913z" fill="#FFECE3"/><path d="M69.841 2.209l9.056 13.164h42.861c8.68 0 15.715 7.09 15.715 15.837v78.941c0 8.747-7.035 15.837-15.715 15.837H17.924c-8.68 0-15.715-7.09-15.715-15.837V31.21c0-8.747 7.035-15.837 15.715-15.837h42.861l9.056-13.164zm0-2.209c-.729 0-1.403.353-1.822.96l-8.394 12.215h-41.7C8.04 13.175 0 21.27 0 31.221v78.941c0 9.95 8.04 18.045 17.924 18.045h103.834c9.884 0 17.924-8.095 17.924-18.045V31.221c0-9.95-8.04-18.046-17.924-18.046H80.057L71.662.961A2.216 2.216 0 0069.841 0z" fill="#EA5404"/></svg>