<svg width="156" height="181" viewBox="0 0 156 181" fill="none" xmlns="http://www.w3.org/2000/svg"><path d="M95.91 163.1h39.4c10.57 0 19.13-9.05 19.13-20.21V21.21c0-11.16-8.57-20.21-19.13-20.21H20.13C9.56 1 1 10.05 1 21.21v121.68c0 11.16 8.57 20.21 19.13 20.21h44.21l10.28 14.62c1.57 2.23 4.73 2.23 6.3 0L91.2 163.1h4.71z" fill="#FCEDE4" stroke="#D95F28" stroke-width="2" stroke-linejoin="round"/><path opacity=".2" d="M112.42 72.31H43.03c-6.987 0-12.65 5.664-12.65 12.65 0 6.986 5.663 12.65 12.65 12.65h69.39c6.986 0 12.65-5.664 12.65-12.65 0-6.986-5.664-12.65-12.65-12.65zm0 54.35H43.03c-6.987 0-12.65 5.664-12.65 12.65 0 6.986 5.663 12.65 12.65 12.65h69.39c6.986 0 12.65-5.664 12.65-12.65 0-6.986-5.664-12.65-12.65-12.65z" fill="#D95F28"/><path d="M116.2 11.87H39.25c-7.749 0-14.03 6.281-14.03 14.03s6.28 14.03 14.03 14.03h76.95c7.748 0 14.03-6.281 14.03-14.03 0-7.748-6.282-14.03-14.03-14.03z" fill="#D95F28"/><path d="M43.95 27.44c-.73.21-1.47.41-2.22.62v4.3c0 1.16-.21 1.74-.89 2.08-.66.37-1.6.44-2.95.42-.08-.6-.37-1.54-.67-2.18.75.04 1.54.04 1.79.04.27 0 .37-.1.37-.37v-3.68l-2.22.6-.46-2.24c.75-.15 1.7-.37 2.68-.6v-4.17h-2.43v-2.12h2.43V16.9h2.35v3.24h1.91v2.12h-1.91v3.59c.66-.17 1.31-.35 1.95-.52l.27 2.1v.01zm9.93-8.97v15.7h-2.41V32.7h-4.65v1.62h-2.29V18.47h9.35zm-2.41 12.08v-9.89h-4.65v9.89h4.65zm9.63-1.18c-.31 1.64-.91 3.24-1.64 4.3-.38-.27-1.23-.67-1.72-.87.73-.93 1.21-2.37 1.47-3.76l1.89.33zm2.81-.69v4.09c0 .95-.14 1.49-.77 1.79-.62.33-1.39.37-2.45.37-.08-.62-.35-1.43-.6-1.99.58.02 1.21.02 1.43.02.19 0 .25-.06.25-.25v-4.03h-3.72v-1.89h9.47v1.89h-3.61zm-2.16-8.37H58.3v-1.87h3.45v-1.43h2.14v1.43h3.39v1.87h-3.39v.98h2.97v1.85h-8.1v-1.85h2.99v-.98zm10.67 4.16c0 1.89.73 6.11 3.84 8.43-.41.5-1.04 1.43-1.39 2.01-2.24-1.62-3.3-4.9-3.55-6.56-.25 1.7-1.47 4.84-4.03 6.56-.23-.5-.89-1.47-1.25-1.91 3.47-2.35 4.17-6.58 4.17-8.53v-2.02h-.37c-.42 1.47-.96 2.76-1.62 3.78-.29-.31-.95-.81-1.47-1.16v.83h-7.87v-1.85h7.87c.98-1.85 1.54-4.49 1.85-7.17l2.29.31c-.13 1.08-.31 2.16-.54 3.18h3.76l.35-.08 1.52.41c-.23 1.85-.6 3.99-.96 5.4l-1.79-.54c.15-.81.31-1.97.42-3.1h-1.23v2.02-.01zm-6.29 4.54c.48.85 1 1.99 1.18 2.72l-1.79.75c-.17-.71-.64-1.93-1.08-2.8l1.7-.67h-.01zm23.13-8.78v1.66h6.87v10.69c0 1.06-.23 1.58-.94 1.91-.68.33-1.7.35-3.05.35-.12-.58-.44-1.41-.73-1.95.83.04 1.79.04 2.08.04.29-.02.38-.1.38-.37v-1.29c-.35.19-.83.52-1.02.73-.52-.69-.89-1.52-1.12-2.39-.35.93-.77 1.75-1.31 2.39-.25-.23-.83-.66-1.16-.85v3.7h-2.18v-3.39c-.27.21-.58.46-.73.66-.56-.73-.93-1.56-1.18-2.47-.37.98-.83 1.85-1.45 2.53-.19-.21-.67-.58-1-.79v3.47h-2.2V21.9h6.56v-1.66h-7.19v-2.26h16.84v2.26h-7.46l-.01-.01zm-3.3 4.71c0 1.99.12 3.95 1.12 5.61v-6.52h-4.36v7.08c1-1.1 1.5-2.76 1.75-4.65h-1v-1.52h2.49zm3.3-.91v7.08c.96-1.12 1.52-2.78 1.79-4.65h-1v-1.52h2.53c0 2.12.12 4.19 1.29 5.9v-6.81h-4.61zm29.07 6.77h-6.6v4.13h-2.37V30.8h-8.68v-2.2h3.05v-5.05h5.63v-2.31h-4.13c-.79 1.37-1.72 2.6-2.62 3.51-.44-.39-1.43-1.16-1.99-1.49 1.74-1.47 3.22-3.93 4.05-6.42l2.33.6c-.17.54-.39 1.06-.64 1.58h10.9v2.22h-5.54v2.31h5.09v2.12h-5.09v2.93h6.6v2.2h.01zm-8.97-2.2v-2.93h-3.34v2.93h3.34z" fill="#fff"/><path d="M43.61 58.41l-2.02.58v4.34c0 .77-.16 1.18-.63 1.4-.48.23-1.18.27-2.26.26-.05-.37-.26-.99-.44-1.37.68.03 1.34.03 1.53.02.23 0 .31-.06.31-.31v-3.91c-.69.21-1.36.39-1.95.55l-.39-1.45c.65-.16 1.45-.34 2.34-.58v-3.21h-2.11v-1.39h2.11v-3.13h1.49v3.13h1.76v1.39h-1.76v2.79c.6-.16 1.21-.32 1.82-.5l.19 1.39h.01zm.68-.54h7.65v7.04h-1.49v-.65H45.7v.73h-1.42v-7.12h.01zm5.94-2.51c.84 0 .97-.29 1.08-1.94.34.24.97.45 1.36.55-.19 2.18-.65 2.74-2.34 2.74h-3.47c-2.02 0-2.55-.44-2.55-2.02v-4.46h1.49v2.28c1.78-.39 3.65-.94 4.79-1.47l1.11 1.1c-1.61.66-3.89 1.21-5.91 1.58v.97c0 .56.19.66 1.18.66h3.26v.01zm-4.52 3.76v1.36h4.75v-1.36h-4.75zm4.75 3.94v-1.4h-4.75v1.4h4.75zm17.52-8.54c-.32 2.5-.84 4.62-1.7 6.36.68 1.28 1.55 2.31 2.68 2.97-.34.26-.79.81-1.02 1.18-1.02-.68-1.84-1.6-2.5-2.71a10.14 10.14 0 01-2.89 2.75c-.13-.29-.53-.89-.81-1.18l-.9.9c-.47-.34-1.08-.69-1.76-1.05-1.02.63-2.36 1.03-4.08 1.32-.08-.37-.31-.87-.55-1.16 1.36-.15 2.45-.39 3.31-.79-.42-.18-.86-.37-1.29-.53l-.21.34-1.23-.32c.29-.44.63-.99.95-1.58l-1.87.03-.05-1.15c.74 0 1.61 0 2.55-.02.16-.29.31-.56.44-.84h-2.31v-2.81h2.94v-.63h-2.57v-1.71h-1.07v-1.1h1.07v-1.7h2.57v-.9h1.29v.9h2.73v1.7h1.1v1.1h-1.1v1.71h-2.73v.63h3.08v.66c.95-1.73 1.52-4.2 1.86-6.72l1.44.23c-.13.94-.29 1.84-.5 2.73h4.02v1.39h-.89zM56 58.07h1.68v-.87H56v.87zm.35-5.99v.77h1.32v-.77h-1.32zm1.33 2.52v-.79h-1.32v.79h1.32zm-.65 7.02c.63.23 1.26.48 1.87.74.4-.39.73-.86.95-1.42l-2.45.05-.37.63zm4.16-.71c-.23.81-.6 1.47-1.1 2 .63.31 1.2.61 1.63.9a7.848 7.848 0 002.99-2.95c-.47-1.11-.84-2.39-1.13-3.76-.24.52-.5 1-.77 1.42-.15-.18-.47-.52-.76-.78v1.29h-3.58c-.13.26-.27.55-.44.82 1.53-.02 3.2-.03 4.83-.06l-.05 1.08-1.62.03v.01zm-2.22-8.83v.77h1.4v-.77h-1.4zm1.4 2.52v-.79h-1.4v.79h1.4zm-1.4 2.6v.87h1.78v-.87h-1.78zm5.53-2.68l-.05.16c.24 1.61.58 3.13 1.07 4.47.5-1.34.82-2.87 1.03-4.63H64.5zm10.07-.12h2.82v1.28h-1.5l.69.18c-.27.68-.57 1.39-.82 1.91h1.44v1.29h-2.63v1.52h2.42v1.28h-2.42v3.12h-1.41v-3.12h-2.53v-1.28h2.53v-1.52h-2.68v-1.29h1.4c-.08-.55-.32-1.31-.61-1.91l.66-.18H70.2V54.4h2.95V53h-2.37v-1.26h2.37v-1.52h1.41v1.52h2.23V53h-2.23v1.4h.01zm.03 3.22c.23-.55.52-1.36.68-1.94h-2.79c.29.63.57 1.42.63 1.94l-.53.15h2.57l-.55-.15h-.01zm10.02-.99c-.32 1.92-.94 3.73-1.82 5.26.69.81 1.5 1.47 2.41 1.92-.32.27-.78.82-1 1.19-.82-.48-1.57-1.13-2.23-1.9a9.19 9.19 0 01-1.97 1.92c-.19-.27-.52-.63-.82-.87v.86h-1.36V50.9h6.42v3.05c0 .69-.15 1.08-.71 1.29-.53.21-1.36.21-2.57.21-.06-.39-.26-.94-.45-1.29.92.03 1.78.03 2.02.02.24-.02.31-.06.31-.24v-1.71h-3.67v4.13h4.28l.24-.06.92.34v-.01zm-5.44 7.25c.74-.52 1.37-1.18 1.92-1.94-.82-1.28-1.45-2.76-1.92-4.36v6.3zm1.26-6.3c.36 1.1.84 2.15 1.44 3.1.52-.97.89-2.02 1.15-3.1h-2.59zm10.29-3.66h1.57v10.77h-1.11v-.82h-3.45v1.05h-1.07V53.93h1.5v-1.84h-1.76v-1.2h6.1v1.2h-1.78v1.84-.01zm-.13 4.68c-.66 0-.86-.18-.86-1.02v-2.44h-.63v1.34c0 .92-.16 2.15-.97 2.99-.1-.1-.26-.27-.42-.39v1.1h3.45V58.6h-.58.01zm-2.87-3.45v3.65c.56-.71.66-1.58.66-2.33v-1.32h-.66zm3.45 7.54v-1.41h-3.45v1.41h3.45zm-2.06-8.77h.63v-1.84h-.63v1.84zm2.06 1.23h-.68v2.42c0 .21.03.23.18.23h.5v-2.65zm2.88-.1c-.11 1.42-.32 3.18-.9 4.28l-.81-.68c.5-.89.73-2.47.82-3.83l.89.23zm6.53-4.52v14.48h-1.26v-6.47l-.6.32c-.13-.74-.47-1.79-.82-2.75v8.51h-1.23v-6.04l-.69.34c-.06-.82-.34-1.99-.66-3v1.02c0 3-.19 5.89-1.71 8.14-.24-.26-.76-.61-1.1-.79 1.42-2.02 1.6-4.6 1.6-7.34v-6.38h1.21v4.75l.68-.32c.26.66.5 1.45.68 2.16v-6.33h1.23v4.28l.53-.26c.34.69.65 1.48.89 2.24v-6.55h1.26l-.01-.01zm5.79 7.8c-1.05.5-2.13 1-3.02 1.4l-.73-1.23c1.02-.34 2.55-.95 4.04-1.57l.27 1.13-.27.13 1.02-.05c.35-.34.74-.73 1.13-1.13-.63-.55-1.53-1.21-2.28-1.7l.73-.84c.15.08.27.16.44.26.34-.47.69-1.02.97-1.49h-5.42v-1.37h5.83v-1.69h1.55v1.69h5.99v1.37h-6.8l.34.13c-.5.66-1.08 1.37-1.57 1.94.37.26.74.53 1.05.78.6-.69 1.16-1.39 1.58-2l1.19.55c-.95 1.11-2.11 2.39-3.21 3.44l2.28-.11c-.24-.37-.52-.74-.77-1.07l1.08-.47c.27.34.58.71.86 1.1l.92-.74c1.19.58 2.74 1.49 3.55 2.13l-1.11.94c-.68-.61-2.07-1.5-3.23-2.12.4.57.74 1.15.92 1.6l-1.15.56c-.1-.26-.24-.55-.42-.87-2 .16-3.99.31-5.54.42l-.21-1.13-.01.01zm4.24 2.22h6.46v1.39h-6.46v3.08h-1.55v-3.08h-6.33v-1.39h6.33v-1.16h1.55v1.16zm-6.47-6.76c.87.45 1.99 1.18 2.54 1.7l-1.05.9c-.52-.52-1.61-1.28-2.47-1.79l.98-.81zm8.7 1.84c.76-.53 1.78-1.41 2.34-2.03l1.34.66c-.81.74-1.81 1.49-2.58 1.97l-1.1-.6zm-82.93 62c.71.1 1.47.14 2.28.14.69 0 3.41 0 4.33-.03-.24.36-.5 1.08-.56 1.52h-3.84c-3.16 0-5.49-.53-6.96-3.07-.53 1.37-1.28 2.5-2.28 3.36-.24-.27-.87-.79-1.24-1.03 1.78-1.32 2.6-3.58 2.94-6.41l1.55.15c-.1.74-.23 1.45-.39 2.11.57 1.5 1.47 2.36 2.63 2.84v-6.26h-3.73v-1.44h9.09v1.44h-3.81v2.37h4.62v1.4h-4.62v2.91h-.01zm-6.02-7.52h-1.47v-3.71h5.91v-1.73h1.6v1.73h5.97v3.71h-1.53v-2.29H23.9v2.29zm17.53 6.14c-.58 1.21-1.52 2.45-2.39 3.25-.26-.26-.84-.68-1.19-.89.87-.69 1.7-1.73 2.16-2.75l1.42.39zm4.33-.65H37.9v-1.31h1.5v-6.3h-1.31v-1.31h1.31v-1.86h1.36v1.86h2.52v-1.86h1.39v1.86h1.16v1.31h-1.16v6.3h1.1v1.31h-.01zm-5.01-7.6v1.21h2.52V108h-2.52zm0 3.72h2.52v-1.34h-2.52v1.34zm0 2.57h2.52v-1.39h-2.52v1.39zm2.73 1.52c.63.73 1.41 1.71 1.74 2.36l-1.21.73c-.32-.65-1.07-1.7-1.68-2.45l1.15-.63v-.01zm8.72 1.89c0 .79-.18 1.23-.68 1.45-.48.26-1.26.29-2.45.27-.05-.39-.24-1.05-.44-1.42.76.03 1.57.02 1.78.02.24-.02.34-.08.34-.34v-3.58h-2.97c-.18 1.92-.57 3.97-1.49 5.44-.24-.27-.87-.71-1.2-.86 1.28-2.11 1.39-5.13 1.39-7.44v-5.81h5.71v12.27h.01zm-1.45-4.96v-2.36h-2.84v.86c0 .47 0 .99-.03 1.5h2.87zm-2.84-5.95v2.28h2.84v-2.28h-2.84zm14.3 10.84c.71.1 1.47.14 2.28.14.69 0 3.41 0 4.33-.03-.24.36-.5 1.08-.56 1.52h-3.84c-3.16 0-5.49-.53-6.96-3.07-.53 1.37-1.28 2.5-2.28 3.36-.24-.27-.87-.79-1.24-1.03 1.78-1.32 2.6-3.58 2.94-6.41l1.55.15c-.1.74-.23 1.45-.39 2.11.57 1.5 1.47 2.36 2.63 2.84v-6.26h-3.73v-1.44h9.09v1.44h-3.81v2.37h4.62v1.4h-4.62v2.91h-.01zm-6.02-7.52h-1.47v-3.71h5.91v-1.73h1.6v1.73h5.97v3.71h-1.53v-2.29H56.19v2.29zm20.07 8.28c1.11-.42 2.34-1.18 2.94-1.82l1.24.76c-.84.82-2.2 1.66-3.36 2.11-.24-.27-.68-.71-.98-.98h-3.5v.73h-1.28v-4.31c-.19.08-.39.18-.58.26-.16-.32-.52-.81-.78-1.08 1.15-.42 2.28-1.1 3.21-1.95-.45-.34-.9-.66-1.32-.95-.29.27-.58.53-.89.76-.19-.24-.69-.68-.97-.89 1.24-.81 2.34-2.08 2.94-3.49l1.24.32c-.13.29-.27.58-.44.86h1.82l.23-.06.86.39a9.497 9.497 0 01-1.58 2.87c.9.66 1.74 1.31 2.29 1.81l-.87 1.03-.23-.21v3.86l.01-.02zm-4.6-9.91h-1.23v-2.44h2.66v-1.36h1.4v1.36h2.68v2.44h-1.28v-1.23h-4.25v1.23h.02zm4.2 5.7c-.47-.4-1.05-.86-1.66-1.32-.5.5-1.07.94-1.66 1.32h3.33-.01zm-.91 1.16h-2.36v1.95h2.36v-1.95zm-1.88-5.58c-.13.18-.26.34-.39.5.44.29.9.6 1.37.92.35-.44.68-.92.92-1.42h-1.91.01zm6.87-1.78c.1-.42.19-.9.27-1.34H77.3v-1.29h7.46v1.29h-2.95c-.15.45-.31.92-.45 1.34h3.02v8.38h-6.52v-8.38h2.08zm3.02 1.15h-3.75v1.31h3.75v-1.31zm0 2.37h-3.75v1.32h3.75v-1.32zm0 2.39h-3.75v1.34h3.75v-1.34zm-.37 2.76c.9.58 2.08 1.45 2.68 2.05l-1.16.79c-.56-.58-1.71-1.52-2.62-2.15l1.1-.69zm8.13-7.78h2.83v1.28h-1.5l.69.18c-.27.68-.56 1.39-.82 1.91h1.44v1.29h-2.63v1.52h2.42v1.28h-2.42v3.12h-1.4v-3.12h-2.54v-1.28h2.54v-1.52h-2.68v-1.29h1.4c-.08-.55-.32-1.31-.61-1.91l.66-.18h-1.73v-1.28h2.95v-1.4h-2.37v-1.26h2.37v-1.52h1.4v1.52h2.23v1.26h-2.23v1.4zm.03 3.21c.23-.55.52-1.36.68-1.94h-2.79c.29.63.57 1.42.63 1.94l-.53.15h2.57l-.55-.15h-.01zm10.02-.99c-.32 1.92-.94 3.73-1.82 5.26.69.81 1.5 1.47 2.41 1.92-.32.27-.77.82-1 1.19-.82-.48-1.57-1.13-2.23-1.9-.57.74-1.23 1.39-1.97 1.92-.19-.27-.52-.63-.82-.87v.86h-1.36v-14.11h6.43v3.05c0 .69-.15 1.08-.71 1.29-.53.21-1.36.21-2.57.21-.06-.39-.26-.94-.45-1.29.92.03 1.78.03 2.02.02.24-.02.31-.06.31-.24v-1.71h-3.67v4.13h4.28l.24-.06.92.34-.01-.01zm-5.44 7.25c.74-.52 1.37-1.18 1.92-1.94-.82-1.28-1.45-2.76-1.92-4.36v6.3zm1.26-6.29c.36 1.1.84 2.15 1.44 3.1.52-.97.89-2.02 1.15-3.1h-2.59zm10.29-3.67h1.57v10.77h-1.11v-.82h-3.46v1.05h-1.07v-10.99h1.5v-1.84h-1.76v-1.2h6.1v1.2h-1.78v1.84l.01-.01zm-.13 4.68c-.66 0-.86-.18-.86-1.02v-2.44h-.63v1.34c0 .92-.16 2.15-.97 2.99-.1-.1-.26-.27-.42-.39v1.1h3.46v-1.58h-.58zm-2.87-3.45v3.65c.57-.71.66-1.58.66-2.33v-1.32h-.66zm3.45 7.54v-1.41h-3.46v1.41h3.46zm-2.06-8.77h.63v-1.84h-.63v1.84zm2.06 1.23h-.68v2.42c0 .21.03.23.18.23h.5v-2.65zm2.87-.1c-.11 1.42-.32 3.18-.9 4.28l-.81-.68c.5-.89.73-2.47.82-3.83l.89.23zm6.54-4.52v14.48h-1.26V113l-.6.32c-.13-.74-.47-1.79-.82-2.75v8.51h-1.23v-6.04l-.69.34c-.06-.82-.34-1.99-.66-3v1.02c0 3-.19 5.89-1.71 8.14-.24-.26-.76-.61-1.1-.79 1.42-2.02 1.6-4.6 1.6-7.34v-6.38h1.21v4.75l.68-.32c.26.66.5 1.45.68 2.16v-6.33h1.23v4.28l.53-.26c.34.69.65 1.48.89 2.24V105h1.26l-.01-.01zm5.79 7.8c-1.05.5-2.13 1-3.02 1.4l-.73-1.23c1.02-.34 2.55-.95 4.04-1.57l.27 1.13-.27.13 1.02-.05c.36-.34.74-.73 1.13-1.13-.63-.55-1.53-1.21-2.28-1.7l.73-.84c.15.08.27.16.44.26.34-.47.69-1.02.97-1.49h-5.42v-1.37h5.83v-1.69h1.55v1.69h5.99v1.37h-6.8l.34.13c-.5.66-1.08 1.37-1.57 1.94.37.26.74.53 1.05.78.6-.69 1.16-1.39 1.58-2l1.2.55c-.95 1.11-2.12 2.39-3.21 3.44l2.28-.11c-.24-.37-.52-.74-.78-1.07l1.08-.47c.27.34.58.71.86 1.1l.92-.74c1.2.58 2.75 1.49 3.55 2.13l-1.11.94c-.68-.61-2.07-1.5-3.23-2.12.4.57.74 1.15.92 1.6l-1.15.56c-.1-.26-.24-.55-.42-.87-2 .16-3.99.31-5.54.42l-.21-1.13-.01.01zm4.24 2.23h6.46v1.39h-6.46v3.08h-1.55v-3.08h-6.33v-1.39h6.33v-1.16h1.55v1.16zm-6.47-6.77c.87.45 1.99 1.18 2.53 1.7l-1.05.9c-.52-.52-1.61-1.28-2.47-1.79l.99-.81zm8.7 1.84c.76-.53 1.78-1.41 2.34-2.03l1.34.66c-.81.74-1.81 1.49-2.58 1.97l-1.1-.6z" fill="#494949"/><path d="M40.9 85.81h5.66v2.18H40.9v-2.18zm7.19 5.18l1.43-1.93c.91.89 2.03 1.58 3.42 1.58 1.55 0 2.61-.77 2.61-2.14 0-1.51-.89-2.45-4.23-2.45v-2.2c2.82 0 3.73-.97 3.73-2.34 0-1.2-.75-1.91-2.05-1.93-1.1.02-1.99.54-2.9 1.37l-1.56-1.87c1.33-1.16 2.8-1.89 4.6-1.89 2.97 0 4.98 1.45 4.98 4.08 0 1.66-.93 2.86-2.57 3.5v.1c1.74.48 3.07 1.76 3.07 3.77 0 2.82-2.47 4.46-5.39 4.46-2.43 0-4.06-.91-5.14-2.14v.03zm13.14.15c0-1.12.81-1.99 1.89-1.99 1.08 0 1.91.87 1.91 1.99s-.81 1.99-1.91 1.99c-1.1 0-1.89-.87-1.89-1.99zm6.16-.06c4.17-3.73 6.64-6.61 6.64-8.98 0-1.56-.85-2.49-2.3-2.49-1.12 0-2.05.73-2.82 1.58l-1.66-1.66c1.41-1.49 2.78-2.32 4.87-2.32 2.9 0 4.83 1.87 4.83 4.73 0 2.86-2.3 5.76-5.1 8.5.77-.08 1.78-.17 2.49-.17h3.34v2.57H67.39v-1.76zm13.02-.71h3.3v-9.7h-2.78v-1.89c1.53-.29 2.59-.68 3.57-1.29h2.26v12.88h2.88v2.47h-9.23v-2.47zm15.88-8.33c0-3.07 1.53-4.83 3.73-4.83s3.75 1.76 3.75 4.83c0 3.07-1.55 4.89-3.75 4.89s-3.73-1.8-3.73-4.89zm5.33 0c0-2.26-.71-3.11-1.6-3.11-.89 0-1.58.85-1.58 3.11s.68 3.17 1.58 3.17 1.6-.91 1.6-3.17zm7.26-4.84h1.8l-8.36 15.93h-1.78l8.34-15.93zm-1.44 11.04c0-3.09 1.55-4.85 3.73-4.85 2.18 0 3.75 1.76 3.75 4.85s-1.58 4.89-3.75 4.89-3.73-1.83-3.73-4.89zm5.33 0c0-2.26-.71-3.13-1.6-3.13-.89 0-1.6.87-1.6 3.13s.71 3.15 1.6 3.15c.89 0 1.6-.89 1.6-3.15zm-73.66 56.48h3.3v-9.71h-2.78v-1.89c1.53-.29 2.59-.68 3.57-1.29h2.26v12.88h2.88v2.47h-9.23v-2.47.01zm12.21 0h3.3v-9.71h-2.78v-1.89c1.53-.29 2.59-.68 3.57-1.29h2.26v12.88h2.88v2.47h-9.23v-2.47.01zm11.98.77c0-1.12.81-1.99 1.89-1.99 1.08 0 1.91.87 1.91 1.99s-.81 1.99-1.91 1.99c-1.1 0-1.89-.87-1.89-1.99zm6.24-2.11c0-1.97 1.2-3.24 2.63-4v-.1c-1.18-.85-2.03-2.01-2.03-3.65 0-2.47 1.95-4.04 4.62-4.04s4.46 1.64 4.46 4.08c0 1.51-.95 2.78-1.97 3.5v.1c1.41.77 2.57 2.01 2.57 4.11 0 2.32-2.05 4.11-5.16 4.11-2.92 0-5.12-1.7-5.12-4.11zm7.45-.11c0-1.6-1.41-2.26-3.4-3.07-.83.66-1.41 1.7-1.41 2.84 0 1.39 1.14 2.28 2.57 2.28 1.29 0 2.24-.73 2.24-2.05zm-.25-7.42c0-1.24-.75-2.14-2.03-2.14-1.04 0-1.87.68-1.87 1.91 0 1.45 1.18 2.16 2.8 2.8.75-.79 1.1-1.66 1.1-2.57zm15.67 7.36h-1.83v3.98h-2.84v-3.98h-6.53v-2.07l5.72-9.29h3.65v9.04h1.83v2.32zm-4.67-2.32v-3.13c0-.89.08-2.28.12-3.17h-.08c-.37.81-.79 1.66-1.22 2.49l-2.38 3.82h3.57l-.01-.01zm10.62-4.5c0-3.07 1.54-4.83 3.73-4.83s3.75 1.76 3.75 4.83c0 3.07-1.56 4.89-3.75 4.89s-3.73-1.8-3.73-4.89zm5.33 0c0-2.26-.7-3.11-1.6-3.11-.9 0-1.58.85-1.58 3.11s.68 3.17 1.58 3.17 1.6-.91 1.6-3.17zm7.25-4.83h1.8l-8.36 15.93h-1.78l8.34-15.93zm-1.43 11.03c0-3.09 1.56-4.85 3.73-4.85s3.75 1.76 3.75 4.85-1.58 4.89-3.75 4.89-3.73-1.82-3.73-4.89zm5.33 0c0-2.26-.71-3.13-1.6-3.13-.89 0-1.6.87-1.6 3.13s.71 3.15 1.6 3.15c.89 0 1.6-.89 1.6-3.15z" fill="#D95F28"/></svg>