<svg width="550" height="15" viewBox="0 0 550 15" fill="none" xmlns="http://www.w3.org/2000/svg">
<g clip-path="url(#clip0_2362_150)">
<path fill-rule="evenodd" clip-rule="evenodd" d="M548.841 9.79502L544.63 14.007C543.458 15.178 541.559 15.178 540.387 14.007L536.772 10.391H0.689999V6.03102H535.787C535.898 5.86202 536.027 5.70102 536.176 5.55202L540.387 1.34102C541.559 0.170019 543.458 0.170019 544.63 1.34102L548.841 5.55202C550.013 6.72402 550.013 8.62402 548.841 9.79502Z" fill="#CCD5E2"/>
<path d="M548.841 9.79502L544.63 14.007C543.458 15.178 541.559 15.178 540.387 14.007L536.772 10.391H0.689999V6.03102H535.787C535.898 5.86202 536.027 5.70102 536.176 5.55202L540.387 1.34102C541.559 0.170019 543.458 0.170019 544.63 1.34102L548.841 5.55202C550.013 6.72402 550.013 8.62402 548.841 9.79502Z" fill="url(#paint0_linear_2362_150)"/>
</g>
<defs>
<linearGradient id="paint0_linear_2362_150" x1="0.689999" y1="0.462769" x2="549.72" y2="0.462769" gradientUnits="userSpaceOnUse">
<stop stop-color="#C99C49"/>
<stop offset="1" stop-color="#AB872B"/>
</linearGradient>
<clipPath id="clip0_2362_150">
<rect width="550" height="15" fill="white"/>
</clipPath>
</defs>
</svg>
